<svg width="1920" height="760" viewBox="0 0 1920 760" fill="none" xmlns="http://www.w3.org/2000/svg">
<g clip-path="url(#clip0_132_437)">
<g opacity="0.5">
<g filter="url(#filter0_f_132_437)">
<path d="M959.706 123.145L985.202 430.27C998.915 595.463 1113.09 735.083 1272.28 781.31L1452 833.5L959.706 784.754L511.5 833.5L657.618 786.39C811.319 736.836 920.145 599.718 933.505 438.779L959.706 123.145Z" fill="#264C49"/>
</g>
<g opacity="0.4" filter="url(#filter1_f_132_437)">
<path d="M960.319 121.5L986.718 477.503C998.488 636.229 1103.24 772.874 1253.46 825.46L1519.64 918.637L960.319 829.404L401 908.637L660.938 822.705C814.465 771.952 922.335 633.756 934.292 472.5L960.319 121.5Z" fill="#264C49"/>
</g>
<g opacity="0.4" filter="url(#filter2_f_132_437)">
<path d="M955.764 485.5L968.233 589.642C978.816 678.038 1046.55 748.797 1134.4 763.224L1471 818.5L960.319 829.404L461.5 842.5L790.359 770.455C876.073 751.677 939.537 679.223 946.861 591.783L955.764 485.5Z" fill="#00FFE9"/>
</g>
<g opacity="0.3" filter="url(#filter3_f_132_437)">
<path d="M953.819 568.5L955.068 598.029C958.285 674.134 1014.71 737.42 1089.95 749.31L1464.5 808.5L953.819 819.404L473 808.5L817.763 749.464C888.797 737.301 942.932 679.148 949.989 607.427L953.819 568.5Z" fill="#00FFE9"/>
</g>
<g opacity="0.4" filter="url(#filter4_f_132_437)">
<path d="M960.319 662.5C969.983 709.269 1005.34 746.506 1051.55 758.574L1281 818.5L960.319 829.404L630 818.5L870.12 757.902C916.145 746.287 951.301 709.103 960.319 662.5Z" fill="#00FFE9"/>
</g>
<g style="mix-blend-mode:plus-lighter" filter="url(#filter5_f_132_437)">
<ellipse cx="977.5" cy="899" rx="679.5" ry="172" fill="#1E4232"/>
</g>
<g style="mix-blend-mode:plus-lighter" opacity="0.5" filter="url(#filter6_f_132_437)">
<path d="M1852.44 849.136C1677.84 795.953 1351.47 760.17 977.65 760.17C603.832 760.17 277.454 795.953 102.855 849.136C267.578 792.32 597.504 737.578 977.65 737.578C1357.79 737.578 1687.72 792.32 1852.44 849.136Z" fill="#1F583F"/>
</g>
</g>
</g>
<defs>
<filter id="filter0_f_132_437" x="311.5" y="-76.8555" width="1340.5" height="1110.36" filterUnits="userSpaceOnUse" color-interpolation-filters="sRGB">
<feFlood flood-opacity="0" result="BackgroundImageFix"/>
<feBlend mode="normal" in="SourceGraphic" in2="BackgroundImageFix" result="shape"/>
<feGaussianBlur stdDeviation="100" result="effect1_foregroundBlur_132_437"/>
</filter>
<filter id="filter1_f_132_437" x="201" y="-78.5" width="1518.64" height="1197.14" filterUnits="userSpaceOnUse" color-interpolation-filters="sRGB">
<feFlood flood-opacity="0" result="BackgroundImageFix"/>
<feBlend mode="normal" in="SourceGraphic" in2="BackgroundImageFix" result="shape"/>
<feGaussianBlur stdDeviation="100" result="effect1_foregroundBlur_132_437"/>
</filter>
<filter id="filter2_f_132_437" x="261.5" y="285.5" width="1409.5" height="757" filterUnits="userSpaceOnUse" color-interpolation-filters="sRGB">
<feFlood flood-opacity="0" result="BackgroundImageFix"/>
<feBlend mode="normal" in="SourceGraphic" in2="BackgroundImageFix" result="shape"/>
<feGaussianBlur stdDeviation="100" result="effect1_foregroundBlur_132_437"/>
</filter>
<filter id="filter3_f_132_437" x="373" y="468.5" width="1191.5" height="450.904" filterUnits="userSpaceOnUse" color-interpolation-filters="sRGB">
<feFlood flood-opacity="0" result="BackgroundImageFix"/>
<feBlend mode="normal" in="SourceGraphic" in2="BackgroundImageFix" result="shape"/>
<feGaussianBlur stdDeviation="50" result="effect1_foregroundBlur_132_437"/>
</filter>
<filter id="filter4_f_132_437" x="550" y="582.5" width="811" height="326.904" filterUnits="userSpaceOnUse" color-interpolation-filters="sRGB">
<feFlood flood-opacity="0" result="BackgroundImageFix"/>
<feBlend mode="normal" in="SourceGraphic" in2="BackgroundImageFix" result="shape"/>
<feGaussianBlur stdDeviation="40" result="effect1_foregroundBlur_132_437"/>
</filter>
<filter id="filter5_f_132_437" x="67.3" y="496.3" width="1820.4" height="805.4" filterUnits="userSpaceOnUse" color-interpolation-filters="sRGB">
<feFlood flood-opacity="0" result="BackgroundImageFix"/>
<feBlend mode="normal" in="SourceGraphic" in2="BackgroundImageFix" result="shape"/>
<feGaussianBlur stdDeviation="115.35" result="effect1_foregroundBlur_132_437"/>
</filter>
<filter id="filter6_f_132_437" x="38.4555" y="673.178" width="1878.39" height="240.359" filterUnits="userSpaceOnUse" color-interpolation-filters="sRGB">
<feFlood flood-opacity="0" result="BackgroundImageFix"/>
<feBlend mode="normal" in="SourceGraphic" in2="BackgroundImageFix" result="shape"/>
<feGaussianBlur stdDeviation="32.2" result="effect1_foregroundBlur_132_437"/>
</filter>
<clipPath id="clip0_132_437">
<rect width="1920" height="760" fill="white"/>
</clipPath>
</defs>
</svg>
