<svg width="1920" height="363" viewBox="0 0 1920 363" fill="none" xmlns="http://www.w3.org/2000/svg">
<path d="M1919.5 21.3955V241.848C1919.5 311.186 1866.89 362.5 1795.29 362.5C1725.1 362.5 1671.55 307.944 1671.55 241.848C1671.55 206.222 1683.79 175.949 1704.9 154.584C1726.01 133.219 1756.01 120.732 1791.58 120.731C1814.65 120.731 1836.79 129.046 1853.39 142.438L1854.2 143.091L1854.21 142.05L1854.67 21.3955H1919.5ZM936.473 120.267C1007.13 120.267 1060.68 175.287 1060.68 240.919C1060.68 307.479 1006.67 362.036 936.473 362.036C866.279 362.036 812.73 307.481 812.73 240.919C812.731 174.824 866.74 120.267 936.473 120.267ZM1167.05 127.229V233.492C1167.05 251.201 1171.24 267.674 1179.71 279.734C1188.2 291.813 1200.99 299.442 1218.08 299.442C1235.17 299.442 1248.07 291.813 1256.68 279.678C1265.27 267.56 1269.57 250.971 1269.57 233.028V127.229H1334.4V240.919C1334.4 274.477 1324.47 304.754 1304.98 326.635C1285.5 348.507 1256.43 362.036 1218.08 362.036C1179.96 362.036 1151.01 348.508 1131.59 326.636C1112.16 304.755 1102.22 274.477 1102.22 240.919V127.229H1167.05ZM67.1846 44.6045V216.317C67.1846 243.527 72.7566 263.858 84.165 277.39C95.588 290.939 112.787 297.586 135.832 297.586C158.877 297.586 176.076 290.939 187.499 277.39C198.908 263.858 204.48 243.527 204.48 216.317V44.6045H271.165V217.71C271.165 262.664 260.403 298.499 238.147 323.093C215.9 347.677 182.094 361.107 135.832 361.107C89.3382 361.107 55.533 347.677 33.3438 323.093C11.1464 298.5 0.5 262.665 0.5 217.71V44.6045H67.1846ZM1507.07 120.731C1547.05 120.731 1577.04 134.264 1597.04 156.137C1617.05 178.017 1627.1 208.291 1627.1 241.848V356.001H1562.27V249.739C1562.27 232.028 1557.97 215.549 1548.9 203.484C1539.82 191.402 1526 183.789 1507.07 183.789C1488.37 183.789 1474.78 191.404 1465.87 203.488C1456.98 215.553 1452.79 232.03 1452.79 249.739V356.001H1387.96V241.848C1387.96 208.521 1397.79 178.246 1417.56 156.309C1437.33 134.379 1467.09 120.731 1507.07 120.731ZM753.401 0.5C768.525 0.5 781.152 0.499411 795.552 0.501953V58.4512H759.428C746.834 58.4512 736.612 61.6039 729.536 68.0986C722.453 74.6002 718.596 84.3822 718.596 97.4785V127.229H791.843V181.932H718.596V356.001H653.766V181.932H612.97V127.229H653.766V98.4072C653.766 70.885 661.965 46.4163 678.49 28.832C695.01 11.2533 719.903 0.5 753.401 0.5ZM453.124 120.731C493.105 120.731 523.097 134.264 543.098 156.137C563.104 178.017 573.158 208.291 573.158 241.848V356.001H508.328V249.739C508.328 232.028 504.024 215.549 494.958 203.484C485.878 191.402 472.051 183.789 453.124 183.789C434.426 183.789 420.831 191.404 411.926 203.488C403.036 215.553 398.848 232.03 398.848 249.739V356.001H334.018V241.848C334.018 208.521 343.841 178.246 363.617 156.309C383.386 134.379 413.145 120.732 453.124 120.731ZM936.473 181.468C902.336 181.468 877.561 208.634 877.561 241.384C877.561 274.134 902.336 301.299 936.473 301.299C970.604 301.299 995.848 274.139 995.849 241.384C995.849 208.628 970.604 181.468 936.473 181.468ZM1795.29 181.932C1761.16 181.932 1736.38 209.097 1736.38 241.848C1736.38 274.603 1761.16 301.299 1795.29 301.299C1829.42 301.299 1854.67 274.608 1854.67 241.848C1854.67 209.092 1829.43 181.932 1795.29 181.932Z" fill="url(#paint0_linear_7_1898)" stroke="url(#paint1_linear_7_1898)"/>
<defs>
<linearGradient id="paint0_linear_7_1898" x1="960" y1="0" x2="960" y2="363" gradientUnits="userSpaceOnUse">
<stop stop-color="white" stop-opacity="0.1"/>
<stop offset="1" stop-color="white" stop-opacity="0.02"/>
</linearGradient>
<linearGradient id="paint1_linear_7_1898" x1="960" y1="0" x2="960" y2="363" gradientUnits="userSpaceOnUse">
<stop stop-color="white" stop-opacity="0.1"/>
<stop offset="1" stop-color="white" stop-opacity="0"/>
</linearGradient>
</defs>
</svg>
