<svg width="40" height="40" viewBox="0 0 40 40" fill="none" xmlns="http://www.w3.org/2000/svg">
<g opacity="0.4">
<path d="M39.4008 20C39.4008 9.28526 30.7148 0.599195 20 0.599184C9.28525 0.599184 0.599184 9.28525 0.599184 20C0.599195 30.7148 9.28526 39.4008 20 39.4008C30.7148 39.4008 39.4008 30.7148 39.4008 20ZM40 20C40 31.0457 31.0457 40 20 40C8.95434 40 1.1118e-05 31.0457 0 20C0 8.95433 8.95433 0 20 0C31.0457 1.11207e-05 40 8.95434 40 20Z" fill="white"/>
<path d="M20 34.8106C28.1791 34.8106 34.8096 28.1801 34.8096 20.001C34.8096 11.8219 28.1791 5.19141 20 5.19141C11.8209 5.19141 5.19043 11.8219 5.19043 20.001C5.19043 28.1801 11.8209 34.8106 20 34.8106Z" stroke="white" stroke-width="0.599184" stroke-miterlimit="10"/>
<path d="M1.28833 32.4637C2.0418 32.3207 19.189 27.8388 20.0128 34.1317C20.0135 34.1341 20.0149 34.1362 20.0168 34.1377C20.0188 34.1393 20.0212 34.1401 20.0237 34.1401C20.0262 34.1401 20.0286 34.1393 20.0305 34.1377C20.0325 34.1362 20.0339 34.1341 20.0346 34.1317C20.8285 27.7983 38.0018 32.3694 38.7591 32.4637L33.0601 23.7246C33.0601 23.7246 24.634 19.8801 20.0278 23.5748C15.471 19.9925 6.99556 23.7299 6.99556 23.7299L1.28833 32.4637Z" stroke="white" stroke-width="0.599184" stroke-miterlimit="10"/>
<path d="M5.98071 29.0478C5.98071 29.0478 14.1993 26.7941 20.0278 31.0513C25.9118 26.7806 34.0757 29.0478 34.0757 29.0478L28.8126 19.5762C28.8126 19.5762 26.2379 19.7449 23.7428 20.2496C22.5818 22.3572 20.7259 21.5898 19.8481 22.1325C18.6614 21.5395 15.7661 21.7206 15.9908 20.191C13.5035 19.6792 11.2543 19.5762 11.2543 19.5762L5.98071 29.0478Z" stroke="white" stroke-width="0.599184" stroke-miterlimit="10"/>
<path d="M20.0277 25.9707L22.527 30.4923L21.4178 34.748L18.6091 34.6491L17.4294 30.6466L19.9999 26.0411L20.0277 25.9707Z" fill="white"/>
<path d="M22.8551 30.4135C22.7802 30.2877 22.6888 30.1297 22.5862 29.9477H22.5929L22.2986 29.4279H22.2941L22.0994 29.0751C21.3032 27.6266 20.3018 25.7489 20.2921 25.7234L20.0277 25.2246L19.7633 25.7234C19.7483 25.7511 18.6076 27.8992 17.792 29.3725L17.7598 29.4301L17.4677 29.9499C17.3651 30.1312 17.2737 30.2885 17.1995 30.4135L17.1187 30.5491L17.1846 30.6922C17.1846 30.6982 17.2542 30.842 17.3523 31.0831V31.0884C17.3538 31.0925 17.3555 31.0965 17.3576 31.1004C17.3576 31.1078 17.3636 31.1161 17.3673 31.1243C17.3677 31.1263 17.3677 31.1283 17.3673 31.1303C17.4265 31.2681 17.6115 31.713 17.7575 32.1744C17.8781 32.5324 17.9972 32.9234 18.0901 33.3181L18.1028 33.372C18.1882 33.7165 18.2448 34.0675 18.2721 34.4213V34.9973C18.692 35.0472 19.1152 35.0782 19.5416 35.0902C19.6966 35.1037 19.8592 35.1119 20.0254 35.1119C20.1917 35.1119 20.373 35.1029 20.5318 35.0894C20.9467 35.0759 21.3581 35.0457 21.7661 34.9988L21.7848 34.4326V34.4213C21.8084 34.0696 21.861 33.7204 21.9421 33.3773L21.9548 33.3233C22.0514 32.9144 22.1795 32.5047 22.3023 32.1347C22.3877 31.8785 22.6768 31.1311 22.6768 31.1311C22.7869 30.8637 22.8618 30.6982 22.8648 30.6922L22.9307 30.5491L22.8551 30.4135ZM21.1856 34.3899C20.8034 34.4691 20.4143 34.5103 20.0239 34.5127C19.6366 34.508 19.2506 34.4661 18.8713 34.3876C18.7896 32.9548 18.0272 31.1138 17.7965 30.5858C18.3043 29.7155 19.3109 27.8445 19.8801 26.7802V31.146C19.7451 31.1824 19.6278 31.2666 19.5502 31.3829C19.4726 31.4993 19.4399 31.6399 19.4582 31.7785C19.4765 31.9172 19.5446 32.0445 19.6498 32.1367C19.755 32.2289 19.8901 32.2797 20.0299 32.2797C20.1698 32.2797 20.3049 32.2289 20.4101 32.1367C20.5153 32.0445 20.5834 31.9172 20.6017 31.7785C20.62 31.6399 20.5873 31.4993 20.5097 31.3829C20.4321 31.2666 20.3148 31.1824 20.1797 31.146V26.7802C20.7242 27.7989 21.6702 29.556 22.1952 30.4682L22.2634 30.5858L22.2117 30.7056C21.9338 31.3535 21.262 33.0507 21.1856 34.3899Z" fill="white"/>
<path d="M28.298 16.7471C28.1509 16.6561 28.0375 16.5195 27.975 16.3582C27.9125 16.1969 27.9043 16.0196 27.9516 15.8532C27.9989 15.6868 28.0993 15.5403 28.2373 15.4361C28.3754 15.3318 28.5437 15.2754 28.7167 15.2754C28.8897 15.2754 29.058 15.3318 29.196 15.4361C29.3341 15.5403 29.4344 15.6868 29.4817 15.8532C29.5291 16.0196 29.5209 16.1969 29.4584 16.3582C29.3958 16.5195 29.2824 16.6561 29.1353 16.7471C29.4253 16.8371 29.6788 17.0174 29.859 17.2617C30.0391 17.506 30.1365 17.8015 30.1367 18.105V18.9184C30.1367 18.3904 30.4858 18.0196 30.9659 17.8698C30.8711 17.8113 30.7927 17.7297 30.7381 17.6326C30.6835 17.5356 30.6544 17.4262 30.6535 17.3148C30.6544 17.1432 30.7214 16.9784 30.8407 16.8549C30.96 16.7314 31.1223 16.6587 31.2939 16.652C31.4386 16.648 31.5806 16.6918 31.6979 16.7766C31.8152 16.8614 31.9012 16.9825 31.9428 17.1212C31.9843 17.2599 31.979 17.4083 31.9276 17.5437C31.8762 17.679 31.7817 17.7936 31.6587 17.8698C31.8988 17.9438 32.1089 18.0929 32.2582 18.2951C32.4074 18.4973 32.4879 18.742 32.4878 18.9933V19.788C32.4878 19.3693 32.7642 19.0907 33.1439 18.9738C33.0466 18.9141 32.9715 18.8241 32.93 18.7178C32.8885 18.6114 32.8828 18.4944 32.9139 18.3845C32.9449 18.2746 33.011 18.1779 33.1021 18.109C33.1932 18.0401 33.3042 18.0029 33.4184 18.0029C33.5326 18.0029 33.6436 18.0401 33.7347 18.109C33.8258 18.1779 33.8918 18.2746 33.9229 18.3845C33.954 18.4944 33.9483 18.6114 33.9068 18.7178C33.8653 18.8241 33.7902 18.9141 33.6929 18.9738C33.8981 19.0341 34.0755 19.1648 34.1939 19.3428C34.3124 19.5209 34.3644 19.735 34.3408 19.9475L34.2561 20.865C34.1983 21.4895 34.0982 22.1093 33.9565 22.7202L33.3057 25.8899L32.8735 25.3432L30.7382 24.5522L28.3527 21.9098C28.3527 21.9098 27.7497 21.8979 27.4936 21.9098C27.1018 21.9256 26.7116 21.9691 26.3259 22.0402V21.1384C27.2966 17.4661 27.7183 16.9261 28.298 16.7471Z" fill="white"/>
<path d="M6.13855 22.722L6.96917 25.9808L7.40208 25.4341L9.53667 24.6424L11.4481 22.8801C11.4481 22.8801 11.9282 21.7761 12.1851 21.7851C12.7985 21.806 12.964 19.9995 12.964 19.9995L12.7985 18.1031C12.7982 17.7994 12.7007 17.5038 12.5204 17.2595C12.3401 17.0152 12.0864 16.835 11.7963 16.7452C11.9434 16.6541 12.0568 16.5176 12.1194 16.3562C12.1819 16.1949 12.1901 16.0176 12.1427 15.8512C12.0954 15.6848 11.9951 15.5384 11.857 15.4341C11.719 15.3298 11.5507 15.2734 11.3777 15.2734C11.2047 15.2734 11.0364 15.3298 10.8983 15.4341C10.7602 15.5384 10.6599 15.6848 10.6126 15.8512C10.5653 16.0176 10.5735 16.1949 10.636 16.3562C10.6985 16.5176 10.8119 16.6541 10.959 16.7452C10.6691 16.8353 10.4156 17.0157 10.2356 17.2602C10.0555 17.5046 9.9584 17.8002 9.95835 18.1038V18.9172C9.95835 18.3892 9.60932 18.0184 9.12997 17.8686C9.22464 17.8101 9.30288 17.7284 9.35738 17.6313C9.41187 17.5343 9.44084 17.425 9.44155 17.3136C9.44073 17.1421 9.37378 16.9774 9.25464 16.854C9.13551 16.7305 8.97335 16.6577 8.80192 16.6508C8.65716 16.6466 8.51507 16.6903 8.39765 16.7751C8.28023 16.8598 8.19403 16.9809 8.1524 17.1196C8.11077 17.2583 8.11604 17.4069 8.16739 17.5423C8.21873 17.6777 8.31329 17.7924 8.43642 17.8686C8.19632 17.9427 7.98626 18.0918 7.83706 18.294C7.68785 18.4962 7.60732 18.7408 7.6073 18.9921V19.7868C7.6073 19.3681 7.33092 19.0895 6.95119 18.9726C7.04855 18.9129 7.12375 18.823 7.16535 18.7167C7.20694 18.6103 7.21266 18.4932 7.18164 18.3833C7.15061 18.2734 7.08453 18.1766 6.99346 18.1077C6.90238 18.0387 6.79128 18.0014 6.67706 18.0014C6.56284 18.0014 6.45175 18.0387 6.36067 18.1077C6.2696 18.1766 6.20352 18.2734 6.17249 18.3833C6.14147 18.4932 6.14718 18.6103 6.18878 18.7167C6.23038 18.823 6.30557 18.9129 6.40294 18.9726C6.25716 19.0176 6.12465 19.0976 6.01704 19.2058C5.90943 19.3139 5.83002 19.4468 5.78578 19.5928C5.78578 19.7254 5.77979 19.8572 5.77979 19.9905C5.77979 20.0804 5.77979 20.1703 5.78353 20.2601L5.8397 20.8661C5.89724 21.4908 5.99708 22.1108 6.13855 22.722Z" fill="white"/>
<path d="M15.7069 18.0793C15.632 17.4637 15.5069 16.7701 15.4702 16.6113C15.5286 16.9244 15.6058 17.4801 15.7069 18.0793Z" fill="white"/>
<path d="M16.3292 14.419C16.279 15.0466 16.3636 15.1223 16.9403 15.0931C17.002 15.0963 17.0605 15.1209 17.1059 15.1627C17.3388 15.3739 17.6047 15.4017 17.8833 15.2376C17.2467 15.1964 17.1561 15.1477 17.2325 14.8893C17.4444 15.171 17.7223 15.177 17.9492 14.8946C18.0563 14.7613 18.132 14.8197 18.2256 14.9043C18.2792 14.9611 18.3478 15.0016 18.4233 15.0212C18.6049 15.0477 18.7881 15.0622 18.9716 15.0646C18.9963 15.0596 19.0195 15.0489 19.0393 15.0333C19.059 15.0177 19.0749 14.9976 19.0854 14.9747C19.1528 14.8032 19.2068 14.6272 19.2742 14.4257L19.2195 14.8856L19.251 14.8901L19.3453 14.6871C19.3655 15.0616 19.1094 15.3148 18.9139 15.6428C18.9592 15.6258 19.0034 15.6063 19.0465 15.5844C19.2981 15.4241 19.4404 15.1807 19.5318 14.9103C19.5783 14.7718 19.5715 14.6107 19.6299 14.4827C19.6532 14.4295 19.7977 14.3838 19.8636 14.4078C19.9805 14.446 20.1789 14.5575 20.17 14.604C20.1093 14.9036 20.3834 15.0684 20.4164 15.323C20.4239 15.3792 20.4965 15.4376 20.5527 15.4728C20.7227 15.5852 20.8987 15.6893 21.077 15.7934C21.1318 15.8177 21.1884 15.838 21.2462 15.854C20.8066 15.4556 20.5175 15.0421 20.4673 14.4961C20.65 14.9702 20.9167 15.3837 21.3578 15.6668C21.3054 15.5784 21.2522 15.4908 21.1698 15.353C21.2527 15.366 21.3347 15.3838 21.4155 15.4061C21.9241 15.5994 22.4139 15.7439 22.8925 15.2968C23.0086 15.1882 23.255 15.2182 23.4819 15.177C23.4677 15.3747 23.4565 15.5282 23.4467 15.6668C23.4355 15.6735 23.4505 15.6668 23.4587 15.6586C23.4776 15.6381 23.4933 15.6149 23.5052 15.5896C23.6767 15.162 23.7651 14.7306 23.595 14.2782C23.4123 13.7906 23.3449 13.7337 22.909 13.7382V13.7427C22.8015 13.719 22.6923 13.7045 22.5824 13.6992C22.0162 13.7082 21.45 13.7194 20.8837 13.7419C20.5347 13.7554 20.5197 13.7681 20.4553 14.1089C20.4269 14.2587 20.3535 14.3059 20.2119 14.3036C19.9872 14.2992 19.7588 14.3036 19.5318 14.3096C19.4345 14.3096 19.3146 14.4272 19.2577 14.2392C19.2209 14.1426 19.1763 14.0492 19.1244 13.9599L19.1993 13.9044L19.2959 14.1022C19.2959 13.8438 19.2075 13.7277 18.9431 13.7149C18.4937 13.6955 18.0443 13.7052 17.595 13.7075L17.8279 13.7412C17.7238 13.8033 17.6661 13.8632 17.6032 13.8737C17.3826 13.9174 17.1585 13.9405 16.9336 13.9426C16.5846 13.9284 16.3561 14.0812 16.3292 14.419ZM23.4962 14.1479H23.5314V14.8489H23.4962V14.1479ZM22.363 15.0324L22.2551 14.9575V14.6976L22.315 14.6774C22.357 14.7328 22.4251 14.7845 22.4334 14.8452C22.4416 14.9058 22.3914 14.9687 22.363 15.0324ZM22.903 13.7427L22.8483 13.852L22.9809 13.879C22.9621 13.9022 22.9532 13.9254 22.9389 13.9299C22.9005 13.9473 22.8579 13.9535 22.8161 13.9479C22.5914 13.8647 22.3667 13.825 22.1368 13.9479C22.3547 13.7172 22.6408 13.7786 22.903 13.7427ZM20.6763 13.9202C20.7212 13.8655 20.8193 13.8558 20.9511 13.8026C20.8762 14.0872 20.5677 14.1995 20.6905 14.4767C20.6118 14.2887 20.528 14.0977 20.6763 13.9202ZM17.6257 14.3119L16.8258 14.5583C16.8684 14.2632 17.2632 14.1479 17.6257 14.3119Z" fill="white"/>
<path d="M17.3987 13.7067H17.5867L17.3979 13.6797L17.3987 13.7067Z" fill="white"/>
<path d="M18.8076 16.2266C18.6826 16.297 18.5395 16.3651 18.4511 16.476C17.9546 17.0969 17.6123 17.7762 17.6714 18.627C17.6758 18.6789 17.7003 18.727 17.7396 18.7611L17.7501 18.7701C17.7761 18.7909 17.8067 18.8054 17.8394 18.8123C17.872 18.8192 17.9058 18.8183 17.9381 18.8098C18.0017 18.7956 18.0384 18.8375 18.0474 18.9364C18.0587 19.0585 18.1261 19.1214 18.2272 19.0757C18.4017 18.997 18.5418 19.0607 18.6923 19.1281C18.7444 19.1439 18.7992 19.1488 18.8533 19.1423C18.9911 19.1423 19.1297 19.1229 19.2653 19.1349C19.4413 19.1498 19.6173 19.2247 19.7896 19.2097C20.1386 19.1798 20.4839 19.1086 20.8299 19.0502C20.9437 19.0307 21.0546 18.9993 21.1909 18.9686L21.1842 19.033C21.1817 19.056 21.1861 19.0791 21.1968 19.0996C21.2076 19.1201 21.2241 19.1369 21.2444 19.1479C21.2647 19.159 21.2878 19.1638 21.3108 19.1617C21.3338 19.1597 21.3557 19.1508 21.3736 19.1364C21.5826 18.9678 21.7833 18.8188 22.0919 19.0263V18.5544C21.9728 18.493 21.8972 18.4488 21.8178 18.4143C21.7571 18.3874 21.6598 18.3357 21.6328 18.3589C21.5137 18.4615 21.4081 18.3866 21.2987 18.3589C21.1407 18.3215 20.9774 18.2578 20.8216 18.272C20.5771 18.2849 20.3368 18.3407 20.1116 18.4368C19.8307 18.5746 19.5559 18.6855 19.2413 18.6675C19.1522 18.6622 19.1012 18.645 19.0855 18.6038C19.0764 18.583 19.0631 18.5644 19.0463 18.5491C19.0295 18.5338 19.0096 18.5223 18.9881 18.5152C18.9665 18.5081 18.9437 18.5057 18.9211 18.508C18.8985 18.5104 18.8767 18.5175 18.8571 18.5289C18.8232 18.5466 18.7904 18.5664 18.759 18.5881C18.571 18.7177 18.4084 18.7042 18.2497 18.5439C18.15 18.4435 18.0444 18.4256 17.9343 18.5349C17.8925 18.5651 17.8473 18.5903 17.7995 18.6098C17.7875 18.4945 17.7553 18.4031 17.7718 18.3207C17.9291 17.5358 18.4039 16.9066 18.8076 16.2266Z" fill="white"/>
<path d="M23.5344 13.6504C23.4763 13.6096 23.4217 13.564 23.3711 13.5141L23.3254 13.568C23.3621 13.606 23.3966 13.646 23.4288 13.6878C23.5322 13.8376 23.6632 13.9717 23.7284 14.1372C23.7958 14.3155 23.8842 14.323 24.0115 14.2406C24.1613 14.141 24.3074 14.0241 24.4017 13.9545C24.4452 13.2497 24.2519 12.6602 23.8872 12.082C23.9083 12.186 23.9181 12.292 23.9164 12.3981C23.8924 12.5726 23.8977 12.7973 23.7928 12.9044C23.7343 12.9531 23.6924 13.0187 23.673 13.0923C23.6535 13.1658 23.6574 13.2436 23.6842 13.3149C23.715 13.3861 23.74 13.4598 23.7591 13.5351C23.7567 13.5988 23.7443 13.6617 23.7224 13.7215C23.6575 13.7042 23.5945 13.6804 23.5344 13.6504ZM24.0033 13.2257C24.0827 13.3755 24.1643 13.5253 24.2384 13.6751C24.2474 13.6931 24.2205 13.7463 24.198 13.7568C24.1755 13.7672 24.1156 13.7605 24.1051 13.7418C24.0145 13.5852 23.9022 13.4354 24.0033 13.2257Z" fill="white"/>
<path d="M19.1965 19.832C19.1216 19.8357 19.0542 19.8507 18.9568 19.8634C19.1695 20.0881 19.3889 20.0717 19.6309 20.0462C19.9574 20.0125 20.2892 20.026 20.618 20.0095C20.7638 20.0042 20.9088 19.9849 21.0509 19.9518C21.3962 19.8657 21.4711 19.5301 21.6269 19.2598C21.5737 19.2972 21.5198 19.3347 21.4681 19.3714C21.1902 19.5841 20.8989 19.7526 20.5304 19.7616C20.084 19.7713 19.6406 19.8058 19.1965 19.832Z" fill="white"/>
<path d="M15.4679 14.9675C15.4652 14.9394 15.4582 14.9118 15.4469 14.8859C15.405 14.7638 15.3615 14.6417 15.3293 14.5488C15.0297 14.8964 14.9863 15.3023 15.2544 15.7435L15.4686 15.855C15.4686 15.5555 15.4694 15.2611 15.4679 14.9675Z" fill="white"/>
<path d="M16.915 15.4345C17.2431 15.848 18.3576 15.7251 18.4639 15.248C17.9659 15.5005 17.4595 15.484 16.915 15.4345Z" fill="white"/>
<path d="M16.0335 14.2246L16.1833 13.9954C15.9871 13.9662 15.9474 13.8269 15.9242 13.6853C15.9077 13.5857 15.8837 13.5093 15.7654 13.516C15.8273 13.7512 15.8892 13.9861 15.9511 14.2208L16.0335 14.2246Z" fill="white"/>
<path d="M15.6911 13.1992C15.5165 13.5378 15.524 13.7175 15.6776 13.9752C15.706 13.8254 15.7352 13.6696 15.7637 13.516V13.51L15.7592 13.516L15.6911 13.1992Z" fill="white"/>
<path d="M25.2751 16.7816C25.3268 16.9194 25.3778 17.058 25.4294 17.1965L25.5201 17.189C25.568 17.0947 25.6159 16.9995 25.6699 16.8894L25.3306 16.7441L25.2751 16.7816Z" fill="white"/>
<path d="M25.8675 15.7676C25.5402 16.0267 25.5357 16.044 25.69 16.4581L25.8675 15.7676Z" fill="white"/>
<path d="M15.032 13.411L14.9279 13.2402L14.8852 13.2507C14.8672 13.4687 14.85 13.6866 14.832 13.9046L14.862 13.9106C14.9144 13.7555 14.9676 13.6005 15.032 13.411Z" fill="white"/>
<path d="M20.6306 16.4347C20.6306 16.44 20.6381 16.446 20.6823 16.5096L20.9302 16.1793C20.9002 16.1591 20.8643 16.1157 20.8403 16.1217C20.6778 16.1591 20.6366 16.2864 20.6306 16.4347Z" fill="white"/>
<path d="M24.8691 13.6953C24.8901 13.7904 24.9163 13.905 24.944 14.0204L25.0422 14.087C25.0931 13.8294 25.0878 13.8151 24.8691 13.6953Z" fill="white"/>
<path d="M19.5738 13.7539L19.3828 13.7704C19.4015 13.8962 19.4158 13.9951 19.43 14.0894H19.4719C19.5049 13.9801 19.5371 13.8737 19.5738 13.7539Z" fill="white"/>
<path d="M18.6677 12.7168L18.3599 12.7303C18.417 12.7494 18.4753 12.7646 18.5344 12.776C18.5705 12.7524 18.6098 12.7342 18.6512 12.722L18.6677 12.7168Z" fill="white"/>
<path d="M18.7665 12.8051C18.8301 12.8096 18.8938 12.8126 18.9567 12.8141C18.9548 12.7945 18.9548 12.7746 18.9567 12.755L18.929 12.7482C18.8998 12.74 18.8725 12.726 18.8489 12.707L18.7395 12.7115C18.756 12.7205 18.7665 12.7415 18.768 12.7864C18.7672 12.7926 18.7667 12.7989 18.7665 12.8051Z" fill="white"/>
<path d="M23.0334 12.5662C23.0289 12.5408 23.0191 12.5167 23.0045 12.4955C22.9899 12.4743 22.9709 12.4565 22.9487 12.4434C22.8791 12.4703 22.8087 12.4965 22.7383 12.5183C22.8409 12.5325 22.9353 12.5475 23.0334 12.5662Z" fill="white"/>
<path d="M22.7464 11.4585L22.8632 11.451C22.7674 11.3611 22.7262 11.1589 22.6318 11.1387H22.6243C22.6564 11.1827 22.6725 11.2364 22.67 11.2908C22.6676 11.3453 22.6467 11.3972 22.6108 11.4383C22.657 11.431 22.7044 11.438 22.7464 11.4585Z" fill="white"/>
<path d="M19.3103 8.59501C19.3256 8.60805 19.3427 8.61866 19.3612 8.62647C19.7997 8.71892 20.2484 8.75342 20.6959 8.72908C20.7782 8.73302 20.8602 8.71601 20.9341 8.67965C21.0577 8.58902 21.1902 8.58453 21.3296 8.58153C21.3622 8.58756 21.3957 8.58603 21.4277 8.57707C21.4596 8.56812 21.4891 8.55196 21.5138 8.52985C21.3174 8.50714 21.1198 8.49738 20.9221 8.50064C20.5836 8.52835 20.242 8.55981 19.9095 8.50514C19.6938 8.46993 19.5215 8.63021 19.3103 8.54783C19.3118 8.5673 19.3111 8.57928 19.3103 8.59501Z" fill="white"/>
<path d="M19.2287 8.71559C18.813 8.50813 17.9344 8.41226 17.7419 8.54632C18.2071 8.81071 18.7134 8.79049 19.2287 8.71559Z" fill="white"/>
<path d="M14.3811 14.5627C14.4899 14.325 14.5636 14.0727 14.5998 13.8137C14.6023 13.7802 14.5978 13.7465 14.5866 13.7148C14.5753 13.683 14.5576 13.654 14.5346 13.6295C14.4882 13.5726 14.4432 13.5756 14.4253 13.6475C14.3481 13.9478 14.3975 14.2594 14.3811 14.5627Z" fill="white"/>
<path d="M16.3292 13.3488C16.2865 13.3031 16.2356 13.2545 16.1697 13.2739C16.0828 13.3002 16.1749 13.3601 16.1562 13.402C16.1438 13.4351 16.1293 13.4674 16.1128 13.4986C16.094 13.5293 16.0633 13.5556 16.0888 13.5945C16.1701 13.7371 16.2175 13.8965 16.2273 14.0604C16.321 13.8844 16.2214 13.6791 16.3711 13.5323C16.3811 13.5447 16.3899 13.558 16.3974 13.572C16.4123 13.605 16.3876 13.6739 16.4475 13.6642C16.5075 13.6544 16.4902 13.5893 16.4872 13.5458C16.4805 13.4455 16.3876 13.4103 16.3292 13.3488Z" fill="white"/>
<path d="M20.8628 8.39971C20.4802 8.33179 20.0901 8.31642 19.7034 8.35402C20.0853 8.49858 20.4741 8.47536 20.8628 8.39971Z" fill="white"/>
<path d="M16.5621 8.08789C16.2955 8.13133 15.7308 8.71104 15.7173 8.94173C16.0349 8.69606 16.2124 8.32532 16.5621 8.08789Z" fill="white"/>
<path d="M16.0432 13.123L16.0537 13.1298C16.1189 13.1761 16.199 13.1964 16.2784 13.1867C16.2728 13.1719 16.2647 13.1582 16.2544 13.1463C16.1848 13.1358 16.1144 13.1298 16.0432 13.123Z" fill="white"/>
<path d="M16.5495 12.2677C16.6157 12.1763 16.6504 12.0659 16.6484 11.9531C16.5495 12.0378 16.5427 12.1501 16.5495 12.2677Z" fill="white"/>
<path d="M17.4955 9.91508C17.4955 9.91508 17.4955 9.90684 17.491 9.90234H17.4783L17.4858 9.92182C17.4858 9.92182 17.4947 9.91957 17.4955 9.91508Z" fill="white"/>
<path d="M21.2381 8.2803C21.3287 8.25334 21.4987 8.26457 21.4628 8.13051C21.4418 8.04288 21.3586 8.07433 21.28 8.09605C21.271 8.12751 21.262 8.15897 21.2523 8.19043C20.6127 8.05037 19.964 8.08107 19.3154 8.12077C19.9531 8.21333 20.5978 8.24918 21.2418 8.22788C21.2358 8.2466 21.2306 8.26607 21.2246 8.28555L21.2381 8.2803Z" fill="white"/>
<path d="M20.8262 9.72656C20.8142 9.77225 20.803 9.81794 20.7917 9.86437V10.1393C20.8263 10.0199 20.8385 9.89525 20.8277 9.7715C20.8269 9.75428 20.8262 9.74079 20.8262 9.72656Z" fill="white"/>
<path d="M29.5922 22.387C29.3547 22.1144 29.1016 21.8553 28.8791 21.5714C28.5856 21.1939 28.1853 20.9136 27.7302 20.767C26.8442 20.4719 25.9506 20.2 25.0638 19.9072C24.8528 19.8306 24.6494 19.7343 24.4564 19.6195C24.3253 19.5447 24.3194 19.4398 24.3755 19.281C24.5545 18.7762 24.7111 18.2631 24.8481 17.7456C24.9043 17.5321 24.935 17.3426 25.2114 17.3464C25.2421 17.3464 25.2728 17.3187 25.311 17.3007C25.0863 17.1801 25.0114 16.8835 25.1043 16.5727L25.3649 16.4723C25.3582 16.4506 25.3522 16.4296 25.3462 16.4087C25.3001 16.3992 25.2546 16.3869 25.2099 16.372C25.0826 16.3218 25.0736 16.2282 25.156 16.1413C25.2803 16.0095 25.4263 15.8986 25.5522 15.7668C25.5999 15.7176 25.6268 15.6518 25.6271 15.5833C25.5896 15.241 25.5372 14.9002 25.4923 14.5579C25.4681 14.4062 25.4528 14.2531 25.4466 14.0996C25.4488 14.0677 25.4587 14.0368 25.4754 14.0096C25.4921 13.9824 25.5151 13.9595 25.5424 13.943C25.5729 13.9436 25.6027 13.952 25.629 13.9675C25.6552 13.983 25.677 14.005 25.6922 14.0314C25.7421 14.2202 25.7756 14.4129 25.7926 14.6074C25.8083 14.8193 25.8158 15.0261 26.0173 15.2066C26.0173 14.6613 26.0173 14.1468 26.0173 13.6337C26.0048 13.5219 25.9825 13.4113 25.9506 13.3034C25.9139 13.1132 25.8256 13.024 25.6346 13.1536C25.6061 13.0248 25.5469 12.9768 25.4428 13.0038C25.4647 12.9721 25.4769 12.9347 25.4781 12.8962C25.4793 12.8577 25.4694 12.8196 25.4496 12.7866C25.4353 12.7596 25.4683 12.7117 25.4765 12.6698C25.5057 12.5417 25.5402 12.3784 25.4338 12.3065C25.3132 12.2241 25.3013 12.1238 25.2773 12.0122C25.255 11.8758 25.2112 11.7439 25.1477 11.6212C25.0663 11.49 25.0182 11.3408 25.0077 11.1868C25.0024 10.8542 24.8519 10.5531 24.8511 10.2131C24.8511 9.92175 24.6819 9.63789 24.6264 9.33905C24.6068 9.25307 24.5597 9.1758 24.4924 9.11885C24.4347 9.06342 24.3546 9.01923 24.3321 8.93535C24.2819 8.74885 24.1553 8.66047 23.9756 8.61328C23.952 8.6072 23.9289 8.59918 23.9067 8.58932C23.8848 8.5508 23.867 8.51014 23.8535 8.46798C23.8662 8.44821 23.8813 8.4301 23.8984 8.41406C23.9149 8.39833 23.9224 8.37211 23.9044 8.36013C23.8707 8.33766 23.8295 8.30396 23.7973 8.28523C23.7163 8.02084 23.5534 7.789 23.3322 7.62313C23.0641 7.43439 22.8431 7.18124 22.4814 7.11832C22.2072 7.07114 21.9481 6.92658 21.674 6.85019C21.6343 6.83895 21.5991 6.80899 21.5571 6.85019C21.5489 6.91535 21.6215 6.9146 21.6425 6.95579C21.6792 7.0247 21.6837 7.0951 21.5863 7.08087C21.4178 7.05616 21.2553 7.11458 21.0927 7.11383C21.0778 7.03069 21.1789 7.06439 21.1736 6.99773C21.1175 6.94006 21.0538 6.97152 20.9916 6.985C20.9916 7.08537 20.9841 7.18573 20.9789 7.2846C21.1414 7.24939 21.3077 7.26138 21.4755 7.23516C21.4702 7.27411 21.4755 7.2816 21.468 7.28684C21.4275 7.352 21.2845 7.32878 21.2792 7.38646C20.9258 7.28507 20.5594 7.23587 20.1917 7.24041C20.0133 7.25227 19.8357 7.2063 19.6854 7.10933C19.6644 7.09925 19.6415 7.09352 19.6182 7.09249C19.5949 7.09146 19.5717 7.09515 19.5498 7.10334C19.4128 7.12731 19.2757 7.15203 19.1387 7.17449C19.0922 7.18198 19.0405 7.2067 18.9889 7.13929C19.2038 7.04267 19.424 7.0247 19.6412 6.99699C19.7835 6.97976 19.9535 6.99699 20.0584 6.92658C20.1352 6.87384 20.2259 6.84516 20.3191 6.84419C20.3767 6.84419 20.4419 6.86591 20.4988 6.80824C20.4524 6.73934 20.3827 6.75057 20.3191 6.74907C20.1438 6.74533 19.9678 6.75357 19.7948 6.73934C19.5027 6.71612 19.2195 6.77903 18.9387 6.83146C18.6578 6.88389 18.3957 6.98126 18.1238 7.0599C17.8639 7.1348 17.595 7.17974 17.3748 7.34601C17.2958 7.38806 17.231 7.45239 17.1883 7.53101C17.4175 7.43214 17.6047 7.31306 17.8676 7.27785C17.6429 7.47484 17.392 7.54599 17.1883 7.71676C17.2632 7.72799 17.3711 7.67556 17.3381 7.81412C17.3624 7.82111 17.3877 7.82414 17.413 7.82311C17.4827 7.80589 17.5508 7.78267 17.6197 7.76095C17.8961 7.66529 18.1774 7.58429 18.4623 7.51828C18.5005 7.51004 18.5634 7.46959 18.5769 7.537C18.5867 7.58643 18.5215 7.59018 18.484 7.59617C18.3299 7.631 18.1879 7.70652 18.0729 7.81487C18.153 7.85232 18.2227 7.76919 18.2893 7.82761C18.2818 7.90999 18.1508 7.9025 18.1657 8.01485C18.2691 7.97066 18.365 7.93546 18.4556 7.88977C18.5158 7.8559 18.5827 7.83573 18.6516 7.83068C18.7204 7.82563 18.7896 7.83583 18.854 7.86056C18.9507 7.89651 19.0473 7.9759 19.1289 7.98339C19.5617 8.01051 19.996 7.99671 20.4262 7.9422C20.6793 7.91599 20.9085 7.96317 21.1474 7.99987C21.2493 8.0156 21.3519 8.02683 21.4523 8.04855C21.5983 8.08001 21.6275 7.89426 21.7586 7.89876C21.3047 7.82386 20.8411 7.83884 20.4022 7.66433L20.6846 7.6456C20.2891 7.54899 19.8944 7.59842 19.4967 7.62613C19.5268 7.59115 19.5652 7.5643 19.6084 7.54807C19.6516 7.53184 19.6982 7.52675 19.7438 7.53326C20.0622 7.54224 20.379 7.45836 20.6988 7.52502C20.7642 7.54294 20.8333 7.54164 20.898 7.52127C20.9656 7.48949 21.0394 7.47301 21.1141 7.47301C21.1888 7.47301 21.2626 7.48949 21.3302 7.52127C21.3886 7.54749 21.4755 7.53475 21.48 7.4636C21.4811 7.4559 21.4811 7.44808 21.48 7.44038C21.4993 7.43265 21.519 7.42615 21.5391 7.42091C21.811 7.36099 22.0694 7.41641 22.3278 7.48757C22.3615 7.49656 22.4027 7.50629 22.3937 7.55273C22.3847 7.59917 22.3465 7.59842 22.3151 7.61115C22.1585 7.67481 21.9983 7.58568 21.8185 7.61115C21.8934 7.7572 22.0312 7.72574 22.1346 7.75196C22.2994 7.7939 22.2694 7.79465 22.3091 7.94669C22.3432 8.02822 22.3989 8.09891 22.4701 8.15117C22.3038 8.26651 22.1366 8.3801 21.9683 8.49195C21.9542 8.48038 21.9412 8.4676 21.9294 8.45375C21.9398 8.46873 21.9496 8.48371 21.9586 8.49869L21.8784 8.55262C21.5758 8.75235 21.2787 8.96031 20.9871 9.17652C20.9617 9.13757 20.9122 9.13907 20.8291 9.16828C20.7112 9.21781 20.5864 9.24937 20.4591 9.2619C20.4558 9.23695 20.4624 9.21171 20.4773 9.19146C20.4922 9.17121 20.5144 9.15754 20.5393 9.1533C20.6121 9.13201 20.6839 9.10701 20.7542 9.0784C20.7924 9.06342 20.8448 9.04245 20.8291 8.99602C20.8134 8.94958 20.7587 8.97279 20.7235 8.98478C20.6088 9.03569 20.4798 9.04419 20.3595 9.00875C20.2829 8.97995 20.1993 8.97498 20.1198 8.99452C19.8815 9.03843 19.6394 9.05925 19.3971 9.05668C19.2652 9.05668 19.1836 8.93909 19.0473 8.95782C18.8728 8.98253 18.6998 8.9346 18.5267 8.90539C18.1328 8.83723 17.75 8.68594 17.3396 8.74211C17.2872 8.7496 17.225 8.72189 17.1898 8.78031C17.1966 8.82899 17.2647 8.7893 17.2647 8.85521C17.1479 8.88067 17.022 8.86345 16.9044 8.90689C16.8363 8.93235 16.8296 8.88067 16.8445 8.82525C16.8543 8.79229 16.9059 8.78181 16.8902 8.73687C16.855 8.71365 16.8333 8.74136 16.8063 8.75484C16.6206 8.85221 16.4566 8.99526 16.2671 9.07166C16.0162 9.17202 15.8926 9.38773 15.7315 9.56449C15.5731 9.75089 15.4867 9.98793 15.4881 10.2326C15.4784 10.4655 15.244 10.658 15.381 10.9067C15.3855 10.9142 15.3683 10.9336 15.3623 10.9479C15.3421 10.9958 15.3541 11.0183 15.4095 11.0347C15.5383 11.0729 15.569 11.1456 15.4746 11.2594C15.4514 11.2864 15.3997 11.3126 15.432 11.3613C15.5241 11.4901 15.5233 11.5051 15.42 11.6242C15.3391 11.7171 15.2747 11.8212 15.1908 11.914C15.1384 11.9725 15.0814 12.1058 15.1706 12.1597C15.2597 12.2136 15.2687 12.0766 15.3084 12.0234C15.3608 11.9545 15.563 11.9403 15.602 12.0167C15.6409 12.093 15.6694 12.0399 15.7001 12.0114C15.7473 11.968 15.7593 11.8848 15.8544 11.8661C15.8042 11.9777 15.7585 12.0698 15.7211 12.1657C15.6836 12.2616 15.6462 12.3687 15.617 12.4713C15.6042 12.5125 15.5653 12.5709 15.6229 12.5934C15.6806 12.6158 15.6911 12.5432 15.7151 12.508C15.7697 12.4278 15.7727 12.32 15.8506 12.2496C15.8776 12.2249 15.8993 12.1912 15.9405 12.2219C15.9817 12.2526 15.9757 12.2863 15.9488 12.3282C15.9218 12.3702 15.8394 12.4196 15.8589 12.523L16.1487 12.2855C16.1293 12.4166 16.0117 12.4735 16.0244 12.5597C16.0415 12.6289 16.0646 12.6966 16.0933 12.7619H16.2057C16.2419 12.729 16.2691 12.6873 16.2847 12.6409C16.3003 12.5945 16.3038 12.5449 16.2948 12.4967C16.2809 12.3362 16.3118 12.175 16.3839 12.0309C16.4491 11.9043 16.5037 11.771 16.5704 11.6452C16.6181 11.5421 16.6465 11.4312 16.6543 11.3179C16.658 11.2894 16.673 11.243 16.6236 11.2527C16.4521 11.2931 16.5487 11.192 16.5682 11.1463C16.5985 11.0925 16.6323 11.0408 16.6693 10.9913C16.7269 10.8999 16.7262 10.8984 16.6236 10.8647C16.5839 10.852 16.5884 10.8198 16.5861 10.7898C16.5799 10.7435 16.5845 10.6963 16.5997 10.6521C16.6149 10.6079 16.6403 10.5678 16.6738 10.5352C16.846 10.3764 16.7794 10.142 16.8633 9.94947C16.7741 10.106 16.5794 10.1449 16.4985 10.3015C16.4843 10.3299 16.4626 10.3599 16.4273 10.3404C16.3921 10.321 16.3989 10.2888 16.4146 10.2595C16.4303 10.2303 16.47 10.1951 16.4663 10.1674C16.4588 10.115 16.515 10.0139 16.4303 10.0176C16.2326 10.0214 16.3435 9.94797 16.3832 9.88206C16.4311 9.80716 16.509 9.72552 16.5127 9.64463C16.518 9.52929 16.497 9.53303 16.6086 9.47761C16.679 9.44316 16.7809 9.4454 16.8146 9.32781C16.6813 9.3368 16.5794 9.42518 16.4573 9.40271C16.4326 9.39822 16.4019 9.40271 16.3914 9.3735C16.3809 9.34429 16.4064 9.32781 16.4296 9.31583C16.5984 9.21474 16.7896 9.1571 16.9861 9.14806C17.0512 9.14806 17.1591 9.193 17.1733 9.10612C17.1846 9.03721 17.0647 9.09114 17.0235 9.04545C17.0179 9.03391 17.0134 9.02187 17.0101 9.0095C17.1696 9.00051 17.3179 8.94733 17.4782 8.97804C17.6384 9.00875 17.813 9.03646 17.9822 9.05294C18.1515 9.06941 18.2406 9.24767 18.4204 9.23719C18.447 9.23568 18.4735 9.24015 18.4982 9.25026C18.5228 9.26037 18.5448 9.27586 18.5627 9.29561C18.3974 9.35919 18.2252 9.40319 18.0496 9.42668C17.9807 9.43791 17.9665 9.48435 18.0384 9.52779C18.123 9.57872 18.2062 9.6319 18.302 9.68208C18.0813 9.70321 17.8595 9.71171 17.6377 9.70755C17.571 9.70755 17.4677 9.63265 17.446 9.72252C17.4212 9.82214 17.5463 9.81465 17.613 9.83412C17.6469 9.8398 17.6789 9.85359 17.7063 9.87433C17.7337 9.89507 17.7556 9.92213 17.7703 9.95321C17.7892 9.95092 17.8083 9.95092 17.8272 9.95321C17.855 9.92934 17.8877 9.91194 17.9231 9.90228L17.9905 9.89329C18.0356 9.88841 18.0811 9.89592 18.1223 9.91501L18.1612 9.94497C18.1785 9.94189 18.1961 9.94039 18.2137 9.94048H18.2227C18.2432 9.90278 18.2738 9.87158 18.3112 9.8504C18.3485 9.82922 18.391 9.81891 18.4339 9.82064C18.4776 9.81998 18.5207 9.83083 18.5589 9.8521C18.5679 9.84611 18.5762 9.84011 18.5859 9.83487C18.6269 9.81234 18.6732 9.80098 18.72 9.80192C18.7597 9.77534 18.8063 9.76078 18.854 9.75997C18.893 9.75997 18.9289 9.75997 18.9694 9.75623H18.9791C19.0112 9.73311 19.0478 9.71708 19.0866 9.7092C19.1253 9.70132 19.1653 9.70178 19.2038 9.71054L19.2353 9.72103C19.2618 9.71025 19.2899 9.70393 19.3184 9.7023C19.3216 9.70014 19.3248 9.69814 19.3281 9.69631L19.448 9.63639C19.494 9.61217 19.5458 9.60103 19.5978 9.60419C19.6386 9.57689 19.6865 9.56206 19.7356 9.56149H19.9558C20.0075 9.56117 20.0579 9.57745 20.0996 9.60793C20.1359 9.59008 20.176 9.5811 20.2164 9.58172C20.226 9.56473 20.2381 9.54932 20.2524 9.53603C20.2747 9.51353 20.2998 9.49414 20.3273 9.47836C20.373 9.45296 20.4248 9.44029 20.4771 9.44166C20.5221 9.4417 20.5662 9.45358 20.6052 9.47611L20.6568 9.51581C20.6644 9.52351 20.6715 9.53177 20.6778 9.54052C20.7289 9.52065 20.7847 9.51647 20.8381 9.52854C21.1272 9.82728 21.5133 10.0132 21.9271 10.0528C22.1578 10.0056 22.3892 9.95771 22.6199 9.90827C22.6366 9.92493 22.6521 9.9427 22.6664 9.96145C22.706 10.0161 22.8626 10.1247 22.6237 10.1187C22.554 10.1187 22.5877 10.1772 22.6004 10.2139C22.6427 10.3624 22.7118 10.502 22.8042 10.6258C22.9292 10.7756 23.0386 10.9366 23.1614 11.0872C23.2984 11.258 23.3848 11.4637 23.4108 11.6811C23.44 11.8976 23.5299 12.0114 23.7486 12.0556C23.7486 11.9313 23.7981 11.8062 23.7898 11.6886C23.7816 11.571 23.6093 11.5276 23.5472 11.359L23.9965 11.5927C23.9965 11.4497 23.8834 11.4205 23.822 11.359C23.7741 11.3104 23.7546 11.2692 23.8026 11.2152C23.8505 11.1613 23.8872 11.2018 23.9306 11.2272C24.0535 11.3021 24.0879 11.4414 24.1838 11.5328C24.225 11.5725 24.2639 11.6639 24.3336 11.6197C24.4032 11.5755 24.3336 11.5066 24.3074 11.4557C24.2325 11.3283 24.1621 11.201 24.0827 11.0812C24.0033 10.9613 23.9194 10.8565 23.8205 10.7209C23.9524 10.7209 23.9928 10.8258 24.0677 10.8707C24.1156 10.8999 24.1658 10.9786 24.1995 10.8497C24.2295 10.7374 24.4991 10.6999 24.5912 10.7748C24.6444 10.8213 24.6811 10.9419 24.7455 10.9494C24.7723 11.2966 24.8223 11.6417 24.8953 11.9822C24.9095 12.0459 24.8953 12.1163 24.9462 12.1702C25.0339 12.2601 24.9223 12.3252 24.9073 12.4001C24.8998 12.4383 24.8579 12.4518 24.8107 12.4488L24.8444 12.5799C24.8534 12.575 24.8637 12.5732 24.8738 12.575C24.8839 12.5768 24.8931 12.5819 24.8998 12.5896C24.9987 12.7199 25.156 12.8061 25.1994 12.9783C25.2136 13.0338 25.2196 13.0907 25.2346 13.1454C25.2496 13.2 25.2968 13.2307 25.3312 13.1716C25.3485 13.1433 25.3678 13.1163 25.3889 13.0907C25.4343 13.1148 25.4741 13.1482 25.5057 13.1888C25.5619 13.2779 25.6435 13.3955 25.6218 13.4764C25.6001 13.5573 25.523 13.6959 25.3499 13.6442C25.2331 13.609 25.1882 13.5925 25.1814 13.391C25.18 13.2464 25.144 13.1042 25.0764 12.9764C25.0087 12.8486 24.9115 12.7388 24.7927 12.6563C24.7753 12.7067 24.7657 12.7595 24.7642 12.8128C24.8024 13.024 24.8459 13.2345 24.8946 13.4427C24.9125 13.5176 24.9305 13.624 24.9822 13.6509C25.29 13.812 25.1035 14.0606 25.1058 14.2733C25.1058 14.3018 25.0481 14.3317 24.9732 14.4022C24.9605 14.2374 24.9522 14.1288 24.9433 14.0194L24.9477 14.0254V14.0217L24.6377 13.5236C24.6189 13.8389 24.9949 14.0067 24.8841 14.355L24.7066 14.3205C24.7561 14.3976 24.7808 14.488 24.7774 14.5796C24.7741 14.6712 24.7428 14.7595 24.6878 14.8328C24.6474 14.6343 24.607 14.4359 24.5545 14.176L24.6744 14.2786C24.6459 14.2329 24.6167 14.1864 24.5867 14.14C24.5633 14.1484 24.5411 14.16 24.5208 14.1745C24.3306 14.3902 24.1696 14.6396 23.8692 14.7272C23.8574 14.7347 23.8476 14.7448 23.8404 14.7568C23.8333 14.7687 23.829 14.7822 23.828 14.7961C23.828 15.044 23.828 15.2927 23.828 15.5541L24.0647 15.426C24.0887 15.4537 24.1081 15.4665 24.1149 15.4844C24.1266 15.5176 24.1359 15.5517 24.1426 15.5863C24.2302 15.9458 24.0677 16.2641 23.9509 16.5787C23.8497 16.8633 23.8295 16.8865 24.1306 16.8955C24.1988 17.1269 24.0797 17.3209 23.995 17.5194C23.9748 17.5681 23.9097 17.5981 23.8647 17.637C23.8303 17.5823 23.7741 17.5314 23.7666 17.473C23.7604 17.3751 23.7632 17.2768 23.7748 17.1794L23.7187 17.1734C23.7128 17.2322 23.6957 17.2894 23.6685 17.3419C23.6138 17.4055 23.5484 17.4589 23.4753 17.4999C23.3726 17.5599 23.2371 17.5823 23.1599 17.664C22.957 17.8782 22.6499 18.0145 22.6177 18.3702C22.5899 18.299 22.5691 18.2253 22.5555 18.1501C22.4005 17.5284 21.993 17.0528 21.617 16.5622C21.4575 16.354 21.3227 16.3143 21.1572 16.3375C21.1766 16.363 21.1946 16.3832 21.2088 16.4064C21.4702 16.8176 21.3729 17.0303 20.898 17.1037C20.5632 17.1562 20.2164 17.1831 19.9011 17.294C19.6689 17.3764 19.5027 17.294 19.3019 17.2438C19.1012 17.1936 18.8937 17.2048 18.6893 17.1884C18.6833 17.2153 18.678 17.243 18.672 17.27C18.7739 17.4647 18.9926 17.5209 19.1701 17.5471C19.4345 17.5853 19.5708 17.7441 19.6944 17.9343C19.8225 18.1396 19.9828 18.1912 20.1737 18.0407C20.343 17.9074 20.5063 17.7786 20.743 17.816C20.7675 17.8181 20.7922 17.8153 20.8156 17.8077C20.839 17.8001 20.8607 17.7879 20.8793 17.7718C21.1077 17.5658 21.3287 17.3546 21.5609 17.1412C21.9983 17.4168 22.2544 17.8355 22.4035 18.3321C22.4784 18.5815 22.5907 18.6683 22.8469 18.6661C22.9731 18.6659 23.0989 18.6503 23.2213 18.6197C23.3989 18.5732 23.4618 18.6242 23.4753 18.8092C23.5037 19.1836 23.3255 19.4952 23.2041 19.8233C23.106 20.0817 22.927 20.2412 22.6326 20.2539C22.5772 20.2539 22.4829 20.3228 22.4776 20.3685C22.4559 20.5378 22.3376 20.6187 22.2372 20.7355C21.9571 21.0636 21.5893 21.2254 21.2058 21.3662C21.1115 21.4006 20.9909 21.3737 20.8838 21.3662C20.7952 21.3446 20.7054 21.3284 20.6149 21.3175C20.1535 21.3295 19.6937 21.4291 19.2308 21.313C19.1272 21.2853 19.0179 21.2874 18.9155 21.319C18.6908 21.3999 18.4975 21.313 18.2953 21.2606C18.1131 21.2136 17.9321 21.1637 17.7523 21.1108C17.7125 21.0986 17.6788 21.0719 17.6579 21.0359C17.5021 20.6973 17.1486 20.6037 16.8782 20.409C16.8251 20.3708 16.7284 20.394 16.6535 20.3888C16.679 20.4562 16.7045 20.5236 16.7284 20.5917C16.7374 20.6149 16.7479 20.6389 16.7569 20.6621C16.5966 20.5786 16.4563 20.4613 16.3457 20.3183C16.0708 19.9386 15.8671 18.9702 15.7173 18.0834C15.7802 18.5934 15.784 19.0219 15.7308 19.1005C15.3503 19.6675 14.9564 19.6675 14.2928 19.9993C13.6808 20.3041 12.4136 20.5857 11.8713 21.0052C11.0474 21.641 10.5523 22.5263 10.0348 23.3959C10.0107 23.4443 9.99013 23.4943 9.97339 23.5457C10.0411 23.4732 10.0984 23.3915 10.1434 23.303C10.443 22.754 10.8714 22.4447 11.526 22.5413C11.5825 22.5473 11.6395 22.5473 11.696 22.5413C12.1972 22.5079 12.6924 22.6664 13.0809 22.9847C13.4516 23.2691 13.799 23.5827 14.1197 23.9224C14.9519 24.8369 15.7091 25.8151 16.4521 26.8038H16.4948C16.4288 26.5896 16.3627 26.3758 16.2963 26.1626L16.354 26.1252C16.494 26.2787 16.6116 26.4675 16.7801 26.5746C16.9486 26.6817 17.1831 26.7289 17.3883 26.7993H18.5515C19.2892 25.4436 20.0449 24.0191 20.0449 24.0191C20.0449 24.0191 20.8006 25.4421 21.5384 26.7993H24.1928C24.1463 26.6315 24.0999 26.4637 24.0527 26.2915C24.2025 26.3244 24.3583 26.4061 24.4804 26.3731C24.654 26.3195 24.8113 26.2232 24.938 26.093C25.2653 25.7612 25.5649 25.4032 25.8817 25.0601C25.9447 25.0058 26.0138 24.959 26.0877 24.9208L26.1379 24.974C26.1071 25.0308 26.0731 25.0859 26.036 25.1388C25.7184 25.5545 25.3956 25.9627 25.0833 26.3851C25.0414 26.4413 25.0489 26.5349 25.0331 26.6098C25.12 26.6218 25.2249 26.6712 25.2908 26.6397C25.6024 26.4899 25.9082 26.3289 26.2083 26.1566C26.4622 26.0068 26.7086 25.8503 26.9505 25.684C27.2741 25.4593 27.6029 25.2459 27.9032 24.995C28.1279 24.8062 28.3107 24.5628 28.5196 24.3524C28.6627 24.2085 28.7039 24.0363 28.7488 23.8438C28.8158 23.5368 28.9239 23.2403 29.0701 22.9622C29.1623 22.793 29.3645 22.6836 29.5195 22.5481L29.7922 22.7024C29.7481 22.5845 29.68 22.4771 29.5922 22.387Z" fill="white"/>
<path d="M12.7903 34.4063L11.3021 33.5637L10.9808 33.333L10.4827 34.0318L10.1082 33.7622C10.0926 33.7197 10.0686 33.6808 10.0378 33.6476C10.1173 33.677 10.2045 33.6786 10.285 33.6521C10.3647 33.6243 10.4334 33.5718 10.4812 33.5023C10.5188 33.454 10.545 33.3979 10.558 33.3382C10.5709 33.2784 10.5703 33.2165 10.5561 33.157C10.5226 33.0286 10.4425 32.9173 10.3314 32.8447C10.2552 32.787 10.1664 32.7482 10.0723 32.7316C9.98742 32.7163 9.89994 32.7262 9.82063 32.7601C9.73883 32.7956 9.66873 32.8535 9.6184 32.9271L9.85808 33.0993C9.87424 33.0754 9.89552 33.0553 9.92039 33.0405C9.94525 33.0257 9.97309 33.0167 10.0019 33.014C10.0636 33.0081 10.1252 33.026 10.1741 33.0641C10.2222 33.0972 10.2555 33.1477 10.267 33.2049C10.272 33.2342 10.2708 33.2641 10.2636 33.2929C10.2564 33.3216 10.2432 33.3485 10.2251 33.372C10.2086 33.3953 10.1873 33.4149 10.1626 33.4294C10.1379 33.4438 10.1105 33.4529 10.082 33.4559C10.0144 33.4612 9.94735 33.4403 9.89478 33.3974L9.80789 33.3353L9.6581 33.5442L9.74423 33.6064C9.77629 33.626 9.80403 33.6519 9.82579 33.6826C9.84755 33.7132 9.86286 33.7479 9.87081 33.7847C9.87594 33.8161 9.87467 33.8482 9.86708 33.879C9.85949 33.9099 9.84572 33.939 9.82662 33.9644C9.80973 33.9904 9.78775 34.0127 9.76201 34.0299C9.73626 34.0472 9.70728 34.059 9.67682 34.0648C9.64484 34.0694 9.61223 34.0674 9.58105 34.0589C9.54986 34.0504 9.52076 34.0356 9.49557 34.0153C9.46767 33.9972 9.44373 33.9735 9.4252 33.9458C9.40667 33.9182 9.39392 33.887 9.38772 33.8543C9.38226 33.8228 9.38336 33.7905 9.39097 33.7594C9.39857 33.7284 9.41251 33.6992 9.43191 33.6738L9.18774 33.4985C9.13152 33.5747 9.09755 33.6649 9.08962 33.7592C9.08295 33.8516 9.10324 33.944 9.14804 34.0251C9.19796 34.115 9.26825 34.1919 9.35327 34.2498C9.45913 34.3335 9.59345 34.3728 9.72776 34.3591C9.79193 34.3497 9.85337 34.3267 9.90799 34.2917C9.96261 34.2567 10.0092 34.2105 10.0446 34.1562C10.0622 34.1324 10.078 34.1074 10.0918 34.0813L10.3269 34.252L9.912 34.8302L10.1719 35.0167L11.0857 33.7435L11.3103 33.9045L11.3231 33.8873L11.9829 34.2618L11.8721 34.458L11.8608 34.4512C11.7481 34.3844 11.6221 34.3432 11.4916 34.3307C11.3784 34.3206 11.2648 34.3443 11.165 34.3988C11.0609 34.459 10.9757 34.5472 10.9194 34.6535C10.8606 34.7534 10.8313 34.8679 10.8347 34.9838C10.8394 35.0973 10.8763 35.2072 10.9411 35.3006C11.0118 35.4032 11.1057 35.4876 11.2152 35.547C11.3215 35.6101 11.4416 35.6464 11.565 35.6526C11.6766 35.6567 11.787 35.6281 11.8826 35.5702C11.9834 35.5073 12.0662 35.4193 12.123 35.3148L11.8571 35.165C11.8189 35.2276 11.7636 35.278 11.6978 35.3102C11.6319 35.3424 11.5582 35.355 11.4853 35.3467C11.4125 35.3383 11.3436 35.3093 11.2867 35.2631C11.2298 35.2168 11.1873 35.1552 11.1643 35.0856C11.151 35.0402 11.1473 34.9925 11.1535 34.9455C11.1597 34.8986 11.1756 34.8534 11.2002 34.813C11.2226 34.7667 11.2553 34.7263 11.2958 34.6947C11.3363 34.6631 11.3836 34.6413 11.4339 34.631C11.5412 34.6156 11.6504 34.6384 11.7425 34.6954L12.0084 34.8452L12.2526 34.4138L12.5102 34.5599L12.499 34.5861L13.8951 35.1793L13.794 35.4189C13.7157 35.4011 13.634 35.4066 13.5588 35.4347C13.4869 35.4634 13.4224 35.5079 13.37 35.565H13.3633C13.3708 35.4734 13.3523 35.3815 13.3101 35.2998C13.2609 35.2131 13.1827 35.1465 13.0892 35.1118C13.0003 35.0724 12.903 35.056 12.8061 35.0639C12.7111 35.0726 12.6209 35.1094 12.5469 35.1695C12.4617 35.2405 12.396 35.332 12.3559 35.4354C12.3104 35.5369 12.2899 35.6479 12.296 35.759C12.3039 35.8634 12.3425 35.9632 12.4069 36.0458C12.4804 36.1377 12.5767 36.2087 12.6862 36.2518C12.6982 36.257 12.7244 36.2668 12.7656 36.2803L12.875 36.0226L12.8113 36.0009C12.7711 35.9861 12.7345 35.9629 12.704 35.9328C12.6735 35.9027 12.6498 35.8664 12.6345 35.8264C12.6071 35.7408 12.6138 35.648 12.6533 35.5672C12.6806 35.4918 12.7336 35.4284 12.8031 35.3882C12.8367 35.3715 12.8737 35.3628 12.9113 35.3628C12.9488 35.3628 12.9859 35.3715 13.0195 35.3882C13.055 35.4014 13.0863 35.4237 13.1104 35.4529C13.1345 35.4821 13.1504 35.5172 13.1566 35.5545C13.1685 35.6432 13.1544 35.7335 13.1161 35.8144L13.0959 35.8623L13.3423 35.9672L13.3626 35.9193C13.3944 35.8348 13.4504 35.7616 13.5236 35.7088C13.5561 35.6879 13.5934 35.6758 13.632 35.6735C13.6706 35.6713 13.7091 35.6791 13.7438 35.6961C13.7782 35.7087 13.8091 35.7294 13.834 35.7563C13.8589 35.7833 13.877 35.8158 13.8868 35.8511C13.9057 35.929 13.897 36.0111 13.8621 36.0833C13.8318 36.1676 13.7697 36.2367 13.6891 36.2758C13.6497 36.2928 13.6071 36.3011 13.5642 36.3002C13.5213 36.2993 13.4791 36.2892 13.4404 36.2705L13.3805 36.2391L13.2712 36.4975L13.3461 36.5349C13.4534 36.584 13.5716 36.6044 13.6891 36.5941C13.793 36.5836 13.8912 36.5418 13.9707 36.4742C14.0552 36.4014 14.1212 36.3095 14.1632 36.2061C14.215 36.0941 14.2335 35.9696 14.2164 35.8473C14.2007 35.7412 14.1498 35.6433 14.0718 35.5695L14.1834 35.3073L14.6703 35.5141L14.7744 35.2676L12.7843 34.422L12.7903 34.4063Z" fill="white"/>
<path d="M17.1128 36.1287L17.1764 35.8688L15.0868 35.3535L15.0231 35.6134L15.8088 35.8074L15.7638 35.9901C15.7555 36.037 15.7379 36.0818 15.7122 36.1219C15.6865 36.162 15.6531 36.1966 15.6141 36.2238C15.5675 36.2483 15.5165 36.263 15.464 36.267C15.4116 36.271 15.3589 36.2642 15.3092 36.247L15.1145 36.1991L14.9946 36.6852C14.954 36.8229 14.9688 36.971 15.0358 37.0979C15.0731 37.16 15.1231 37.2134 15.1827 37.2546C15.2422 37.2959 15.3099 37.3239 15.3811 37.3368C15.5127 37.3773 15.6549 37.3638 15.7766 37.2994C15.8325 37.2649 15.8808 37.2192 15.9183 37.1652C15.9558 37.1112 15.9817 37.05 15.9945 36.9855C15.9983 36.9676 16.0013 36.9526 16.0028 36.9391L15.7032 36.8642L15.6957 36.8949C15.6841 36.9545 15.651 37.0078 15.6028 37.0447C15.5795 37.0612 15.5528 37.0721 15.5246 37.0766C15.4964 37.0812 15.4676 37.0792 15.4403 37.0709C15.411 37.0658 15.3833 37.0536 15.3598 37.0353C15.3363 37.017 15.3177 36.9932 15.3055 36.9661C15.2819 36.9052 15.2795 36.8382 15.2987 36.7758L15.3676 36.4965L16.351 36.7391L16.1616 37.5068L16.1923 37.5143L16.1638 37.6686L16.2387 37.6821C16.267 37.6855 16.2943 37.6946 16.319 37.7087C16.3437 37.7229 16.3653 37.7418 16.3825 37.7645C16.397 37.7851 16.407 37.8086 16.4119 37.8334C16.4168 37.8581 16.4165 37.8837 16.411 37.9083C16.4071 37.9373 16.3964 37.965 16.3797 37.9891C16.3631 38.0132 16.3409 38.033 16.3151 38.0468C16.2532 38.0754 16.1835 38.082 16.1174 38.0656C16.0319 38.0545 15.9533 38.0127 15.8964 37.948C15.8712 37.9138 15.8544 37.8741 15.8472 37.8323C15.8401 37.7904 15.8428 37.7474 15.8552 37.7068L15.5766 37.6559C15.5552 37.7313 15.5525 37.8108 15.5687 37.8875C15.5849 37.9643 15.6195 38.0359 15.6695 38.0963C15.7779 38.212 15.9223 38.2875 16.0792 38.3105C16.2143 38.3437 16.3569 38.3261 16.4799 38.2611C16.5335 38.2293 16.5792 38.1859 16.6137 38.134C16.6482 38.0822 16.6706 38.0232 16.6791 37.9615C16.6928 37.9034 16.6943 37.8431 16.6835 37.7845C16.6727 37.7258 16.6497 37.67 16.6162 37.6207C16.5826 37.5747 16.5394 37.5366 16.4896 37.5091L16.8461 36.0628L17.1128 36.1287ZM16.411 36.4867L15.9092 36.3631C15.9909 36.2808 16.0476 36.1769 16.0724 36.0635L16.1174 35.8808L16.5338 35.9834L16.411 36.4867Z" fill="white"/>
<path d="M17.7365 35.9051C17.6378 35.8904 17.537 35.9002 17.4429 35.9335C17.3584 35.9634 17.2847 36.0176 17.231 36.0893C17.1756 36.1648 17.1414 36.2538 17.1321 36.347C17.1275 36.3815 17.1255 36.4163 17.1261 36.4511L17.4414 36.49L17.4512 36.3964C17.4557 36.3315 17.4846 36.2708 17.532 36.2264C17.5553 36.2066 17.5827 36.1921 17.6122 36.1841C17.6418 36.1761 17.6727 36.1747 17.7028 36.1799C17.7335 36.1824 17.7633 36.1914 17.7902 36.2064C17.8171 36.2214 17.8404 36.242 17.8586 36.2668C17.8942 36.3212 17.9078 36.387 17.8968 36.4511C17.8935 36.4991 17.8773 36.5453 17.8499 36.5849C17.8225 36.6245 17.7848 36.6559 17.741 36.6758C17.6368 36.7187 17.5227 36.732 17.4115 36.714L17.0617 36.6705L17.0048 37.1251C16.9918 37.2003 16.9938 37.2772 17.0108 37.3515C17.0278 37.4258 17.0593 37.496 17.1036 37.5581C17.1522 37.6179 17.2126 37.667 17.281 37.7023C17.3495 37.7376 17.4245 37.7584 17.5013 37.7633C17.5709 37.7758 17.6422 37.7744 17.7111 37.7589C17.7801 37.7435 17.8453 37.7144 17.9028 37.6734C17.9573 37.6288 18.002 37.5735 18.0342 37.5108C18.0664 37.4482 18.0854 37.3797 18.09 37.3094L18.0953 37.2704L17.7844 37.2322L17.7807 37.2667C17.7756 37.3324 17.7465 37.394 17.6991 37.4397C17.676 37.4599 17.6486 37.4747 17.6191 37.4828C17.5895 37.491 17.5585 37.4924 17.5283 37.4869C17.4942 37.4858 17.4609 37.4766 17.4312 37.4599C17.4014 37.4432 17.3762 37.4196 17.3575 37.391C17.3241 37.3287 17.3125 37.257 17.3246 37.1873L17.3508 36.9783L17.4938 36.9963C17.6615 37.0243 17.8337 36.9936 17.9814 36.9094C18.0489 36.8655 18.1051 36.8064 18.1456 36.7368C18.186 36.6672 18.2096 36.5891 18.2144 36.5087C18.2279 36.4363 18.226 36.3619 18.2088 36.2903C18.1917 36.2187 18.1596 36.1515 18.1147 36.0931C18.0186 35.9827 17.8825 35.9151 17.7365 35.9051Z" fill="white"/>
<path d="M23.6295 35.7188L21.6357 36.0348L19.7813 36.1097V36.0917L18.9109 36.0543V36.0738L18.5035 36.0228L18.2788 37.8429L18.6016 37.8833L18.7964 36.3269L19.0697 36.3606L19.0742 36.3269L19.1791 36.3314L19.1147 37.896L19.4345 37.9095L19.4989 36.3449L19.6075 36.3494V36.3816L20.4164 36.3501L20.4239 36.5381C20.4317 36.6342 20.4013 36.7295 20.3392 36.8033C20.3012 36.8397 20.2562 36.8679 20.2068 36.8862C20.1575 36.9045 20.1049 36.9124 20.0524 36.9096L19.8517 36.9179L19.8711 37.4182C19.8707 37.5614 19.926 37.6993 20.0254 37.8024C20.0782 37.852 20.1411 37.8897 20.2097 37.9129C20.2783 37.9362 20.3511 37.9445 20.4231 37.9372C20.4913 37.9385 20.559 37.9263 20.6224 37.9012C20.6858 37.8761 20.7436 37.8387 20.7924 37.7912C20.8371 37.7429 20.8711 37.6857 20.8922 37.6234C20.9134 37.561 20.9212 37.495 20.9152 37.4294C20.9147 37.4136 20.9132 37.3979 20.9107 37.3822L20.6036 37.3942V37.4264C20.6086 37.4866 20.5916 37.5464 20.5557 37.5949C20.5377 37.6172 20.5149 37.6351 20.4889 37.6472C20.4629 37.6593 20.4345 37.6652 20.4059 37.6646C20.3763 37.6678 20.3464 37.6638 20.3187 37.6528C20.291 37.6419 20.2665 37.6243 20.2471 37.6017C20.2082 37.5493 20.1874 37.4857 20.188 37.4204L20.1767 37.1328L21.1886 37.0939L21.2193 37.884L21.5369 37.8713L21.4762 36.3059H21.5796V36.3157L21.6597 36.303H21.7526V36.2917L23.0805 36.082L23.1322 36.4071L22.3742 36.5269C22.2769 36.5413 22.1837 36.5763 22.1009 36.6295C22.0244 36.6786 21.9642 36.7492 21.9278 36.8325C21.8931 36.9226 21.8826 37.0201 21.8973 37.1155C21.912 37.2109 21.9515 37.3008 22.0117 37.3762C22.0697 37.4439 22.1454 37.494 22.2304 37.5208C22.3199 37.5492 22.4149 37.5559 22.5075 37.5403C22.5952 37.5273 22.6788 37.4951 22.7525 37.4459C22.8213 37.4 22.8752 37.3349 22.9075 37.2587C22.9413 37.1696 22.9495 37.073 22.9312 36.9795C22.9129 36.8861 22.8689 36.7996 22.8041 36.7299L23.1741 36.6715L23.3239 37.6286L23.6408 37.5785L23.3958 36.0318L23.6677 35.9884L23.6295 35.7188ZM20.6643 36.8565C20.7199 36.7556 20.7458 36.6411 20.7392 36.5261L20.7317 36.3374L21.1609 36.3209L21.1811 36.8362L20.6643 36.8565ZM22.6356 37.1725C22.6161 37.1983 22.5916 37.22 22.5635 37.2362C22.5355 37.2524 22.5045 37.2629 22.4723 37.2669C22.4062 37.2802 22.3376 37.2667 22.2814 37.2294C22.2549 37.2111 22.2325 37.1873 22.2159 37.1596C22.1992 37.132 22.1886 37.1012 22.1847 37.0692C22.1786 37.0373 22.1792 37.0046 22.1864 36.973C22.1936 36.9414 22.2073 36.9117 22.2267 36.8857C22.2473 36.8593 22.273 36.8372 22.3021 36.8208C22.3313 36.8043 22.3634 36.7938 22.3967 36.7898C22.4286 36.7837 22.4614 36.784 22.4932 36.7909C22.525 36.7977 22.5551 36.8108 22.5817 36.8295C22.6078 36.848 22.6297 36.8718 22.6461 36.8992C22.6625 36.9267 22.6729 36.9573 22.6768 36.989C22.683 37.0208 22.6826 37.0535 22.6755 37.0851C22.6684 37.1167 22.6548 37.1465 22.6356 37.1725Z" fill="white"/>
<path d="M25.4391 34.5981C25.4044 34.5829 25.366 34.5784 25.3287 34.585C25.2914 34.5916 25.2569 34.6091 25.2296 34.6352C25.2022 34.6614 25.1832 34.6951 25.175 34.7321C25.1668 34.769 25.1697 34.8076 25.1833 34.8429C25.1969 34.8782 25.2207 34.9087 25.2517 34.9305C25.2826 34.9523 25.3193 34.9645 25.3572 34.9654C25.395 34.9664 25.4323 34.9562 25.4644 34.936C25.4964 34.9158 25.5217 34.8866 25.5372 34.852C25.5477 34.8285 25.5532 34.803 25.5532 34.7771C25.5532 34.7513 25.5477 34.7258 25.5372 34.7022C25.5285 34.6793 25.5154 34.6582 25.4986 34.6404C25.4817 34.6225 25.4615 34.6081 25.4391 34.5981Z" fill="white"/>
<path d="M30.9208 32.2862L30.7575 32.0742L29.2326 33.2494L29.2236 33.2351L28.4926 33.71L28.5016 33.7235L28.1406 33.9197L28.5398 34.653C28.5887 34.7369 28.6146 34.8322 28.6147 34.9293C28.614 35.0153 28.588 35.0992 28.5398 35.1705C28.4903 35.2432 28.4237 35.3026 28.3458 35.3435C28.2498 35.4047 28.1342 35.4272 28.0223 35.4064C27.9752 35.3945 27.9309 35.3732 27.8923 35.3437C27.8537 35.3143 27.8215 35.2772 27.7976 35.2349L27.8433 35.2102C27.9994 35.137 28.1258 35.0125 28.2013 34.8574C28.2292 34.7894 28.2406 34.7158 28.2348 34.6426C28.2289 34.5693 28.2059 34.4985 28.1676 34.4358C28.1268 34.3567 28.0662 34.2895 27.9916 34.241C27.9214 34.196 27.8397 34.1723 27.7564 34.1729C27.6673 34.1739 27.5799 34.1976 27.5025 34.2418C27.4255 34.2822 27.359 34.3402 27.3085 34.411C27.2941 34.432 27.2813 34.454 27.2703 34.4769L27.2478 34.423L25.7619 35.0582V35.0642L23.9448 35.6454L24.0265 35.9L24.7972 35.6536L24.8548 35.8334C24.8723 35.8781 24.8806 35.9258 24.8793 35.9738C24.878 36.0218 24.8671 36.069 24.8473 36.1127C24.8204 36.1577 24.7846 36.1968 24.7421 36.2276C24.6997 36.2584 24.6514 36.2802 24.6002 36.2917L24.4137 36.3539L24.5635 36.8302C24.601 36.9686 24.691 37.0868 24.8144 37.1598C24.8786 37.1934 24.9492 37.213 25.0215 37.2171C25.0939 37.2212 25.1662 37.2099 25.2338 37.1838C25.2998 37.1666 25.3618 37.1367 25.4161 37.0955C25.4705 37.0544 25.5162 37.0029 25.5506 36.9441C25.5806 36.8856 25.598 36.8214 25.6018 36.7558C25.6055 36.6901 25.5955 36.6244 25.5724 36.5629C25.5664 36.5456 25.5611 36.5307 25.5559 36.5187L25.2623 36.6123L25.272 36.643C25.2934 36.6992 25.2934 36.7613 25.272 36.8175C25.2609 36.8438 25.2439 36.8672 25.2224 36.8859C25.2008 36.9046 25.1753 36.9181 25.1477 36.9254C25.12 36.9363 25.09 36.9404 25.0604 36.9371C25.0307 36.9339 25.0023 36.9234 24.9777 36.9066C24.9259 36.8669 24.8887 36.811 24.8721 36.7479L24.7844 36.4745L25.7491 36.1659L25.9895 36.9149L26.2891 36.8183L25.812 35.3263L26.0764 35.2417L26.0682 35.2147L26.6089 34.9833L26.6838 35.1563C26.7053 35.1993 26.7181 35.2461 26.7214 35.294C26.7247 35.342 26.7186 35.3901 26.7033 35.4356C26.6808 35.483 26.6488 35.5253 26.6094 35.5599C26.57 35.5945 26.524 35.6208 26.4741 35.6371L26.2861 35.7195L26.4824 36.1794C26.5333 36.3136 26.6342 36.4228 26.764 36.4842C26.8311 36.5114 26.9032 36.524 26.9755 36.5211C27.0478 36.5183 27.1187 36.5001 27.1834 36.4677C27.2475 36.4445 27.3063 36.4088 27.3565 36.3628C27.4068 36.3168 27.4475 36.2614 27.4763 36.1996C27.5007 36.1385 27.5121 36.0729 27.5096 36.0071C27.5072 35.9413 27.491 35.8768 27.462 35.8176C27.4558 35.8033 27.4488 35.7893 27.4411 35.7757L27.158 35.8963L27.1707 35.9262C27.1968 35.9804 27.2021 36.0422 27.1857 36.1C27.177 36.1272 27.1622 36.152 27.1425 36.1727C27.1228 36.1933 27.0986 36.2092 27.0718 36.2191C27.0454 36.2328 27.0162 36.24 26.9864 36.24C26.9567 36.24 26.9274 36.2328 26.9011 36.2191C26.8455 36.1838 26.8031 36.1311 26.7805 36.0693L26.6681 35.8049L27.5594 35.4252C27.609 35.4957 27.6715 35.5562 27.7437 35.6034C27.8408 35.6672 27.9548 35.7005 28.071 35.6993C28.1978 35.6965 28.3219 35.662 28.432 35.5989C28.5399 35.5439 28.6316 35.4615 28.6979 35.36C28.7514 35.279 28.7794 35.1837 28.778 35.0866L29.0192 35.5308L29.3008 35.381L28.5518 34.0043L28.7937 33.8733L28.7795 33.8471L28.8709 33.7871L29.7255 35.1001L29.9936 34.9256L29.1397 33.6126L29.2281 33.555L29.2476 33.5804L30.4505 32.6524L30.6519 32.9138L30.0445 33.3819C29.9651 33.4421 29.8997 33.5188 29.8528 33.6066C29.8099 33.6867 29.7912 33.7775 29.7989 33.868C29.8116 33.9637 29.8491 34.0545 29.9077 34.1312C29.9663 34.2079 30.0439 34.268 30.1329 34.3054C30.2163 34.3369 30.3068 34.3444 30.3943 34.3272C30.4863 34.3092 30.5726 34.2694 30.646 34.2111C30.717 34.1579 30.7753 34.0896 30.8167 34.0111C30.8547 33.9375 30.8706 33.8545 30.8624 33.7722C30.8526 33.6837 30.8175 33.6 30.7613 33.531C30.7013 33.4486 30.6161 33.3879 30.5186 33.358L30.8182 33.1333L31.4099 33.9002L31.6638 33.7047L30.7051 32.454L30.9208 32.2862ZM25.1761 36.0745C25.2027 35.9626 25.1967 35.8454 25.1589 35.7367L25.102 35.557L25.5109 35.4259L25.6675 35.9172L25.1761 36.0745ZM27.6231 35.0671L27.4246 35.175C27.4246 35.181 27.4306 35.1885 27.4328 35.1952L27.0254 35.3697C27.0409 35.2558 27.024 35.1398 26.9767 35.0349L26.9018 34.8612L27.2328 34.7196C27.2426 34.7833 27.2636 34.8447 27.295 34.9009C27.312 34.9304 27.331 34.9587 27.3519 34.9855L27.6073 34.8469C27.5875 34.8233 27.5695 34.7983 27.5534 34.772C27.5236 34.7226 27.5139 34.6636 27.5264 34.6073C27.5341 34.5809 27.5471 34.5564 27.5648 34.5353C27.5825 34.5143 27.6044 34.4972 27.6291 34.4852C27.6514 34.4719 27.6763 34.4636 27.7022 34.4608C27.728 34.4579 27.7541 34.4606 27.7789 34.4687C27.8295 34.4876 27.871 34.5251 27.8949 34.5736C27.9214 34.6135 27.9355 34.6604 27.9355 34.7084C27.9355 34.7563 27.9214 34.8032 27.8949 34.8432C27.8232 34.9382 27.7301 35.015 27.6231 35.0671ZM30.5299 33.6441C30.5505 33.6691 30.5658 33.6981 30.5747 33.7293C30.5836 33.7605 30.5859 33.7932 30.5815 33.8253C30.5767 33.8578 30.5652 33.8889 30.5478 33.9167C30.5304 33.9445 30.5075 33.9685 30.4804 33.9871C30.455 34.0086 30.4255 34.0248 30.3938 34.0349C30.362 34.0449 30.3286 34.0485 30.2954 34.0455C30.2633 34.0425 30.2323 34.0325 30.2043 34.0163C30.1764 34.0002 30.1523 33.9782 30.1336 33.9519C30.1129 33.9268 30.0976 33.8977 30.0888 33.8663C30.0801 33.835 30.078 33.8021 30.0827 33.7699C30.0938 33.7034 30.1307 33.6439 30.1853 33.6044C30.2104 33.5837 30.2393 33.5683 30.2705 33.5592C30.3017 33.55 30.3343 33.5473 30.3666 33.5512C30.3989 33.5544 30.4301 33.5644 30.4582 33.5805C30.4864 33.5967 30.5108 33.6186 30.5299 33.6448V33.6441Z" fill="white"/>
<path d="M9.53607 7.49582L8.58112 6.45324L8.7489 6.30344L8.54367 6.07875L8.38564 6.22031C8.2494 6.16246 8.10829 6.11684 7.96396 6.08399C7.87208 6.06289 7.77627 6.06625 7.68609 6.09373C7.58907 6.13272 7.49883 6.18682 7.41871 6.25401L7.33033 6.32891L7.51383 6.5536L7.6082 6.4787C7.65245 6.43998 7.70315 6.4093 7.758 6.38808C7.80654 6.37321 7.85801 6.37063 7.90779 6.38059C7.98866 6.39647 8.06827 6.41825 8.14597 6.44575L6.84499 7.63738L6.85173 7.64487L5.54476 9.15106L5.56198 9.16604L5.10286 9.7877L5.08114 9.77422L3.98014 11.5373L4.11421 11.6212L3.98164 11.5568L3.25513 13.042L3.5285 13.1761L3.61539 12.9986L4.01384 13.1933C4.13345 13.2577 4.2699 13.2838 4.40481 13.2682C4.465 13.2592 4.52268 13.2378 4.57424 13.2055C4.62579 13.1731 4.67011 13.1305 4.7044 13.0802L4.93584 13.6464L5.1096 13.2914L4.80102 12.6278L4.79578 12.6173L5.2609 12.842L5.42118 12.514L4.14791 11.8931L4.24828 11.6879L4.23929 11.6834L5.02497 10.4393L5.26314 10.5891L4.93209 11.1201L5.24741 11.3164C5.29598 11.3427 5.33424 11.3847 5.35602 11.4355C5.36373 11.4575 5.36619 11.481 5.3632 11.5042C5.36021 11.5273 5.35185 11.5494 5.33879 11.5688C5.32716 11.5893 5.31086 11.6067 5.29121 11.6198C5.27155 11.6328 5.24911 11.641 5.22569 11.6437C5.17035 11.6462 5.11575 11.6302 5.07065 11.598L4.75608 11.401L4.56135 11.7126L4.88416 11.9148C4.94143 11.9567 5.00716 11.9855 5.07675 11.9993C5.14635 12.0131 5.21811 12.0116 5.28703 11.9947C5.35596 11.9779 5.42036 11.9462 5.47575 11.9019C5.53114 11.8575 5.57616 11.8016 5.60767 11.738C5.66078 11.6569 5.69224 11.5636 5.69905 11.4669C5.70399 11.3785 5.68317 11.2906 5.63913 11.2138C5.59165 11.1329 5.52471 11.0652 5.4444 11.0168L5.38598 10.9801L5.52753 10.7554L6.22483 11.1905L6.41807 10.8812L5.2197 10.1322L5.31557 9.97794L5.3343 9.99142L5.46986 9.80792L6.60681 10.6483L6.82402 10.3547L5.68931 9.51058L5.82488 9.32707L5.8084 9.31509L6.22858 8.829L6.34467 8.92862C6.40958 8.97837 6.45256 9.05144 6.46451 9.13234C6.46445 9.17819 6.45506 9.22356 6.4369 9.26566C6.41874 9.30777 6.39221 9.34574 6.3589 9.37726L6.24655 9.50758L6.60157 9.81466C6.66887 9.87508 6.74983 9.91826 6.8375 9.94049C6.92134 9.96035 7.00918 9.95488 7.08991 9.92476C7.18169 9.88903 7.26269 9.83021 7.32508 9.75399C7.4172 9.65912 7.46855 9.53197 7.46814 9.39973C7.46479 9.33826 7.44827 9.27824 7.41971 9.22371C7.39116 9.16918 7.35123 9.12142 7.30262 9.08366C7.28994 9.07226 7.27669 9.06151 7.26292 9.05145L7.02924 9.31584L7.05246 9.33606C7.0858 9.36281 7.10861 9.40048 7.11687 9.44242C7.11897 9.46331 7.11665 9.48441 7.11007 9.50435C7.10349 9.52429 7.09279 9.54263 7.07866 9.55816C7.06454 9.5737 7.0473 9.58609 7.02808 9.59454C7.00886 9.60299 6.98807 9.6073 6.96707 9.60719C6.92121 9.60305 6.87801 9.58383 6.84424 9.55252L6.67197 9.40272L7.23746 8.74811L7.68684 9.13609L7.6434 9.18102L7.84787 9.37726L7.90405 9.31884C7.93565 9.28089 7.98077 9.25671 8.02988 9.25143C8.05078 9.25019 8.07171 9.25335 8.09132 9.2607C8.11093 9.26806 8.12878 9.27944 8.14372 9.29412C8.161 9.30975 8.1744 9.32919 8.18286 9.3509C8.19131 9.37262 8.19458 9.396 8.1924 9.4192C8.18362 9.47353 8.15732 9.5235 8.11751 9.56151C8.07045 9.61548 8.00562 9.65082 7.93476 9.66112C7.89925 9.66238 7.86391 9.65563 7.83136 9.64137C7.79882 9.6271 7.7699 9.6057 7.74676 9.57873L7.52207 9.81166C7.5964 9.89233 7.69453 9.94717 7.80218 9.9682C7.8972 9.98406 7.99479 9.97101 8.0823 9.93075C8.17516 9.88739 8.25901 9.82691 8.32947 9.75249C8.4283 9.66039 8.48964 9.53503 8.50173 9.40048C8.50447 9.33926 8.49344 9.27822 8.46946 9.22183C8.44548 9.16545 8.40916 9.11516 8.36317 9.07467C8.32206 9.03046 8.27202 8.99551 8.21636 8.97214C8.1607 8.94877 8.10071 8.9375 8.04036 8.9391C8.02245 8.94008 8.00466 8.94258 7.98718 8.94659L8.00366 8.92637L6.93636 8.00513L7.08616 7.83211L7.08167 7.82837L7.4629 7.47934L7.58198 7.60966C7.61279 7.63766 7.63743 7.67176 7.65432 7.7098C7.67121 7.74784 7.67999 7.78899 7.6801 7.83061C7.667 7.91524 7.62197 7.99163 7.55427 8.04407L7.50933 8.08527L7.70856 8.30247C7.76221 8.37303 7.83072 8.43093 7.90924 8.47206C7.98775 8.51319 8.07436 8.53654 8.16291 8.54047C8.25146 8.5444 8.33979 8.52881 8.42164 8.4948C8.50349 8.46079 8.57686 8.40919 8.63655 8.34366C8.71538 8.27511 8.77526 8.18744 8.81041 8.08906C8.84556 7.99068 8.85482 7.88491 8.83728 7.78193C8.86199 7.7632 8.88072 7.74823 8.89345 7.73624C8.93302 7.70401 8.96506 7.6635 8.98731 7.61757C9.00957 7.57164 9.0215 7.52139 9.02227 7.47035L9.27019 7.74074L9.53607 7.49582ZM4.41155 12.4271C4.47757 12.4548 4.53095 12.5061 4.56135 12.5709C4.57445 12.6029 4.58018 12.6374 4.5781 12.6719C4.57603 12.7064 4.5662 12.74 4.54936 12.7701C4.53606 12.8029 4.51522 12.832 4.48854 12.8552C4.46186 12.8783 4.4301 12.8949 4.39582 12.9035C4.32071 12.9153 4.24377 12.9019 4.17712 12.8653L3.77866 12.6705L3.99737 12.2211L4.41155 12.4271ZM7.01576 8.55563L6.74463 8.86645C6.7069 8.78228 6.65026 8.70794 6.5791 8.64925L6.46301 8.54889L6.69744 8.2785L7.01576 8.55563ZM8.42833 8.10624C8.40104 8.13588 8.36766 8.15927 8.33048 8.17481C8.2933 8.19034 8.2532 8.19764 8.21293 8.19622C8.17266 8.1948 8.13317 8.18468 8.09718 8.16656C8.06119 8.14845 8.02954 8.12276 8.00441 8.09126L7.94674 8.02759C7.98354 7.98744 8.0116 7.94007 8.02913 7.8885C8.04667 7.83692 8.0533 7.78227 8.0486 7.728C8.0327 7.60284 7.97457 7.48685 7.88382 7.3992L7.73028 7.23143L8.31299 6.69666L8.52345 6.92659C8.47234 6.92178 8.4208 6.92858 8.37269 6.94647C8.32457 6.96437 8.28112 6.99291 8.24558 7.02995C8.1856 7.08275 8.14154 7.15125 8.11838 7.22774C8.09523 7.30422 8.09389 7.38566 8.11451 7.46286C8.13705 7.54429 8.17893 7.61906 8.23659 7.68082C8.31403 7.76987 8.41987 7.8294 8.53619 7.84934C8.54133 7.89756 8.53413 7.9463 8.51526 7.99097C8.49639 8.03565 8.46648 8.0748 8.42833 8.10474V8.10624ZM8.76388 7.4771C8.74511 7.4959 8.72281 7.51081 8.69826 7.52097C8.67371 7.53112 8.64739 7.53632 8.62082 7.53626C8.59289 7.53479 8.5656 7.52735 8.54079 7.51443C8.51598 7.50151 8.49423 7.48341 8.47702 7.46136C8.45792 7.44255 8.44314 7.41982 8.4337 7.39473C8.42426 7.36964 8.42038 7.3428 8.42234 7.31606C8.42704 7.26294 8.4523 7.21376 8.49274 7.179C8.51136 7.15946 8.5342 7.14444 8.55951 7.13509C8.58483 7.12574 8.61195 7.12232 8.6388 7.12507C8.6896 7.13233 8.73611 7.15758 8.76987 7.19623C8.80673 7.23366 8.8279 7.28376 8.82904 7.33629C8.82948 7.36293 8.82384 7.38933 8.81255 7.41347C8.80126 7.43761 8.78461 7.45886 8.76388 7.4756V7.4771Z" fill="white"/>
<path d="M9.08732 6.04546L9.6558 5.65748L9.74193 5.78406C9.79127 5.84798 9.81407 5.92846 9.80559 6.00875C9.79371 6.05293 9.77298 6.09423 9.74465 6.13015C9.71633 6.16607 9.681 6.19586 9.64082 6.21772L9.49851 6.31509L9.7629 6.70231C9.81256 6.77822 9.87989 6.84093 9.95913 6.88506C10.0349 6.92618 10.1213 6.94366 10.207 6.93524C10.3049 6.92415 10.3983 6.88804 10.4782 6.83039C10.5912 6.762 10.6734 6.65247 10.7074 6.5248C10.7198 6.4645 10.7192 6.40224 10.7056 6.34218C10.6921 6.28212 10.6658 6.22565 10.6287 6.17653C10.6175 6.16005 10.607 6.14657 10.598 6.13533L10.3082 6.33381L10.3246 6.35853C10.3501 6.39278 10.3626 6.435 10.3598 6.47762C10.3577 6.49795 10.351 6.51752 10.3401 6.5348C10.3291 6.55208 10.3144 6.5666 10.2969 6.57723C10.2799 6.59031 10.2601 6.59916 10.239 6.60307C10.2179 6.60698 10.1961 6.60582 10.1756 6.5997C10.1322 6.58394 10.0953 6.55416 10.0707 6.51507L9.94266 6.32707L10.6579 5.83949L10.9927 6.33007L10.9403 6.36152L11.0901 6.6042L11.1597 6.56225C11.2002 6.53362 11.2501 6.52181 11.2991 6.5293C11.3204 6.53431 11.3405 6.54373 11.3581 6.55695C11.3756 6.57016 11.3902 6.58689 11.4009 6.60606C11.4116 6.62522 11.4182 6.64641 11.4203 6.66827C11.4223 6.69013 11.4198 6.71218 11.4129 6.73302C11.3899 6.78362 11.3506 6.82503 11.3013 6.85061C11.2422 6.89123 11.1703 6.90882 11.0991 6.90004C11.0644 6.89234 11.0319 6.8768 11.0041 6.8546C10.9763 6.8324 10.954 6.80413 10.9388 6.77197L10.6617 6.93899C10.7133 7.03635 10.7943 7.11497 10.8931 7.16368C10.9804 7.20388 11.0779 7.21642 11.1725 7.19963C11.2736 7.18186 11.3705 7.145 11.4578 7.09103C11.5766 7.02698 11.668 6.92179 11.7147 6.79518C11.7332 6.73673 11.7382 6.67488 11.7296 6.61421C11.7209 6.55354 11.6987 6.49559 11.6646 6.44466C11.6363 6.39144 11.597 6.34483 11.5494 6.30791C11.5017 6.27098 11.4468 6.24458 11.3882 6.23045C11.3704 6.2271 11.3524 6.22485 11.3343 6.22371L11.3545 6.20948L10.5576 5.04706L10.7456 4.91824L10.7418 4.913L11.2002 4.67407L11.2818 4.83061C11.3045 4.86559 11.3195 4.90491 11.3261 4.94604C11.3327 4.98718 11.3306 5.02924 11.32 5.06953C11.2853 5.1478 11.2221 5.20993 11.1433 5.2433L11.0893 5.27101L11.2264 5.5324C11.2628 5.61288 11.3153 5.68507 11.3806 5.74457C11.4459 5.80407 11.5226 5.84962 11.6061 5.87843C11.6907 5.90125 11.7791 5.90691 11.8659 5.89507C11.9527 5.88324 12.0363 5.85415 12.1117 5.80953C12.2057 5.76348 12.2863 5.69403 12.3457 5.60786C12.4051 5.52168 12.4414 5.42168 12.451 5.31745C12.4735 5.30899 12.4955 5.29924 12.5169 5.28824C12.5635 5.26725 12.605 5.23624 12.6383 5.1974C12.6715 5.15856 12.6958 5.11285 12.7094 5.06354L12.8794 5.3886L13.2007 5.22083L12.5461 3.96704L12.7483 3.86143L12.6075 3.5918L10.5576 4.66359L10.5621 4.67257L8.91431 5.79604L9.08732 6.04546ZM12.5326 4.73549C12.5577 4.78116 12.5652 4.83447 12.5536 4.88528C12.5468 4.91088 12.5344 4.93465 12.5173 4.95486C12.5002 4.97507 12.4789 4.99121 12.4547 5.00213C12.4317 5.01546 12.4063 5.02411 12.38 5.02758C12.3536 5.03105 12.3269 5.02927 12.3012 5.02235C12.2747 5.01401 12.2502 5.00016 12.2294 4.9817C12.2087 4.96324 12.192 4.94059 12.1806 4.91524C12.1672 4.89197 12.1589 4.86609 12.1563 4.83935C12.1537 4.8126 12.1569 4.78562 12.1656 4.76021C12.184 4.71025 12.221 4.66941 12.269 4.64636C12.292 4.6322 12.3179 4.62355 12.3448 4.62108C12.3717 4.61862 12.3988 4.6224 12.424 4.63213C12.4725 4.65201 12.5121 4.68871 12.5356 4.73549H12.5326ZM12.2196 4.1363L12.3634 4.41268C12.3154 4.3949 12.264 4.38815 12.213 4.39295C12.1621 4.39775 12.1128 4.41396 12.069 4.44039C11.9969 4.47723 11.9361 4.53287 11.893 4.60142C11.8519 4.66917 11.8301 4.74688 11.8301 4.82612C11.8324 4.92707 11.8624 5.02544 11.9168 5.1105C11.9713 5.19556 12.048 5.26403 12.1387 5.30846C12.1311 5.35611 12.1115 5.40104 12.0817 5.43903C12.052 5.47703 12.0131 5.50684 11.9686 5.52566C11.9346 5.54719 11.8963 5.56112 11.8564 5.56651C11.8165 5.5719 11.7759 5.56861 11.7374 5.55688C11.6988 5.54515 11.6633 5.52525 11.6331 5.49854C11.603 5.47182 11.579 5.43892 11.5627 5.40208L11.523 5.32718C11.5684 5.2981 11.6073 5.26004 11.6375 5.21534C11.6676 5.17065 11.6883 5.12027 11.6983 5.06729C11.7149 4.94194 11.6885 4.81467 11.6234 4.70628L11.5178 4.5048L12.2196 4.1363ZM10.2505 5.25004L10.4872 5.59757L10.1449 5.8305C10.1298 5.73978 10.0942 5.6537 10.0408 5.57884L9.95839 5.45226L10.2505 5.25004Z" fill="white"/>
<path d="M12.0482 3.6263C12.101 3.64617 12.1594 3.64451 12.211 3.62167C12.2626 3.59883 12.3031 3.55665 12.3238 3.50421C12.3338 3.4783 12.3387 3.45066 12.338 3.42289C12.3373 3.39511 12.3312 3.36774 12.3199 3.34235C12.3086 3.31695 12.2924 3.29403 12.2723 3.2749C12.2522 3.25576 12.2284 3.24079 12.2025 3.23084C12.1763 3.22074 12.1484 3.216 12.1203 3.2169C12.0923 3.21781 12.0647 3.22433 12.0392 3.23608C12.0135 3.24691 11.9903 3.26285 11.971 3.28294C11.9517 3.30303 11.9367 3.32684 11.9269 3.35292C11.907 3.40528 11.9087 3.46336 11.9314 3.51453C11.9541 3.56571 11.9961 3.60587 12.0482 3.6263Z" fill="white"/>
<path d="M14.8627 3.11925L15.0807 3.05109V3.04585L16.4289 2.70956L16.8341 2.64589L16.8498 2.7485C16.8702 2.83408 16.8568 2.92423 16.8123 3.00016C16.7938 3.02589 16.7698 3.04713 16.7419 3.06233L16.709 2.92901L15.9143 3.12749L16.0042 3.48775C16.0208 3.54041 16.0192 3.59712 15.9997 3.64878C15.9904 3.67027 15.976 3.68916 15.9577 3.70379C15.9394 3.71841 15.9178 3.72833 15.8948 3.73266C15.8722 3.73955 15.8482 3.74096 15.8249 3.7368C15.8016 3.73263 15.7796 3.723 15.7608 3.7087C15.7197 3.67166 15.6918 3.62222 15.6814 3.56789L15.5915 3.20763L15.235 3.29601L15.3271 3.666C15.3409 3.73348 15.3678 3.79757 15.4064 3.85463C15.4449 3.91169 15.4943 3.96059 15.5518 3.99855C15.6146 4.03412 15.6841 4.05633 15.7559 4.06381C15.8276 4.07128 15.9002 4.06386 15.969 4.04199C16.0638 4.02063 16.1515 3.97523 16.2236 3.91017C16.2886 3.84967 16.3347 3.77162 16.3562 3.68548C16.3794 3.59456 16.3794 3.49928 16.3562 3.40836L16.3397 3.34095L16.5569 3.28702C16.5782 3.45289 16.6614 3.60459 16.7899 3.71169C16.8594 3.76204 16.9388 3.79714 17.0228 3.81469C17.1068 3.83224 17.1936 3.83186 17.2774 3.81355C17.3649 3.80078 17.4492 3.77183 17.5261 3.72817C17.5922 3.68991 17.6488 3.63715 17.6916 3.57388L17.7478 3.93189L18.1111 3.87422L17.8909 2.47737L18.1156 2.44217L18.0684 2.14258L16.5742 2.37851L16.5697 2.36053L16.3704 2.41071L16.2513 2.42944V2.43992L14.9391 2.76648V2.77547L14.2516 2.98893V2.98144L13.021 3.44131L13.1273 3.72592L13.8306 3.46303L13.8741 3.57837C13.8911 3.61544 13.9006 3.65555 13.9018 3.69633C13.9031 3.73711 13.8962 3.77773 13.8816 3.8158C13.8587 3.8552 13.8282 3.88971 13.792 3.91734C13.7558 3.94497 13.7144 3.96518 13.6704 3.97683L13.4502 4.05922L13.6269 4.53332C13.6563 4.6188 13.7059 4.69589 13.7715 4.75802C13.834 4.81552 13.9122 4.85307 13.9962 4.86587C14.0922 4.87975 14.1903 4.8676 14.28 4.83067C14.3425 4.81139 14.4002 4.77932 14.4496 4.73651C14.499 4.6937 14.5389 4.64109 14.5669 4.58201C14.6148 4.46146 14.6132 4.32687 14.5624 4.20752L14.5437 4.15734L14.2149 4.28092L14.2373 4.34158C14.2539 4.38074 14.2563 4.42444 14.2441 4.46517C14.2381 4.48373 14.2277 4.5006 14.2139 4.5144C14.2001 4.5282 14.1832 4.53853 14.1647 4.54456C14.1462 4.55331 14.1258 4.55728 14.1054 4.5561C14.085 4.55492 14.0652 4.54864 14.0478 4.53782C14.0121 4.51135 13.9858 4.47405 13.9729 4.43146L13.8913 4.21351L13.9025 4.20976C14.0898 4.13936 14.2051 4.0395 14.2486 3.91017C14.2899 3.7612 14.2788 3.60254 14.2171 3.46078L14.1744 3.34544L14.2973 3.299V3.30425L14.5152 3.23609L14.9346 4.58425L15.2837 4.4764L14.8627 3.11925ZM17.1771 3.07356C17.2258 2.97633 17.2404 2.86549 17.2183 2.75899L17.1913 2.58972L17.5269 2.53654L17.6122 3.07805C17.6308 3.17504 17.6104 3.27545 17.5553 3.35742C17.4955 3.431 17.4119 3.48138 17.3189 3.49984C17.2259 3.5183 17.1294 3.50369 17.046 3.45854C17.0117 3.43543 16.9825 3.40547 16.9604 3.37054C16.9382 3.3356 16.9235 3.29646 16.9172 3.25556C16.9706 3.24452 17.0212 3.22268 17.0659 3.19138C17.1106 3.16009 17.1484 3.11999 17.1771 3.07356Z" fill="white"/>
<path d="M24.264 3.95108C24.3262 3.89149 24.3695 3.8149 24.3884 3.73088C24.4097 3.64987 24.4097 3.56472 24.3884 3.48371L24.673 3.55861L24.4663 4.38249L24.822 4.47237L25.1696 3.09874L25.3853 3.15266L26.69 3.64025L26.5979 3.88592L25.9507 3.64399C25.8614 3.60907 25.7656 3.59375 25.6699 3.59906C25.5809 3.60319 25.4951 3.63369 25.4235 3.68669C25.3496 3.74552 25.293 3.8232 25.2597 3.91153C25.2263 3.99985 25.2174 4.09555 25.234 4.1885C25.2525 4.27284 25.2937 4.35052 25.3531 4.4132C25.4137 4.47582 25.487 4.52468 25.5682 4.55647C25.6493 4.58826 25.7364 4.60223 25.8234 4.59745C25.9028 4.59166 25.979 4.56334 26.0429 4.51581C26.1119 4.46367 26.1641 4.39227 26.1927 4.31059C26.223 4.23247 26.2323 4.14776 26.2196 4.06492L26.4945 4.16753L26.1949 4.96145L26.5394 5.09028L27.0353 3.76533L27.2487 3.84547L27.3551 3.56011L25.4879 2.86281L25.413 3.05605L25.4632 2.85607L23.53 2.36998L23.5248 2.39245L22.7661 2.26138V2.23591L20.6959 2.04492L20.6779 2.2419V2.04942L19.0242 2.07638L19.0294 2.38047H19.2271L19.2339 2.82386C19.2311 2.95973 19.2698 3.09322 19.3447 3.20659C19.38 3.25692 19.4254 3.29932 19.478 3.33105C19.5307 3.36278 19.5893 3.38315 19.6503 3.39084L19.2459 3.85146L19.6413 3.84547L20.0907 3.26876L20.0975 3.25977L20.1057 3.77731L20.4712 3.77132L20.448 2.35725H20.6727V2.34976L22.1414 2.48532L22.1152 2.76469L21.4921 2.70702L21.4584 3.07702C21.4559 3.13189 21.4357 3.18449 21.4007 3.22681C21.3847 3.2438 21.3648 3.25669 21.3428 3.26438C21.3208 3.27207 21.2972 3.27434 21.2741 3.271C21.2504 3.27012 21.2272 3.26361 21.2065 3.25202C21.1858 3.24043 21.1682 3.22409 21.155 3.20434C21.1284 3.15568 21.1184 3.09967 21.1266 3.04481L21.161 2.67481L20.7955 2.64111L20.7603 3.02084C20.7485 3.09079 20.7521 3.16247 20.771 3.23086C20.7898 3.29925 20.8234 3.36268 20.8694 3.41671C20.9153 3.47074 20.9726 3.51406 21.0371 3.54362C21.1015 3.57318 21.1717 3.58826 21.2426 3.58782C21.3392 3.59905 21.437 3.58512 21.5265 3.54738C21.6077 3.51221 21.6769 3.45418 21.7257 3.38035C21.7763 3.30158 21.8067 3.21154 21.8141 3.11821L21.8201 3.04856L22.0868 3.07327L22.0119 3.89191L22.3751 3.92561L22.5054 2.51753L22.6867 2.53401V2.55648L22.9114 2.59542L22.6717 3.98853L23.032 4.05069L23.2716 2.65684L23.4963 2.69579V2.67481L24.8093 3.00511L24.7456 3.25977L24.0715 3.09125C23.979 3.06659 23.8823 3.06174 23.7877 3.07702C23.6998 3.09135 23.618 3.1312 23.5525 3.19161C23.486 3.25852 23.4386 3.34198 23.4151 3.43337C23.3917 3.52475 23.3931 3.62074 23.4192 3.7114C23.4465 3.79463 23.4966 3.86856 23.5637 3.92486C23.6321 3.98302 23.7132 4.02432 23.8004 4.04545C23.8823 4.06707 23.9679 4.07064 24.0513 4.05593C24.131 4.04267 24.205 4.0062 24.264 3.95108ZM25.9313 4.16304C25.9235 4.18692 25.9108 4.20891 25.894 4.22761C25.8773 4.24631 25.8568 4.26131 25.8339 4.27164C25.8102 4.28178 25.7848 4.287 25.759 4.287C25.7333 4.287 25.7078 4.28178 25.6841 4.27164C25.6592 4.26377 25.6362 4.25096 25.6164 4.23397C25.5965 4.21698 25.5803 4.19617 25.5688 4.17277C25.5572 4.1496 25.5509 4.12418 25.5502 4.09829C25.5496 4.07241 25.5546 4.0467 25.565 4.02298C25.573 3.99866 25.5861 3.97632 25.6034 3.95746C25.6207 3.9386 25.6418 3.92366 25.6654 3.91363C25.7133 3.89382 25.7672 3.89382 25.8152 3.91363C25.8395 3.92167 25.862 3.93458 25.8812 3.95157C25.9003 3.96857 25.9159 3.9893 25.9268 4.01249C25.9385 4.03566 25.9453 4.06103 25.9465 4.08697C25.9478 4.11291 25.9436 4.13883 25.9343 4.16304H25.9313ZM20.0308 3.02384C20.0085 3.05024 19.9804 3.07113 19.9487 3.0849C19.917 3.09867 19.8826 3.10494 19.848 3.10323C19.8129 3.10644 19.7775 3.10133 19.7447 3.08832C19.7119 3.07531 19.6827 3.05476 19.6593 3.02833C19.6146 2.96667 19.5919 2.89175 19.5949 2.81562L19.5874 2.37223L20.0847 2.36399L20.093 2.82836C20.0966 2.89889 20.0745 2.96834 20.0308 3.02384ZM23.888 3.7481C23.8624 3.74279 23.8381 3.73244 23.8165 3.71765C23.7949 3.70287 23.7764 3.68394 23.7622 3.66197C23.7488 3.64067 23.7401 3.61677 23.7366 3.59186C23.7332 3.56694 23.735 3.54157 23.742 3.51742C23.7474 3.49251 23.758 3.46902 23.7731 3.44849C23.7882 3.42796 23.8074 3.41087 23.8296 3.39833C23.8522 3.38568 23.8771 3.37765 23.9028 3.37469C23.9285 3.37173 23.9546 3.37391 23.9794 3.3811C24.0045 3.38591 24.0283 3.39591 24.0492 3.41046C24.0702 3.42501 24.0879 3.4438 24.1011 3.4656C24.1144 3.4874 24.123 3.51174 24.1262 3.53705C24.1295 3.56235 24.1275 3.58807 24.1202 3.61254C24.1151 3.63715 24.1049 3.66041 24.0901 3.6808C24.0754 3.70119 24.0566 3.71825 24.0348 3.73088C24.013 3.7432 23.9889 3.75106 23.9639 3.75402C23.939 3.75698 23.9137 3.75496 23.8895 3.7481H23.888Z" fill="white"/>
<path d="M27.6103 4.89691C27.5695 4.96886 27.5503 5.05101 27.5549 5.13359C27.5609 5.21053 27.5884 5.28423 27.6343 5.3463C27.684 5.41288 27.7483 5.46719 27.8223 5.50508C27.8931 5.5444 27.9715 5.56839 28.0522 5.57548C28.1253 5.58229 28.199 5.56963 28.2656 5.53878L28.0911 5.87058L28.4132 6.0421L29.0783 4.79505L29.2798 4.90215L29.4228 4.63327L27.8073 3.77344L27.6642 4.04232L28.7577 4.62203L28.4941 5.11561C28.4544 5.20119 28.3857 5.26993 28.3001 5.3096C28.2611 5.32554 28.2189 5.33215 28.1769 5.32889C28.1349 5.32564 28.0943 5.31262 28.0582 5.29087C28.0028 5.26436 27.9587 5.21894 27.9338 5.1628C27.9227 5.13662 27.9179 5.10818 27.9199 5.07981C27.9218 5.05144 27.9305 5.02392 27.9451 4.99952C27.957 4.97447 27.9742 4.95231 27.9956 4.93459C28.0169 4.91687 28.0418 4.90401 28.0687 4.89691C28.1259 4.8843 28.1858 4.89366 28.2364 4.92312L28.3211 4.96806L28.4581 4.71715L27.7009 4.31345L27.5668 4.56511L27.8417 4.71491C27.7921 4.72626 27.7456 4.74847 27.7056 4.77994C27.6656 4.81141 27.633 4.85136 27.6103 4.89691Z" fill="white"/>
<path d="M29.0342 6.44072L29.3383 6.64369L30.1217 5.4663L30.3112 5.59212L30.3157 5.58613L30.8969 6.02503L30.7988 6.15461L30.649 6.04226C30.5736 5.97908 30.4791 5.94319 30.3808 5.9404C30.3392 5.94109 30.2982 5.95162 30.2614 5.97115C30.2246 5.99067 30.1929 6.01863 30.1689 6.05275C30.1355 6.09583 30.1146 6.14718 30.1082 6.20129C30.1019 6.2554 30.1104 6.31021 30.1329 6.35983C30.0557 6.35445 29.9783 6.36888 29.9082 6.40177C29.8337 6.43845 29.7692 6.49268 29.7202 6.55981C29.6589 6.63805 29.6191 6.73102 29.6049 6.82944C29.5928 6.92178 29.6085 7.01564 29.6498 7.09907C29.698 7.19257 29.7676 7.27339 29.8528 7.335C29.9586 7.4213 30.0908 7.46886 30.2273 7.46982C30.2894 7.46845 30.3506 7.45409 30.4068 7.42764C30.4631 7.40119 30.5132 7.36326 30.5539 7.31628L30.2752 7.10656C30.2416 7.13117 30.2008 7.14383 30.1591 7.14251C30.1122 7.1415 30.0668 7.1249 30.0303 7.09533C30.0066 7.07895 29.9867 7.05773 29.9719 7.03307C29.957 7.0084 29.9476 6.98086 29.9442 6.95227C29.9396 6.89041 29.9592 6.82917 29.9989 6.78151C30.0162 6.75622 30.0384 6.7346 30.0641 6.71789C30.0898 6.70118 30.1185 6.68971 30.1487 6.68414C30.1769 6.67961 30.2057 6.68108 30.2333 6.68843C30.261 6.69579 30.2867 6.70887 30.3089 6.72683C30.3487 6.75463 30.3776 6.79541 30.3906 6.84217C30.4021 6.88222 30.3997 6.92497 30.3838 6.96351L30.6625 7.17397C30.7266 7.07049 30.7485 6.94638 30.7239 6.82719C30.6884 6.69409 30.6052 6.57868 30.4902 6.50288C30.4628 6.48225 30.434 6.46348 30.4041 6.44671C30.3939 6.42834 30.3894 6.40737 30.3911 6.38644C30.3929 6.36552 30.4008 6.34557 30.4138 6.32912C30.4227 6.31515 30.4352 6.30377 30.4499 6.29615C30.4646 6.28852 30.4811 6.28491 30.4977 6.28568C30.534 6.28945 30.5683 6.30377 30.5966 6.32687L30.9194 6.57029L31.1725 6.23475L31.4099 6.4145L32.2301 7.14326L32.0488 7.34549L31.8189 7.13877C31.6972 7.01971 31.5388 6.94528 31.3695 6.92755C31.2882 6.92426 31.2073 6.94033 31.1335 6.97445C31.0597 7.00857 30.995 7.05976 30.9448 7.12379C30.8877 7.17859 30.8438 7.24559 30.8163 7.31979C30.7888 7.39398 30.7785 7.47344 30.786 7.5522C30.8124 7.70788 30.8941 7.84882 31.016 7.94916L31.0909 8.01582L31.2834 7.80236L31.2504 7.7724C31.1877 7.72391 31.1468 7.65254 31.1366 7.57393C31.1356 7.5373 31.1422 7.50086 31.1558 7.46686C31.1695 7.43286 31.19 7.402 31.216 7.37619C31.2391 7.34708 31.2686 7.32374 31.3023 7.30802C31.3359 7.29229 31.3728 7.2846 31.4099 7.28557C31.4909 7.29157 31.567 7.32669 31.6242 7.38443L31.8406 7.57842L31.2864 8.19483L31.5582 8.439L32.5035 7.39042L32.6727 7.54022L32.8764 7.31553L32.7049 7.16199C32.7492 7.01533 32.7798 6.86489 32.7963 6.7126C32.8067 6.61895 32.7925 6.52422 32.7551 6.43772C32.7051 6.34563 32.6409 6.26197 32.5649 6.18981L32.484 6.10967L32.278 6.31938L32.3649 6.40402C32.4073 6.44329 32.4432 6.48905 32.4713 6.53958C32.492 6.58663 32.5002 6.63822 32.4952 6.68938C32.4882 6.77433 32.4752 6.85868 32.4563 6.94179L31.5927 6.16584L31.5882 6.17109L31.5642 6.15311L31.5822 6.12615C31.658 6.01646 31.6954 5.8848 31.6886 5.75166C31.6795 5.60544 31.6294 5.46474 31.544 5.34571C31.4437 5.20293 31.3165 5.08107 31.1695 4.98695C31.0292 4.88937 30.872 4.81876 30.7059 4.77873C30.5704 4.74522 30.4285 4.74859 30.2947 4.78847C30.1705 4.82771 30.0626 4.90665 29.9876 5.01316L29.7981 4.88658L29.6296 5.13974L29.8191 5.26632L29.0342 6.44072ZM30.6018 5.08057C30.7462 5.0956 30.8843 5.14715 31.0032 5.23037C31.089 5.2865 31.1649 5.35634 31.2279 5.43708C31.2838 5.50704 31.3202 5.59049 31.3335 5.67901C31.3442 5.76428 31.3229 5.8505 31.2736 5.92093L30.4498 5.29927L30.4438 5.30751L30.294 5.2079C30.3296 5.16159 30.3769 5.12547 30.4309 5.10312C30.4849 5.08078 30.5438 5.073 30.6018 5.08057Z" fill="white"/>
<path d="M35.5833 10.6955L35.4761 10.7539L35.5698 10.6895L35.3773 10.4086L35.4065 10.3854C35.5122 10.3039 35.5882 10.19 35.6229 10.0611C35.6587 9.92112 35.654 9.77388 35.6095 9.63644C35.5584 9.46933 35.4746 9.31403 35.363 9.17956C35.2604 9.04377 35.1334 8.92822 34.9886 8.83877C34.8698 8.76498 34.7336 8.72413 34.5938 8.72043C34.4638 8.71989 34.3371 8.7617 34.2328 8.83952L34.1205 8.69722L34.128 8.68973L33.1685 7.61719L32.9438 7.81941L33.4726 8.41111L33.3513 8.51896L33.2277 8.3804C33.1658 8.30444 33.08 8.25165 32.9843 8.2306C32.9433 8.22298 32.9011 8.22533 32.8612 8.23745C32.8213 8.24957 32.7849 8.27112 32.7551 8.30026C32.7137 8.33565 32.6829 8.38181 32.6661 8.43363C32.6493 8.48545 32.6472 8.54091 32.66 8.59386C32.5847 8.57364 32.5054 8.57364 32.43 8.59386C32.35 8.61558 32.2765 8.65645 32.2158 8.71295C32.1402 8.77719 32.0831 8.86044 32.0503 8.95412C32.0205 9.04244 32.0179 9.13767 32.0428 9.22749C32.07 9.32846 32.1215 9.42126 32.1926 9.49788C32.2799 9.60424 32.4014 9.67703 32.5364 9.70385C32.5977 9.71467 32.6605 9.71254 32.7209 9.69757C32.7812 9.68261 32.8378 9.65514 32.8869 9.61696L32.6547 9.35632C32.617 9.37447 32.5742 9.37923 32.5334 9.3698C32.487 9.35843 32.4457 9.33211 32.4158 9.2949C32.3957 9.27428 32.3802 9.24955 32.3705 9.2224C32.3608 9.19526 32.3571 9.16633 32.3596 9.13762C32.3669 9.07583 32.3981 9.01935 32.4465 8.98033C32.4682 8.95891 32.4939 8.94204 32.5222 8.93072C32.5505 8.9194 32.5808 8.91386 32.6113 8.91442C32.6401 8.91567 32.6684 8.92299 32.6942 8.93589C32.72 8.9488 32.7428 8.967 32.7611 8.98932C32.7948 9.0242 32.8152 9.06978 32.8188 9.11814C32.8223 9.15959 32.8117 9.20102 32.7888 9.23573L33.021 9.49563C33.1039 9.40693 33.1495 9.28973 33.1483 9.16832C33.1395 9.03069 33.0803 8.90113 32.982 8.80432C32.9589 8.77758 32.9339 8.75255 32.9071 8.72942C32.9006 8.70951 32.9002 8.68809 32.9059 8.66794C32.9116 8.64778 32.9233 8.6298 32.9394 8.61633C32.9508 8.60439 32.9652 8.59568 32.9812 8.59108C32.9971 8.58648 33.0139 8.58615 33.03 8.59011C33.0646 8.60064 33.0954 8.62123 33.1184 8.64928L33.388 8.94887L33.7018 8.66875L33.8576 8.84252L33.8516 8.84701L33.9932 9.02602L32.8847 9.90682L33.1094 10.1929L34.2194 9.31587L34.3609 9.49413L34.3714 9.48589L34.9833 10.3749L34.7586 10.5292L34.5834 10.2738C34.4931 10.1293 34.3562 10.02 34.1954 9.96374C34.1171 9.9414 34.0346 9.93803 33.9548 9.95392C33.8749 9.96981 33.8 10.0045 33.7363 10.0551C33.668 10.0952 33.6098 10.1501 33.5658 10.2159C33.5218 10.2816 33.4933 10.3565 33.4824 10.4349C33.4713 10.5923 33.5176 10.7485 33.6127 10.8745L33.6689 10.9569L33.9063 10.7936L33.8816 10.7569C33.8319 10.6952 33.8088 10.6163 33.8172 10.5375C33.8247 10.5016 33.8396 10.4676 33.8609 10.4377C33.8821 10.4078 33.9093 10.3826 33.9407 10.3637C33.9699 10.3407 34.0041 10.3249 34.0405 10.3175C34.0769 10.3101 34.1146 10.3113 34.1505 10.321C34.2282 10.347 34.2939 10.4002 34.3354 10.4708L34.5002 10.7105L33.8179 11.1801L34.0246 11.4797L35.1893 10.6783L35.3189 10.8655L35.3249 10.8618L35.6993 11.5516L35.3997 11.7126L35.3249 11.5823C35.265 11.4608 35.1646 11.3641 35.041 11.3089C34.9801 11.2852 34.9145 11.276 34.8495 11.2823C34.7844 11.2885 34.7217 11.31 34.6665 11.3449C34.5891 11.3845 34.5241 11.4446 34.4785 11.5186C34.4358 11.5896 34.4152 11.6718 34.4193 11.7546C34.4231 11.8469 34.4488 11.937 34.4942 12.0174C34.5227 12.0797 34.5642 12.1352 34.6159 12.1801C34.6675 12.2251 34.7282 12.2585 34.7938 12.2781C34.9328 12.3058 35.0771 12.279 35.1968 12.2032L35.2926 12.1508L35.4364 12.4144L34.7511 12.7889L34.9271 13.1117L36.169 12.4376L36.2776 12.6376L36.5449 12.4923L35.5833 10.6955ZM34.5916 9.26794L34.5781 9.27693L34.4575 9.12713C34.5061 9.09254 34.5629 9.07147 34.6223 9.06607C34.6816 9.06068 34.7413 9.07115 34.7953 9.09642C34.928 9.15607 35.0432 9.24862 35.1301 9.36531C35.1945 9.44497 35.2451 9.53484 35.2799 9.63119C35.3115 9.71503 35.3205 9.80567 35.3061 9.89409C35.2903 9.97854 35.2432 10.0539 35.1743 10.1053L35.1698 10.109L34.5916 9.26794ZM35.0328 11.9126C34.9878 11.9398 34.935 11.9509 34.883 11.944C34.8595 11.9393 34.8375 11.9292 34.8187 11.9145C34.7998 11.8998 34.7847 11.881 34.7744 11.8594C34.7634 11.841 34.7561 11.8206 34.753 11.7994C34.7499 11.7782 34.7511 11.7566 34.7564 11.7358C34.7626 11.7148 34.7732 11.6952 34.7876 11.6786C34.8019 11.6619 34.8196 11.6485 34.8395 11.6392C34.8593 11.627 34.8816 11.6196 34.9048 11.6175C34.9279 11.6154 34.9512 11.6187 34.9728 11.6272C35.0191 11.6471 35.0566 11.683 35.0784 11.7283L35.1451 11.8512L35.0328 11.9126ZM35.7113 12.2706L35.5683 12.007L35.8634 11.8459L36.0072 12.1096L35.7113 12.2706Z" fill="white"/>
<path d="M34.2876 13.2807L34.4479 13.6185L34.7819 13.1152L34.6261 12.7871L34.2876 13.2807Z" fill="white"/>
</g>
</svg>
