<svg width="119" height="32" viewBox="0 0 119 32" fill="none" xmlns="http://www.w3.org/2000/svg">
<g opacity="0.4" clip-path="url(#clip0_174_649)">
<path d="M26.8299 8.7399C26.8041 7.63605 26.3576 6.58374 25.5817 5.79817C24.8058 5.01259 23.759 4.5531 22.6556 4.51365C21.9838 4.50999 21.3242 4.69288 20.7503 5.04193C20.3573 5.29757 20.0018 5.60652 19.6938 5.95993C19.2863 6.46971 18.8342 6.94213 18.3427 7.37157C17.6324 7.86919 16.7752 8.11324 15.9092 8.0644H15.7706C13.7094 8.0644 12.9733 6.86061 11.6396 5.60486C11.2407 5.23842 10.7722 4.95601 10.2618 4.77449C9.75149 4.59297 9.20979 4.51605 8.66909 4.5483C8.41751 4.55905 8.16783 4.59678 7.92431 4.66087L7.49996 4.78212L7.30079 4.8514C7.12074 4.92697 6.94695 5.01675 6.78114 5.11988L6.61659 5.2238L6.33951 5.41433C6.2096 5.51826 6.07969 5.6395 5.95845 5.75209C5.83895 5.87281 5.72618 6.00002 5.62068 6.13314L5.50809 6.28902C5.46764 6.34181 5.43005 6.39674 5.3955 6.45357C5.36355 6.49776 5.33464 6.54406 5.30892 6.59214C5.28366 6.62672 5.26325 6.66459 5.24829 6.70472C5.21144 6.7595 5.17952 6.81748 5.15299 6.87793L5.08374 7.03381C4.81653 7.62598 4.69369 8.27312 4.72531 8.92202C4.75693 9.57091 4.94206 10.203 5.26558 10.7664L5.3695 10.957L5.4388 11.0522L5.54272 11.1994C5.83371 11.5963 6.19474 11.9368 6.60798 12.204C6.96824 12.4716 7.29654 12.7796 7.58655 13.122C8.01841 13.8112 8.24749 14.6081 8.24749 15.4214C8.24749 16.2347 8.01841 17.0315 7.58655 17.7207C6.09549 17.424 4.71461 16.7233 3.59472 15.6951C2.47482 14.667 1.659 13.3509 1.23627 11.8905C0.813544 10.4302 0.800194 8.88179 1.19769 7.41438C1.59518 5.94698 2.38821 4.61699 3.49022 3.56967C4.459 2.66006 5.63971 2.00691 6.92507 1.66957C8.21043 1.33222 9.55973 1.32138 10.8504 1.63801C12.141 1.95464 13.332 2.58871 14.3153 3.48263C15.2986 4.37655 16.0429 5.50199 16.4807 6.75669C17.074 6.58801 17.6236 6.29252 18.0916 5.89066C18.0309 5.75209 17.9703 5.60485 17.9097 5.47495C17.3176 4.21772 16.4575 3.10528 15.3898 2.21565C14.3222 1.32601 13.0729 0.680728 11.7295 0.325068C10.3861 -0.0305915 8.9811 -0.0880114 7.61313 0.15682C6.24517 0.40165 4.94732 0.942807 3.81065 1.74234C-2.71926 6.50553 -0.519531 16.6295 7.27479 18.197C6.85043 18.6906 6.3308 19.1583 5.80252 19.7212C5.43657 20.1208 5.15394 20.5893 4.97105 21.0993C4.78816 21.6093 4.70868 22.1507 4.73731 22.6917C4.77386 23.3656 4.97323 24.0206 5.31838 24.6005C5.66354 25.1805 6.14418 25.6681 6.71908 26.0216C7.29398 26.3751 7.946 26.5839 8.6193 26.6302C9.29259 26.6764 9.96705 26.5588 10.5849 26.2872C11.2027 26.0157 11.7456 25.5984 12.1668 25.0711C12.588 24.5439 12.8752 23.9223 13.0035 23.2598C13.1319 22.5972 13.0978 21.9134 12.904 21.2669C12.7102 20.6205 12.3625 20.0307 11.8908 19.548C11.4318 19.0804 11.0247 18.682 10.6263 18.2143C11.447 18.0577 12.2425 17.7896 12.9906 17.4176H17.953V12.2993H12.8348V17.1491C12.1494 17.458 11.4277 17.6792 10.687 17.8073L10.3492 17.8506C9.87272 17.1946 9.62343 16.4009 9.6391 15.5902C9.61413 14.9542 9.71111 14.3192 9.92485 13.7196C9.993 13.5868 10.0712 13.4594 10.1587 13.3385C10.5703 12.8762 11.0068 12.4368 11.4664 12.0222L11.5184 11.9702L11.7002 11.8057L11.8215 11.6931C12.0293 11.5026 12.1852 11.3553 12.2458 11.312C12.9167 10.711 13.6515 10.1854 14.4369 9.74451C15.6745 9.40612 16.9952 9.56461 18.1176 10.1862C18.8624 10.7318 19.2867 11.5805 20.0142 12.1434C20.7748 12.735 21.7186 13.0414 22.6816 13.0095C23.2343 13.0015 23.7801 12.8848 24.2877 12.666C24.7953 12.4471 25.2549 12.1304 25.6401 11.7339C26.0253 11.3375 26.3287 10.869 26.5328 10.3553C26.737 9.84155 26.8379 9.29264 26.8299 8.7399Z" fill="white"/>
<path d="M20.9146 31.7325H24.8723V26.6315H30.2071V23.6783H24.8723V21.2101H30.5708V18.2656H20.9146V31.7325Z" fill="white"/>
<path d="M36.4774 18.2656H32.4417V31.7325H36.4774V18.2656Z" fill="white"/>
<path d="M38.0188 21.2188H41.5176V31.7325H45.5533V21.2188H49.0261V18.2656H38.0188V21.2188Z" fill="white"/>
<path d="M58.6045 20.8637C58.6045 22.9249 58.6564 25.2805 58.795 26.8307H58.717C58.4919 26.0513 57.6864 24.0074 55.3914 18.2656H50.585V31.7325H54.2743V29.0391C54.2743 26.7181 54.2743 24.3885 54.1444 22.769C54.4042 23.5484 55.1836 25.4884 57.6085 31.7325H62.2331V18.2656H58.5438L58.6045 20.8637Z" fill="white"/>
<path d="M66.9359 18.2656L63.1772 31.7325H67.1264L67.7499 29.1344H71.4132L72.1061 31.7325H76.289L72.3659 18.2656H66.9359ZM68.3562 26.0599C68.8152 24.2413 69.2222 22.3533 69.4993 20.8637H69.5686C69.8371 22.2667 70.2874 24.2066 70.7637 26.0599H68.3562Z" fill="white"/>
<path d="M82.7497 23.2443C80.9137 22.742 80.3594 22.4908 80.3594 21.7287C80.3594 20.9666 80.8357 20.6808 81.6758 20.6808C81.8819 20.6601 82.09 20.6831 82.2866 20.7483C82.4831 20.8135 82.6638 20.9194 82.8166 21.0592C82.9695 21.199 83.0911 21.3694 83.1736 21.5594C83.2561 21.7494 83.2975 21.9546 83.2953 22.1617H87.0798C86.9239 19.6589 85.1226 17.9961 81.6498 17.9961C78.532 17.9961 76.4536 19.529 76.4536 22.179C76.4536 24.0324 77.3975 25.3834 80.9396 26.3187C82.8189 26.821 83.4165 27.1847 83.4165 28.1114C83.4165 28.8215 83.0095 29.2805 81.875 29.2805C81.6293 29.3127 81.3797 29.2919 81.1428 29.2194C80.9059 29.1469 80.6874 29.0244 80.5018 28.8603C80.3163 28.6961 80.1682 28.494 80.0675 28.2677C79.9667 28.0414 79.9156 27.7962 79.9177 27.5485H76.0898C76.2717 30.2158 78.2376 31.9566 81.771 31.9566C85.3045 31.9566 87.4696 30.3198 87.4696 27.6264C87.4263 25.6432 86.4563 24.2748 82.7497 23.2443Z" fill="white"/>
<path d="M87.5129 21.2188H91.0117V31.7325H95.0474V21.2188H98.5289V18.2656H87.5129V21.2188Z" fill="white"/>
<path d="M104.115 18.2656H100.079V31.7325H104.115V18.2656Z" fill="white"/>
<path d="M114.1 27.2021C113.944 28.1114 113.572 29.1333 112.203 29.1333C110.558 29.1333 110.038 27.4012 110.038 25.0023C110.038 22.6034 110.575 20.854 112.203 20.854C113.52 20.854 113.935 21.72 114.057 22.7246H118.032C117.902 20.5855 116.447 17.9961 112.264 17.9961C107.821 17.9961 105.864 21.1831 105.864 25.037C105.864 28.8908 107.509 31.9652 112.108 31.9652C115.867 31.9652 117.694 29.9734 118.092 27.1674L114.1 27.2021Z" fill="white"/>
</g>
<defs>
<clipPath id="clip0_174_649">
<rect width="118.084" height="32" fill="white"/>
</clipPath>
</defs>
</svg>
