<svg width="118" height="40" viewBox="0 0 118 40" fill="none" xmlns="http://www.w3.org/2000/svg">
<g opacity="0.4" clip-path="url(#clip0_174_649)">
<path d="M26.8299 12.7399C26.8041 11.636 26.3576 10.5837 25.5817 9.79817C24.8058 9.01259 23.759 8.5531 22.6556 8.51365C21.9838 8.50999 21.3242 8.69288 20.7503 9.04193C20.3573 9.29757 20.0018 9.60652 19.6938 9.95993C19.2863 10.4697 18.8342 10.9421 18.3427 11.3716C17.6324 11.8692 16.7752 12.1132 15.9092 12.0644H15.7706C13.7094 12.0644 12.9733 10.8606 11.6396 9.60486C11.2407 9.23842 10.7722 8.95601 10.2618 8.77449C9.75149 8.59297 9.20979 8.51605 8.66909 8.5483C8.41751 8.55905 8.16783 8.59678 7.92431 8.66087L7.49996 8.78212L7.30079 8.8514C7.12074 8.92697 6.94695 9.01675 6.78114 9.11988L6.61659 9.2238L6.33951 9.41433C6.2096 9.51826 6.07969 9.6395 5.95845 9.75209C5.83895 9.87281 5.72618 10 5.62068 10.1331L5.50809 10.289C5.46764 10.3418 5.43005 10.3967 5.3955 10.4536C5.36355 10.4978 5.33464 10.5441 5.30892 10.5921C5.28366 10.6267 5.26325 10.6646 5.24829 10.7047C5.21144 10.7595 5.17952 10.8175 5.15299 10.8779L5.08374 11.0338C4.81653 11.626 4.69369 12.2731 4.72531 12.922C4.75693 13.5709 4.94206 14.203 5.26558 14.7664L5.3695 14.957L5.4388 15.0522L5.54272 15.1994C5.83371 15.5963 6.19474 15.9368 6.60798 16.204C6.96824 16.4716 7.29654 16.7796 7.58655 17.122C8.01841 17.8112 8.24749 18.6081 8.24749 19.4214C8.24749 20.2347 8.01841 21.0315 7.58655 21.7207C6.09549 21.424 4.71461 20.7233 3.59472 19.6951C2.47482 18.667 1.659 17.3509 1.23627 15.8905C0.813544 14.4302 0.800194 12.8818 1.19769 11.4144C1.59518 9.94698 2.38821 8.61699 3.49022 7.56967C4.459 6.66006 5.63971 6.00691 6.92507 5.66957C8.21043 5.33222 9.55973 5.32138 10.8504 5.63801C12.141 5.95464 13.332 6.58871 14.3153 7.48263C15.2986 8.37655 16.0429 9.50199 16.4807 10.7567C17.074 10.588 17.6236 10.2925 18.0916 9.89066C18.0309 9.75209 17.9703 9.60485 17.9097 9.47495C17.3176 8.21772 16.4575 7.10528 15.3898 6.21565C14.3222 5.32601 13.0729 4.68073 11.7295 4.32507C10.3861 3.96941 8.9811 3.91199 7.61313 4.15682C6.24517 4.40165 4.94732 4.94281 3.81065 5.74234C-2.71926 10.5055 -0.519531 20.6295 7.27479 22.197C6.85043 22.6906 6.3308 23.1583 5.80252 23.7212C5.43657 24.1208 5.15394 24.5893 4.97105 25.0993C4.78816 25.6093 4.70868 26.1507 4.73731 26.6917C4.77386 27.3656 4.97323 28.0206 5.31838 28.6005C5.66354 29.1805 6.14418 29.6681 6.71908 30.0216C7.29398 30.3751 7.946 30.5839 8.6193 30.6302C9.29259 30.6764 9.96705 30.5588 10.5849 30.2872C11.2027 30.0157 11.7456 29.5984 12.1668 29.0711C12.588 28.5439 12.8752 27.9223 13.0035 27.2598C13.1319 26.5972 13.0978 25.9134 12.904 25.2669C12.7102 24.6205 12.3625 24.0307 11.8908 23.548C11.4318 23.0804 11.0247 22.682 10.6263 22.2143C11.447 22.0577 12.2425 21.7896 12.9906 21.4176H17.953V16.2993H12.8348V21.1491C12.1494 21.458 11.4277 21.6792 10.687 21.8073L10.3492 21.8506C9.87272 21.1946 9.62343 20.4009 9.6391 19.5902C9.61413 18.9542 9.71111 18.3192 9.92485 17.7196C9.993 17.5868 10.0712 17.4594 10.1587 17.3385C10.5703 16.8762 11.0068 16.4368 11.4664 16.0222L11.5184 15.9702L11.7002 15.8057L11.8215 15.6931C12.0293 15.5026 12.1852 15.3553 12.2458 15.312C12.9167 14.711 13.6515 14.1854 14.4369 13.7445C15.6745 13.4061 16.9952 13.5646 18.1176 14.1862C18.8624 14.7318 19.2867 15.5805 20.0142 16.1434C20.7748 16.735 21.7186 17.0414 22.6816 17.0095C23.2343 17.0015 23.7801 16.8848 24.2877 16.666C24.7953 16.4471 25.2549 16.1304 25.6401 15.7339C26.0253 15.3375 26.3287 14.869 26.5328 14.3553C26.737 13.8416 26.8379 13.2926 26.8299 12.7399Z" fill="white"/>
<path d="M20.9146 35.7325H24.8723V30.6315H30.2071V27.6783H24.8723V25.2101H30.5708V22.2656H20.9146V35.7325Z" fill="white"/>
<path d="M36.4774 22.2656H32.4417V35.7325H36.4774V22.2656Z" fill="white"/>
<path d="M38.0188 25.2188H41.5176V35.7325H45.5533V25.2188H49.0261V22.2656H38.0188V25.2188Z" fill="white"/>
<path d="M58.6045 24.8637C58.6045 26.9249 58.6564 29.2805 58.795 30.8307H58.717C58.4919 30.0513 57.6864 28.0074 55.3914 22.2656H50.585V35.7325H54.2743V33.0391C54.2743 30.7181 54.2743 28.3885 54.1444 26.769C54.4042 27.5484 55.1836 29.4884 57.6085 35.7325H62.2331V22.2656H58.5438L58.6045 24.8637Z" fill="white"/>
<path d="M66.9359 22.2656L63.1772 35.7325H67.1264L67.7499 33.1344H71.4132L72.1061 35.7325H76.289L72.3659 22.2656H66.9359ZM68.3562 30.0599C68.8152 28.2413 69.2222 26.3533 69.4993 24.8637H69.5686C69.8371 26.2667 70.2874 28.2066 70.7637 30.0599H68.3562Z" fill="white"/>
<path d="M82.7497 27.2443C80.9137 26.742 80.3594 26.4908 80.3594 25.7287C80.3594 24.9666 80.8357 24.6808 81.6758 24.6808C81.8819 24.6601 82.09 24.6831 82.2866 24.7483C82.4831 24.8135 82.6638 24.9194 82.8166 25.0592C82.9695 25.199 83.0911 25.3694 83.1736 25.5594C83.2561 25.7494 83.2975 25.9546 83.2953 26.1617H87.0798C86.9239 23.6589 85.1226 21.9961 81.6498 21.9961C78.532 21.9961 76.4536 23.529 76.4536 26.179C76.4536 28.0324 77.3975 29.3834 80.9396 30.3187C82.8189 30.821 83.4165 31.1847 83.4165 32.1114C83.4165 32.8215 83.0095 33.2805 81.875 33.2805C81.6293 33.3127 81.3797 33.2919 81.1428 33.2194C80.9059 33.1469 80.6874 33.0244 80.5018 32.8603C80.3163 32.6961 80.1682 32.494 80.0675 32.2677C79.9667 32.0414 79.9156 31.7962 79.9177 31.5485H76.0898C76.2717 34.2158 78.2376 35.9566 81.771 35.9566C85.3045 35.9566 87.4696 34.3198 87.4696 31.6264C87.4263 29.6432 86.4563 28.2748 82.7497 27.2443Z" fill="white"/>
<path d="M87.5129 25.2188H91.0117V35.7325H95.0474V25.2188H98.5289V22.2656H87.5129V25.2188Z" fill="white"/>
<path d="M104.115 22.2656H100.079V35.7325H104.115V22.2656Z" fill="white"/>
<path d="M114.1 31.2021C113.944 32.1114 113.572 33.1333 112.203 33.1333C110.558 33.1333 110.038 31.4012 110.038 29.0023C110.038 26.6034 110.575 24.854 112.203 24.854C113.52 24.854 113.935 25.72 114.057 26.7246H118.032C117.902 24.5855 116.447 21.9961 112.264 21.9961C107.821 21.9961 105.864 25.1831 105.864 29.037C105.864 32.8908 107.509 35.9652 112.108 35.9652C115.867 35.9652 117.694 33.9734 118.092 31.1674L114.1 31.2021Z" fill="white"/>
</g>
<defs>
<clipPath id="clip0_174_649">
<rect width="118" height="40" fill="white"/>
</clipPath>
</defs>
</svg>
