<svg width="102" height="28" viewBox="0 0 102 28" fill="none" xmlns="http://www.w3.org/2000/svg">
<path d="M100.506 26.8674H99.9737L100.177 25.4632L100.222 24.9128H100.256L100.3 25.4632L100.506 26.8674ZM101.255 27.9907L100.553 24.0469H99.9344L99.2426 27.9907H99.8286L99.911 27.371H100.578L100.671 27.9907H101.255ZM98.6987 24.0487H98.1258V27.9973H98.6875L98.6987 24.0487ZM96.8939 27.3495C96.8927 27.3865 96.8776 27.4216 96.8515 27.4478C96.8255 27.4741 96.7904 27.4895 96.7535 27.4909H96.2761V24.5608H96.7535C96.7901 24.5626 96.8248 24.578 96.8508 24.6039C96.8767 24.6299 96.8921 24.6646 96.8939 24.7012V27.3495ZM96.8939 27.9973C97.0351 27.997 97.1713 27.9451 97.2768 27.8513C97.3344 27.7983 97.3803 27.7339 97.4116 27.6622C97.4429 27.5904 97.4588 27.5129 97.4584 27.4347V24.6207C97.4567 24.4723 97.397 24.3304 97.292 24.2254C97.187 24.1205 97.0451 24.0607 96.8967 24.059H95.7144V28.001L96.8939 27.9973ZM95.0104 27.9973V24.0534H94.4488V25.2582L94.5499 26.8702H94.5152L94.3851 26.3085L93.6596 24.0562H93.0979V27.9982H93.6596V26.7813L93.566 25.1833H93.6006L93.7336 25.745L94.4544 27.9973H95.0104ZM92.3893 24.0553H91.8276V27.9973H92.3893V24.0553Z" fill="white" fill-opacity="0.4"/>
<path d="M4.44946 4.17883H9.99783V0.321089H0.595459V23.0884H4.44946V13.3285H8.0273V9.47258H4.44946V4.17883ZM20.6087 18.0577C20.6087 18.455 20.4509 18.8359 20.17 19.1168C19.8891 19.3977 19.5082 19.5555 19.1109 19.5555C18.7137 19.5555 18.3327 19.3977 18.0518 19.1168C17.771 18.8359 17.6132 18.455 17.6132 18.0577V5.35179C17.6132 4.95455 17.771 4.57358 18.0518 4.29269C18.3327 4.0118 18.7137 3.854 19.1109 3.854C19.5082 3.854 19.8891 4.0118 20.17 4.29269C20.4509 4.57358 20.6087 4.95455 20.6087 5.35179V18.0577ZM24.4665 18.0577V5.35179C24.4663 4.6487 24.3277 3.95253 24.0585 3.30303C23.7893 2.65353 23.3947 2.06344 22.8974 1.56645C22.4 1.06947 21.8097 0.675333 21.16 0.406557C20.5103 0.137781 19.814 -0.000368155 19.1109 7.36825e-07C17.692 -0.000247596 16.331 0.563134 15.3274 1.56624C14.3237 2.56934 13.7596 3.93001 13.7592 5.34898V18.0577C13.7854 19.46 14.3609 20.796 15.3618 21.7785C16.3628 22.7609 17.7093 23.3113 19.1119 23.3113C20.5144 23.3113 21.8609 22.7609 22.8619 21.7785C23.8629 20.796 24.4384 19.46 24.4646 18.0577M40.7577 23.0884L38.1366 14.0577C39.4818 13.028 40.2157 11.4057 40.2157 9.15805H40.2288V5.43698H40.2157C40.1566 4.06107 39.5688 2.76107 38.5747 1.80797C37.5806 0.854873 36.257 0.322233 34.8799 0.321089H29.544V23.0884H33.3998V4.17883H34.8827C35.2799 4.17883 35.6609 4.33663 35.9418 4.61752C36.2226 4.89841 36.3804 5.27938 36.3804 5.67662V9.22732C36.3804 11.8363 33.9278 12.2772 33.9278 12.2772L36.7802 23.0884H40.7577ZM51.701 4.17883H55.115V0.321089H44.4292V4.17883H47.8432V23.0884H51.701V4.17883ZM70.2679 18.0577V0.321089H66.4102V18.0577C66.4102 18.455 66.2524 18.8359 65.9715 19.1168C65.6906 19.3977 65.3096 19.5555 64.9124 19.5555C64.5152 19.5555 64.1342 19.3977 63.8533 19.1168C63.5724 18.8359 63.4146 18.455 63.4146 18.0577V0.321089H59.5615V18.0577C59.5802 19.4652 60.1523 20.8088 61.1542 21.7975C62.1561 22.7862 63.5071 23.3406 64.9147 23.3406C66.3223 23.3406 67.6733 22.7862 68.6752 21.7975C69.6771 20.8088 70.2493 19.4652 70.2679 18.0577ZM82.5311 23.0884H86.8026V0.321089H82.9448V12.7368L79.0412 0.321089H75.1844V23.0884H79.0403V11.9346L82.5311 23.0884ZM95.7023 19.2316V13.3285H99.2782V9.47258H95.7041V4.17883H101.251V0.321089H91.8473V23.0884H101.251V19.2316H95.7023Z" fill="white" fill-opacity="0.4"/>
</svg>
