<svg width="102" height="40" viewBox="0 0 102 40" fill="none" xmlns="http://www.w3.org/2000/svg">
<path d="M100.506 33.8674H99.9737L100.177 32.4632L100.222 31.9128H100.256L100.3 32.4632L100.506 33.8674ZM101.255 34.9907L100.553 31.0469H99.9344L99.2426 34.9907H99.8286L99.911 34.371H100.578L100.671 34.9907H101.255ZM98.6987 31.0487H98.1258V34.9973H98.6875L98.6987 31.0487ZM96.8939 34.3495C96.8927 34.3865 96.8776 34.4216 96.8515 34.4478C96.8255 34.4741 96.7904 34.4895 96.7535 34.4909H96.2761V31.5608H96.7535C96.7901 31.5626 96.8248 31.578 96.8508 31.6039C96.8767 31.6299 96.8921 31.6646 96.8939 31.7012V34.3495ZM96.8939 34.9973C97.0351 34.997 97.1713 34.9451 97.2768 34.8513C97.3344 34.7983 97.3803 34.7339 97.4116 34.6622C97.4429 34.5904 97.4588 34.5129 97.4584 34.4347V31.6207C97.4567 31.4723 97.397 31.3304 97.292 31.2254C97.187 31.1205 97.0451 31.0607 96.8967 31.059H95.7144V35.001L96.8939 34.9973ZM95.0104 34.9973V31.0534H94.4488V32.2582L94.5499 33.8702H94.5152L94.3851 33.3085L93.6596 31.0562H93.0979V34.9982H93.6596V33.7813L93.566 32.1833H93.6006L93.7336 32.745L94.4544 34.9973H95.0104ZM92.3893 31.0553H91.8276V34.9973H92.3893V31.0553Z" fill="white" fill-opacity="0.4"/>
<path d="M4.44946 11.1788H9.99783V7.32109H0.595459V30.0884H4.44946V20.3285H8.0273V16.4726H4.44946V11.1788ZM20.6087 25.0577C20.6087 25.455 20.4509 25.8359 20.17 26.1168C19.8891 26.3977 19.5082 26.5555 19.1109 26.5555C18.7137 26.5555 18.3327 26.3977 18.0518 26.1168C17.771 25.8359 17.6132 25.455 17.6132 25.0577V12.3518C17.6132 11.9545 17.771 11.5736 18.0518 11.2927C18.3327 11.0118 18.7137 10.854 19.1109 10.854C19.5082 10.854 19.8891 11.0118 20.17 11.2927C20.4509 11.5736 20.6087 11.9545 20.6087 12.3518V25.0577ZM24.4665 25.0577V12.3518C24.4663 11.6487 24.3277 10.9525 24.0585 10.303C23.7893 9.65353 23.3947 9.06344 22.8974 8.56645C22.4 8.06947 21.8097 7.67533 21.16 7.40656C20.5103 7.13778 19.814 6.99963 19.1109 7C17.692 6.99975 16.331 7.56313 15.3274 8.56624C14.3237 9.56934 13.7596 10.93 13.7592 12.349V25.0577C13.7854 26.46 14.3609 27.796 15.3618 28.7785C16.3628 29.7609 17.7093 30.3113 19.1119 30.3113C20.5144 30.3113 21.8609 29.7609 22.8619 28.7785C23.8629 27.796 24.4384 26.46 24.4646 25.0577M40.7577 30.0884L38.1366 21.0577C39.4818 20.028 40.2157 18.4057 40.2157 16.158H40.2288V12.437H40.2157C40.1566 11.0611 39.5688 9.76107 38.5747 8.80797C37.5806 7.85487 36.257 7.32223 34.8799 7.32109H29.544V30.0884H33.3998V11.1788H34.8827C35.2799 11.1788 35.6609 11.3366 35.9418 11.6175C36.2226 11.8984 36.3804 12.2794 36.3804 12.6766V16.2273C36.3804 18.8363 33.9278 19.2772 33.9278 19.2772L36.7802 30.0884H40.7577ZM51.701 11.1788H55.115V7.32109H44.4292V11.1788H47.8432V30.0884H51.701V11.1788ZM70.2679 25.0577V7.32109H66.4102V25.0577C66.4102 25.455 66.2524 25.8359 65.9715 26.1168C65.6906 26.3977 65.3096 26.5555 64.9124 26.5555C64.5152 26.5555 64.1342 26.3977 63.8533 26.1168C63.5724 25.8359 63.4146 25.455 63.4146 25.0577V7.32109H59.5615V25.0577C59.5802 26.4652 60.1523 27.8088 61.1542 28.7975C62.1561 29.7862 63.5071 30.3406 64.9147 30.3406C66.3223 30.3406 67.6733 29.7862 68.6752 28.7975C69.6771 27.8088 70.2493 26.4652 70.2679 25.0577ZM82.5311 30.0884H86.8026V7.32109H82.9448V19.7368L79.0412 7.32109H75.1844V30.0884H79.0403V18.9346L82.5311 30.0884ZM95.7023 26.2316V20.3285H99.2782V16.4726H95.7041V11.1788H101.251V7.32109H91.8473V30.0884H101.251V26.2316H95.7023Z" fill="white" fill-opacity="0.4"/>
</svg>
