<svg width="126" height="40" viewBox="0 0 126 40" fill="none" xmlns="http://www.w3.org/2000/svg">
<g opacity="0.4">
<path d="M45.6777 23.8418C45.3561 23.8418 44.8247 23.8691 44.73 23.8691C44.7232 23.8691 44.1943 23.8418 43.7746 23.8418C43.6484 23.8418 43.5938 23.8597 43.5938 23.9211C43.5938 23.9825 43.6441 23.9919 43.7371 23.9919C43.8373 23.9932 43.9373 24.0012 44.0365 24.0158C44.3137 24.0747 44.3777 24.2129 44.3973 24.4935C44.4093 24.7596 44.4093 24.9917 44.4093 26.2618V27.3067C44.4093 28.1597 44.3871 28.9155 43.9273 29.377C43.6157 29.6684 43.2032 29.8275 42.7766 29.8206C42.3995 29.8372 42.0292 29.7159 41.7351 29.4793C41.329 29.1467 41.0842 28.6366 41.0842 27.4321V26.2618C41.0842 24.9917 41.0842 24.7596 41.0996 24.4935C41.1183 24.1992 41.1849 24.0619 41.4058 24.0158C41.4871 24.003 41.5692 23.995 41.6515 23.9919C41.7368 23.9919 41.7871 23.9774 41.7871 23.9211C41.7871 23.8648 41.7274 23.8418 41.6029 23.8418C41.3026 23.8418 40.7788 23.8691 40.5792 23.8691C40.3233 23.8691 39.803 23.8418 39.362 23.8418C39.2357 23.8418 39.1794 23.8597 39.1794 23.9211C39.1794 23.9825 39.2264 23.9919 39.3202 23.9919C39.4284 23.9924 39.5364 24.0004 39.6435 24.0158C39.9207 24.0747 39.9847 24.2129 40.0035 24.4935C40.0197 24.7596 40.0197 24.9917 40.0197 26.2618V27.4773C40.0197 28.6878 40.3395 29.3045 40.7618 29.6883C41.37 30.2377 42.1744 30.2624 42.6128 30.2624C43.1545 30.2624 43.7567 30.1711 44.3496 29.6653C45.0507 29.0682 45.1411 28.0796 45.1411 27.154V26.2618C45.1411 24.9917 45.1411 24.7596 45.1548 24.4935C45.1744 24.1992 45.2401 24.0619 45.4661 24.0158C45.546 24.0027 45.6267 23.9948 45.7075 23.9919C45.8048 23.9919 45.8568 23.9774 45.8568 23.9211C45.8568 23.8648 45.8014 23.8418 45.6802 23.8418" fill="white"/>
<path d="M56.6636 23.8428C56.2516 23.8428 55.936 23.8701 55.8481 23.8701C55.6681 23.8701 55.2706 23.8428 54.8364 23.8428C54.7102 23.8428 54.6189 23.8539 54.6189 23.9221C54.6189 23.9724 54.6505 23.9929 54.7486 23.9929C54.8982 23.985 55.0481 24.002 55.1921 24.0432C55.3926 24.1285 55.4685 24.288 55.4779 24.7981L55.5632 28.5386H55.5257C55.3815 28.4089 54.2581 27.2062 53.69 26.6389C52.4685 25.4302 51.2043 24.0705 51.1045 23.9648C50.9629 23.8129 50.8887 23.7012 50.7966 23.7012C50.7044 23.7012 50.6857 23.8214 50.6857 23.9844L50.6149 28.9216C50.6021 29.6484 50.5688 29.8923 50.3547 29.9538C50.2322 29.9856 50.1059 30 49.9794 29.9964C49.8941 29.9964 49.8489 30.0186 49.8489 30.0638C49.8489 30.144 49.9205 30.1491 50.0323 30.1491C50.4588 30.1491 50.8563 30.1252 50.9288 30.1252C51.0866 30.1252 51.4184 30.1491 51.9626 30.1491C52.0804 30.1491 52.158 30.132 52.158 30.0638C52.158 30.0186 52.1042 29.9964 52.0104 29.9964C51.8641 30.0015 51.718 29.9825 51.5779 29.9401C51.4124 29.8812 51.299 29.6654 51.2888 29.0171L51.1932 25.5164H51.2163C51.3672 25.6733 52.2936 26.7157 53.2038 27.6165C54.067 28.4763 55.1324 29.5725 55.663 30.0681C55.7534 30.161 55.8532 30.2557 55.9428 30.2557C56.0179 30.2557 56.0571 30.1781 56.0571 29.9947L56.1424 24.7325C56.1526 24.2642 56.2192 24.0884 56.4537 24.0211C56.5348 24.0021 56.618 23.994 56.7011 23.9972C56.8043 23.9972 56.8521 23.9767 56.8521 23.9264C56.8521 23.8581 56.7668 23.847 56.6619 23.847" fill="white"/>
<path d="M63.8741 29.9954C63.7332 29.9926 63.5926 29.9826 63.4527 29.9656C63.1968 29.934 63.1431 29.7822 63.1158 29.5553C63.0825 29.2004 63.0825 28.5376 63.0825 27.7281V26.2618C63.0825 24.9917 63.0825 24.7596 63.0962 24.4935C63.1158 24.1992 63.1815 24.0619 63.4067 24.0158C63.4895 24.0032 63.5729 23.9953 63.6566 23.9919C63.7419 23.9919 63.7914 23.9774 63.7914 23.9126C63.7914 23.8478 63.7265 23.8418 63.6208 23.8418C63.2992 23.8418 62.8061 23.8691 62.5971 23.8691C62.3574 23.8691 61.8294 23.8418 61.5155 23.8418C61.3825 23.8418 61.3176 23.8597 61.3176 23.9126C61.3176 23.9655 61.3705 23.9919 61.4516 23.9919C61.5521 23.9922 61.6523 24.0042 61.7501 24.0278C61.9318 24.0696 62.0162 24.2129 62.0333 24.4935C62.0512 24.7596 62.0512 24.9917 62.0512 26.2618V27.7281C62.0512 28.5376 62.0512 29.2004 62.0077 29.5493C61.9821 29.7856 61.9318 29.934 61.7689 29.9656C61.6696 29.9846 61.5688 29.9946 61.4678 29.9954C61.3705 29.9954 61.3347 30.0244 61.3347 30.0628C61.3347 30.1225 61.3927 30.1481 61.5053 30.1481C61.8328 30.1481 62.3583 30.1234 62.5588 30.1234C62.7788 30.1234 63.3017 30.1481 63.8536 30.1481C63.9449 30.1481 64.0131 30.1234 64.0131 30.0628C64.0131 30.0244 63.9705 29.9954 63.8784 29.9954" fill="white"/>
<path d="M74.1231 23.8457C73.8672 23.8457 73.4825 23.8687 73.3392 23.8687C73.2291 23.8687 72.8803 23.8457 72.4657 23.8457C72.3045 23.8457 72.2277 23.8593 72.2277 23.9242C72.2277 23.989 72.2951 23.9916 72.3685 23.9916C72.4813 23.9904 72.5938 24.0045 72.7028 24.0334C72.7357 24.045 72.7642 24.0665 72.7845 24.0949C72.8048 24.1233 72.8159 24.1572 72.8163 24.192C72.8041 24.298 72.7786 24.402 72.7404 24.5017C72.5391 25.0527 71.4549 27.7346 71.0949 28.6541H71.0642L69.626 24.8685C69.5109 24.5665 69.435 24.3353 69.435 24.2279C69.4334 24.1945 69.4404 24.1613 69.4554 24.1314C69.4703 24.1016 69.4926 24.076 69.5203 24.0572C69.6212 24.0073 69.7339 23.9861 69.8461 23.9958C69.922 23.9958 69.9749 23.9813 69.9749 23.925C69.9749 23.8687 69.8794 23.85 69.7787 23.85C69.3641 23.85 68.9675 23.873 68.7551 23.873C68.46 23.873 67.9874 23.85 67.5472 23.85C67.4218 23.85 67.3306 23.8568 67.3306 23.925C67.3306 23.9754 67.3527 23.9958 67.4287 23.9958C67.5373 23.9927 67.6458 24.0047 67.7511 24.0317C68.0531 24.1118 68.1964 24.2023 68.3866 24.6654L70.4944 29.7622C70.6462 30.1503 70.6983 30.274 70.804 30.274C70.9234 30.274 70.9746 30.1367 71.1913 29.6539C71.373 29.2384 71.7654 28.3274 72.3002 27.111C72.7515 26.0874 72.9826 25.6328 73.2991 24.8523C73.5277 24.314 73.6514 24.1775 73.7589 24.0982C73.8828 24.0252 74.0256 23.9905 74.1692 23.9984C74.2545 23.9984 74.3031 23.9839 74.3031 23.9276C74.3031 23.8713 74.2383 23.8525 74.1325 23.8525" fill="white"/>
<path d="M81.8318 28.8809C81.7712 28.8809 81.7465 28.9133 81.7354 29.0055C81.674 29.3467 81.5793 29.5173 81.3661 29.623C81.1528 29.7288 80.7954 29.7245 80.577 29.7245C79.724 29.7245 79.5943 29.5983 79.5773 29.0157C79.5687 28.7794 79.5773 28.0108 79.5773 27.7276V27.07C79.5773 27.0222 79.5773 26.9847 79.6285 26.9847C79.8272 26.9847 80.6521 26.9932 80.8107 27.0154C81.1204 27.0461 81.2372 27.1698 81.2773 27.3378C81.2981 27.4363 81.3095 27.5366 81.3115 27.6372C81.3115 27.6782 81.3234 27.714 81.3848 27.714C81.4599 27.714 81.4599 27.6287 81.4599 27.5562C81.4599 27.4837 81.4838 27.1604 81.4949 26.9932C81.5281 26.5718 81.5597 26.4353 81.5597 26.3876C81.5597 26.3398 81.5341 26.321 81.5059 26.321C81.4599 26.321 81.4283 26.3637 81.3686 26.4302C81.2935 26.5104 81.169 26.5377 80.9668 26.5573C80.7792 26.5718 79.8187 26.5718 79.6344 26.5718C79.5815 26.5718 79.5773 26.5377 79.5773 26.478V24.371C79.5773 24.3071 79.5943 24.2857 79.6344 24.2857C79.805 24.2857 80.6777 24.3028 80.8184 24.3164C81.2364 24.3702 81.3183 24.4683 81.3746 24.6193C81.4119 24.7152 81.4302 24.8175 81.4283 24.9204C81.4283 24.9912 81.4462 25.0355 81.5059 25.0355C81.5657 25.0355 81.5793 24.9835 81.5853 24.9434C81.6015 24.8445 81.6185 24.4743 81.6245 24.3924C81.6518 24.0094 81.691 23.9113 81.691 23.8516C81.691 23.8106 81.691 23.7773 81.6458 23.7773C81.6002 23.7824 81.5554 23.7936 81.5128 23.8106C81.4462 23.8234 81.3115 23.8405 81.1528 23.8584C80.9941 23.8763 79.3359 23.8678 79.0672 23.8678C78.9486 23.8678 78.7592 23.8584 78.5383 23.8516C78.3336 23.8516 78.0888 23.8405 77.8678 23.8405C77.7416 23.8405 77.687 23.8584 77.687 23.9198C77.687 23.9812 77.7339 23.9906 77.8252 23.9906C77.9334 23.991 78.0414 23.999 78.1485 24.0145C78.424 24.0733 78.4897 24.2115 78.5093 24.4922C78.5238 24.7583 78.5238 24.9912 78.5238 26.2605V27.7268C78.5238 28.4945 78.5238 29.1581 78.4829 29.507C78.447 29.7493 78.4061 29.9335 78.2398 29.9642C78.1415 29.9839 78.0415 29.9939 77.9412 29.9941C77.8414 29.9941 77.8098 30.0231 77.8098 30.0615C77.8098 30.122 77.8678 30.1468 77.9745 30.1468C78.1451 30.1468 78.3549 30.1297 78.5511 30.1297C78.7473 30.1297 78.9358 30.1229 79.0288 30.1229C79.277 30.1229 79.5312 30.1297 79.892 30.1468C80.2529 30.1638 80.7109 30.1724 81.3362 30.1724C81.6518 30.1724 81.7252 30.1724 81.7874 29.9523C81.8464 29.6475 81.882 29.3387 81.8941 29.0285C81.8941 28.9432 81.8941 28.8809 81.8318 28.8809Z" fill="white"/>
<path d="M92.7666 29.9969C92.6883 29.996 92.6102 29.9898 92.5329 29.9781C92.4083 29.9525 92.0654 29.8928 91.6014 29.4066C91.1075 28.8948 90.5334 28.1493 89.7887 27.2169C90.6332 26.5345 90.8976 25.9604 90.8976 25.3403C90.8969 25.119 90.8452 24.9009 90.7465 24.7028C90.6478 24.5047 90.5049 24.332 90.3287 24.1981C89.8766 23.8936 89.3187 23.8398 88.7933 23.8398C88.5374 23.8398 87.9019 23.8671 87.6178 23.8671C87.4472 23.8671 86.9166 23.8398 86.4773 23.8398C86.3511 23.8398 86.2922 23.8578 86.2922 23.9192C86.2922 23.9806 86.3426 23.99 86.4355 23.99C86.5446 23.9904 86.6535 23.9984 86.7614 24.0139C87.0344 24.0727 87.1026 24.2109 87.1214 24.4915C87.1359 24.7577 87.1359 24.9906 87.1359 26.2598V27.7262C87.1359 28.4939 87.1359 29.1575 87.0924 29.5064C87.0634 29.7487 87.0199 29.9329 86.8527 29.9636C86.7538 29.9833 86.6532 29.9933 86.5524 29.9935C86.4526 29.9935 86.421 30.0225 86.421 30.0609C86.421 30.1214 86.4773 30.1462 86.5831 30.1462C86.9166 30.1462 87.4464 30.1223 87.6008 30.1223C87.7279 30.1223 88.342 30.1462 88.8274 30.1462C88.9323 30.1462 88.998 30.1223 88.998 30.0609C88.998 30.0225 88.9673 29.9935 88.8982 29.9935C88.7967 29.9935 88.6175 29.9781 88.4887 29.9636C88.2328 29.9321 88.1885 29.7487 88.1646 29.5064C88.1211 29.1575 88.1211 28.4939 88.1211 27.7151V27.5965C88.1211 27.5504 88.1458 27.5317 88.1885 27.5317L88.917 27.5504C88.9443 27.5478 88.9719 27.5513 88.9976 27.561C89.0233 27.5706 89.0465 27.5859 89.0654 27.6059C89.1746 27.7355 89.5541 28.3002 89.8885 28.7609C90.3568 29.3998 90.6759 29.7845 91.0299 29.9841C91.2491 30.1052 91.4564 30.1419 91.923 30.1419H92.7171C92.8186 30.1419 92.8732 30.1248 92.8732 30.0566C92.8732 30.0182 92.8442 29.9892 92.7743 29.9892M89.4228 27.0088C89.2769 27.1154 89.1669 27.147 88.8308 27.147C88.6168 27.149 88.4037 27.1203 88.1979 27.0617C88.1382 27.0369 88.1211 27.0062 88.1211 26.9124V24.3858C88.1211 24.3192 88.1382 24.2885 88.1979 24.2681C88.3439 24.2419 88.4923 24.2313 88.6406 24.2365C89.1319 24.2365 89.9141 24.5777 89.9141 25.7625C89.9141 26.4449 89.6736 26.8279 89.4228 27.0165" fill="white"/>
<path d="M98.1388 26.3408L97.9033 26.1702C97.2124 25.6422 97.0188 25.3462 97.0188 24.9641C97.0188 24.4685 97.3992 24.1059 98.0108 24.1059C98.5593 24.1059 98.7973 24.355 98.9244 24.5188C99.0473 24.676 99.1211 24.8658 99.1368 25.0647C99.1368 25.1688 99.1641 25.2157 99.2221 25.2157C99.2801 25.2157 99.3074 25.1509 99.3074 24.9598C99.3074 24.3115 99.3424 24.0727 99.3424 23.9652C99.3424 23.9021 99.3014 23.8799 99.2264 23.8628C98.8631 23.7657 98.4883 23.7187 98.1123 23.7229C96.9608 23.7229 96.1939 24.378 96.1939 25.2976C96.1939 25.9732 96.5104 26.5515 97.4239 27.2732L97.8069 27.5726C98.4979 28.1125 98.6301 28.4972 98.6301 28.9075C98.6301 29.3477 98.2582 29.8569 97.5084 29.8569C96.9915 29.8569 96.4984 29.6343 96.3142 29.0193C96.2724 28.8806 96.2472 28.7374 96.2391 28.5928C96.2391 28.5279 96.2323 28.4495 96.1581 28.4495C96.0839 28.4495 96.0659 28.5433 96.054 28.6687C96.0421 28.7941 96.0105 29.3008 96.0105 29.7588C96.0105 29.9465 96.0395 29.9849 96.1709 30.0446C96.53 30.2024 96.9045 30.2595 97.3932 30.2595C97.8291 30.2595 98.2974 30.1853 98.7163 29.9183C98.96 29.7642 99.1597 29.5497 99.296 29.2956C99.4323 29.0415 99.5006 28.7565 99.4942 28.4682C99.4942 27.6749 99.1428 27.1034 98.1294 26.3357" fill="white"/>
<path d="M106.653 29.9954C106.528 29.9954 106.343 29.9792 106.226 29.9656C105.978 29.934 105.919 29.7822 105.898 29.5553C105.862 29.2004 105.862 28.5376 105.862 27.7281V26.2618C105.862 24.9917 105.862 24.7596 105.879 24.4935C105.898 24.1992 105.964 24.0619 106.187 24.0158C106.269 24.0031 106.351 23.9951 106.434 23.9919C106.519 23.9919 106.568 23.9774 106.568 23.9126C106.568 23.8478 106.503 23.8418 106.398 23.8418C106.078 23.8418 105.587 23.8691 105.381 23.8691C105.134 23.8691 104.613 23.8418 104.294 23.8418C104.163 23.8418 104.09 23.8597 104.09 23.9126C104.09 23.9655 104.144 23.9919 104.229 23.9919C104.329 23.9921 104.43 24.0041 104.528 24.0278C104.713 24.0696 104.797 24.2129 104.817 24.4935C104.826 24.7596 104.826 24.9917 104.826 26.2618V27.7281C104.826 28.5376 104.826 29.2004 104.789 29.5493C104.765 29.7856 104.713 29.934 104.544 29.9656C104.446 29.9852 104.345 29.9952 104.245 29.9954C104.144 29.9954 104.112 30.0244 104.112 30.0628C104.112 30.1225 104.165 30.1481 104.282 30.1481C104.615 30.1481 105.135 30.1234 105.329 30.1234C105.555 30.1234 106.079 30.1481 106.63 30.1481C106.721 30.1481 106.788 30.1234 106.788 30.0628C106.788 30.0244 106.751 29.9954 106.657 29.9954" fill="white"/>
<path d="M116.249 23.7823C116.173 23.7927 116.098 23.8069 116.023 23.8249C115.832 23.8562 115.64 23.871 115.446 23.8693H112.145C111.867 23.8693 111.589 23.8545 111.313 23.8249C111.106 23.8121 111.019 23.7285 110.953 23.7285C110.902 23.7285 110.875 23.7788 110.857 23.8846C110.838 23.9512 110.681 24.7086 110.681 24.846C110.681 24.9313 110.695 24.9748 110.753 24.9748C110.811 24.9748 110.828 24.9449 110.847 24.8741C110.876 24.7704 110.923 24.6729 110.988 24.5866C111.111 24.3998 111.313 24.3614 111.795 24.3401L113.038 24.3077V27.7283C113.038 28.496 113.038 29.1596 112.996 29.5085C112.974 29.7508 112.921 29.9299 112.758 29.9657C112.659 29.9847 112.558 29.9947 112.457 29.9956C112.355 29.9956 112.323 30.0246 112.323 30.0638C112.323 30.1227 112.379 30.1491 112.488 30.1491C112.823 30.1491 113.349 30.1244 113.537 30.1244C113.771 30.1244 114.299 30.1491 114.851 30.1491C114.936 30.1491 115.01 30.1244 115.01 30.0638C115.01 30.0246 114.966 29.9956 114.871 29.9956C114.747 29.9956 114.565 29.9794 114.444 29.9657C114.194 29.9299 114.145 29.7508 114.118 29.5171C114.078 29.1596 114.078 28.4934 114.078 27.7257V24.3052L115.126 24.3333C115.872 24.3495 116.095 24.5841 116.113 24.7965L116.121 24.8903C116.131 25.02 116.148 25.0567 116.206 25.0567C116.265 25.0567 116.275 25.0106 116.282 24.9261C116.282 24.7061 116.31 24.1328 116.31 23.9537C116.31 23.8317 116.299 23.7831 116.241 23.7831" fill="white"/>
<path d="M125.756 23.8457C125.599 23.8457 125.044 23.8687 124.864 23.8687C124.619 23.8687 124.353 23.8457 124.08 23.8457C123.978 23.8457 123.937 23.8594 123.937 23.9208C123.937 23.9822 124.011 23.983 124.086 24.0061C124.136 24.0115 124.182 24.0362 124.214 24.0749C124.246 24.1137 124.261 24.1634 124.257 24.2134C124.25 24.3641 124.21 24.5116 124.141 24.6458C124.023 24.9017 122.975 26.7383 122.895 26.9387C122.758 26.7059 121.585 24.6927 121.469 24.4479C121.42 24.3583 121.387 24.2611 121.371 24.1605C121.371 24.1265 121.383 24.0936 121.403 24.0665C121.423 24.0394 121.452 24.0197 121.485 24.0103C121.614 23.9788 121.677 23.9728 121.677 23.925C121.677 23.8773 121.631 23.85 121.55 23.85C121.172 23.85 120.828 23.873 120.657 23.873C120.379 23.873 119.752 23.85 119.605 23.85C119.508 23.85 119.443 23.873 119.443 23.925C119.443 23.9771 119.508 23.9958 119.571 23.9958C119.694 24.0056 119.814 24.0435 119.921 24.1067C120.082 24.192 120.289 24.4036 120.496 24.7124C120.788 25.1474 121.909 26.9873 121.966 27.1187C122.101 27.3882 122.166 27.6874 122.155 27.9888V28.6712C122.155 28.8051 122.155 29.1574 122.132 29.5063C122.113 29.7485 122.042 29.9277 121.876 29.9635C121.78 29.9853 121.682 29.9953 121.584 29.9934C121.486 29.9934 121.449 30.0224 121.449 30.0607C121.449 30.1281 121.515 30.146 121.632 30.146C121.947 30.146 122.467 30.1222 122.673 30.1222C122.898 30.1222 123.429 30.146 123.952 30.146C124.059 30.146 124.123 30.1222 124.123 30.0607C124.123 30.0224 124.083 29.9934 123.989 29.9934C123.85 29.9931 123.712 29.9831 123.575 29.9635C123.326 29.9277 123.25 29.7485 123.233 29.5063C123.211 29.1574 123.211 28.8051 123.211 28.6712V27.9888C123.211 27.7175 123.211 27.4608 123.335 27.1545C123.489 26.8022 124.657 24.8378 124.933 24.5102C125.118 24.2867 125.207 24.1869 125.382 24.0999C125.496 24.0412 125.622 24.0072 125.75 24.0001C125.835 24.0001 125.903 23.9796 125.903 23.9148C125.903 23.8662 125.849 23.8525 125.756 23.8525" fill="white"/>
<path d="M49.244 15.501C49.244 15.3893 49.1434 15.3586 48.9659 15.3586C48.5019 15.3586 47.7606 15.3995 47.3299 15.3995C46.9119 15.3995 46.0307 15.3586 45.3057 15.3586C45.1112 15.3586 45.0105 15.3893 45.0105 15.501C45.0105 15.5812 45.0958 15.6077 45.2195 15.6077C45.4021 15.604 45.5845 15.6174 45.7646 15.6478C46.2286 15.7484 46.3506 15.9745 46.3617 16.4453C46.3762 16.8659 46.3762 17.3939 46.3762 18.095V19.4087C46.3762 19.6433 46.3233 19.8275 46.1143 19.9205C45.7774 20.0749 45.286 20.0749 44.9252 20.0749C41.9764 20.0749 40.0631 17.8263 40.0631 14.822C40.0631 13.1058 40.5655 12.06 41.3426 11.4006C42.321 10.5894 43.3463 10.5357 44.114 10.5357C45.6853 10.5357 46.8061 11.1771 47.2249 11.6275C47.5866 12.0156 47.6574 12.4626 47.6984 12.7842C47.7112 12.8976 47.7376 12.965 47.8383 12.965C47.9389 12.965 47.9927 12.8976 47.9927 12.6725C47.9927 10.9263 48.0916 10.5357 48.0916 10.383C48.0916 10.2874 48.0652 10.2303 47.8929 10.2124C47.5225 10.1849 47.1544 10.1333 46.7908 10.058C45.9724 9.92655 45.1458 9.85301 44.317 9.83789C43.1433 9.83789 41.9013 9.93343 40.5638 10.7463C39.2911 11.5141 38.1335 13.0785 38.1335 15.3117C38.1335 19.1647 41.1634 20.7863 44.59 20.7863C45.6725 20.7863 47.045 20.6336 47.9517 20.1593C48.1223 20.0604 48.1308 20.0322 48.1308 19.6526V18.1172C48.1308 17.4203 48.1308 16.8616 48.1505 16.4411C48.1641 15.9531 48.3023 15.7168 48.6793 15.6435C48.8027 15.6192 48.928 15.6058 49.0538 15.6034C49.1545 15.6034 49.2389 15.577 49.2389 15.4968" fill="white"/>
<path d="M60.1653 20.3428C59.9677 20.3427 59.7706 20.3233 59.5767 20.2848C59.2858 20.2157 58.879 20.0229 58.3518 18.7647C57.4561 16.6407 55.2212 10.9435 54.8869 10.1749C54.7453 9.85501 54.6625 9.73047 54.5363 9.73047C54.3955 9.73047 54.3145 9.88145 54.1482 10.2892L50.6363 19.059C50.3616 19.7576 50.0938 20.2302 49.4515 20.3172C49.3414 20.3274 49.1435 20.3428 49.025 20.3428C48.9064 20.3428 48.8501 20.3709 48.8501 20.4528C48.8501 20.568 48.9397 20.5978 49.1205 20.5978C49.8498 20.5978 50.6141 20.5509 50.7711 20.5509C51.1976 20.5509 51.8032 20.5978 52.2468 20.5978C52.4012 20.5978 52.4865 20.568 52.4865 20.4528C52.4865 20.3675 52.4455 20.3428 52.2801 20.3428H52.0668C51.6403 20.3428 51.5089 20.1628 51.5089 19.9095C51.533 19.6157 51.6041 19.3276 51.7196 19.0564L52.4711 17.0578C52.4993 16.9725 52.5283 16.9452 52.5957 16.9452H55.7126C55.7435 16.9429 55.7743 16.9515 55.7997 16.9694C55.825 16.9873 55.8434 17.0134 55.8516 17.0433L56.9699 20.005C56.9849 20.0337 56.9937 20.0652 56.9956 20.0975C56.9975 20.1298 56.9925 20.1622 56.981 20.1924C56.9694 20.2226 56.9516 20.2501 56.9287 20.2729C56.9057 20.2958 56.8782 20.3135 56.8479 20.3249C56.7004 20.3402 56.65 20.3684 56.65 20.4503C56.65 20.5484 56.8155 20.5484 57.0646 20.5654C58.1829 20.5953 59.1971 20.5953 59.7089 20.5953C60.2208 20.5953 60.3513 20.5654 60.3513 20.4503C60.3513 20.3547 60.2813 20.3402 60.1704 20.3402M55.4464 16.2458H52.8755C52.8217 16.2458 52.8064 16.2031 52.8217 16.1485L54.1012 12.7117C54.1149 12.6563 54.1456 12.5855 54.1865 12.5855C54.2275 12.5855 54.2428 12.6563 54.2556 12.7117L55.5155 16.1622C55.5292 16.2031 55.5155 16.2475 55.4422 16.2475" fill="white"/>
<path d="M67.5958 20.2599C67.705 19.8547 67.8014 18.8097 67.8014 18.6536C67.8014 18.4975 67.792 18.4182 67.6956 18.4182C67.5788 18.4182 67.5523 18.5035 67.5395 18.6263C67.4932 18.9321 67.3679 19.2205 67.1761 19.4631C66.8238 19.8402 66.283 19.8547 65.5392 19.8547C64.4533 19.8547 64.0891 19.7583 63.8511 19.5459C63.5594 19.2959 63.5594 18.3329 63.5594 16.5458V14.0858C63.5594 11.9618 63.5594 11.5745 63.585 11.1284C63.6157 10.6387 63.7266 10.3999 64.1044 10.3316C64.2844 10.3053 64.466 10.2919 64.6478 10.2916C64.8184 10.2916 64.8986 10.2617 64.8986 10.1645C64.8986 10.0672 64.8039 10.0391 64.606 10.0391C64.0609 10.0391 63.0399 10.0774 62.7072 10.0774C62.3293 10.0774 61.4507 10.0391 60.7939 10.0391C60.5806 10.0391 60.4868 10.0638 60.4868 10.1645C60.4868 10.2651 60.567 10.2916 60.7257 10.2916C60.8791 10.288 61.0324 10.3014 61.1829 10.3316C61.6478 10.4289 61.7544 10.6541 61.7842 11.1284C61.815 11.5745 61.815 11.9618 61.815 14.0858V16.5475C61.815 17.8313 61.815 18.936 61.7442 19.5211C61.6853 19.9263 61.6171 20.2326 61.3373 20.2889C61.173 20.3296 61.0041 20.3491 60.8348 20.3469C60.6642 20.3469 60.6105 20.3869 60.6105 20.4569C60.6105 20.555 60.7129 20.6019 60.8903 20.6019C61.1735 20.6019 61.5369 20.5721 61.855 20.5721C62.186 20.555 62.4948 20.555 62.6518 20.555C63.225 20.555 63.7266 20.5721 64.3578 20.6019C64.9847 20.613 65.7124 20.6411 66.7164 20.6411C67.4457 20.6411 67.5131 20.5721 67.5975 20.2633" fill="white"/>
<path d="M78.6671 19.6567V18.1212C78.6671 17.4243 78.6671 16.8656 78.6867 16.4459C78.6978 15.9572 78.8343 15.7209 79.2147 15.6475C79.3399 15.6233 79.4669 15.6099 79.5943 15.6074C79.6907 15.6074 79.7709 15.5801 79.7709 15.4999C79.7709 15.3882 79.6779 15.3592 79.4928 15.3592C79.0356 15.3592 78.2986 15.3993 77.8601 15.3993C77.4396 15.3993 76.5618 15.3592 75.8376 15.3592C75.6423 15.3592 75.5425 15.3882 75.5425 15.4999C75.5425 15.5801 75.6278 15.6074 75.7506 15.6074C75.9329 15.6036 76.1151 15.617 76.2949 15.6475C76.7546 15.7482 76.8834 15.9742 76.892 16.4459C76.9073 16.8656 76.9073 17.3936 76.9073 18.0948V19.4084C76.9073 19.643 76.851 19.8281 76.6403 19.9202C76.3068 20.0738 75.8155 20.0738 75.4538 20.0738C72.5075 20.0738 70.5916 17.8252 70.5916 14.8209C70.5916 13.1047 71.0923 12.0589 71.8763 11.4004C72.8547 10.5883 73.8723 10.5346 74.6383 10.5346C76.2181 10.5346 77.3364 11.176 77.7518 11.6264C78.1203 12.0145 78.1877 12.4615 78.2286 12.7831C78.2414 12.8965 78.273 12.9639 78.3694 12.9639C78.482 12.9639 78.5255 12.8965 78.5255 12.6714C78.5255 10.9252 78.6227 10.5346 78.6227 10.3819C78.6227 10.2855 78.592 10.2292 78.4223 10.2113C78.0524 10.1824 77.6846 10.1308 77.321 10.0569C76.5045 9.92433 75.6795 9.8505 74.8524 9.83594C73.677 9.83594 72.4341 9.93148 71.0923 10.7435C69.8231 11.5113 68.6604 13.0765 68.6604 15.3097C68.6604 19.1628 71.6929 20.7852 75.1143 20.7852C76.2036 20.7852 77.5727 20.6317 78.482 20.1582C78.6526 20.0584 78.6594 20.0303 78.6594 19.6507" fill="white"/>
<path d="M92.4576 15.0648C92.4576 11.8651 90.2893 9.8418 86.8141 9.8418C82.6249 9.8418 81.0469 12.928 81.0469 15.3156C81.0469 17.7893 82.6676 20.7911 86.6725 20.7911C90.2244 20.7911 92.4576 18.2602 92.4576 15.0648ZM82.9696 14.8848C82.9696 11.4045 84.8018 10.5123 86.4106 10.5123C88.6984 10.5123 90.5051 12.452 90.5051 15.5809C90.5051 19.6173 88.2412 20.0933 87.2636 20.0933C84.5843 20.0933 82.9755 17.7902 82.9755 14.8848" fill="white"/>
<path d="M102.498 9.93709C102.37 9.95379 102.243 9.97829 102.118 10.0104C101.799 10.0539 101.478 10.0756 101.156 10.0753H95.6241C95.1581 10.0771 94.6923 10.0555 94.2285 10.0104C93.8813 9.98059 93.7432 9.83984 93.6314 9.83984C93.5529 9.83984 93.506 9.92514 93.4659 10.1043C93.4369 10.2143 93.1733 11.487 93.1733 11.7088C93.1733 11.8632 93.1998 11.9331 93.3004 11.9331C93.3806 11.9331 93.4241 11.8777 93.4531 11.7625C93.504 11.5876 93.5842 11.4227 93.6903 11.2746C93.8984 10.965 94.2328 10.8967 95.0457 10.8703L97.1271 10.814V16.5411C97.1271 17.8249 97.1271 18.9295 97.0554 19.5139C97.0127 19.919 96.9274 20.2261 96.6502 20.2816C96.4861 20.3218 96.3176 20.3413 96.1486 20.3396C95.978 20.3396 95.9218 20.3797 95.9218 20.4496C95.9218 20.5477 96.0207 20.5946 96.2067 20.5946C96.7611 20.5946 97.6414 20.5477 97.9613 20.5477C98.3537 20.5477 99.2348 20.5946 100.154 20.5946C100.31 20.5946 100.422 20.5477 100.422 20.4496C100.422 20.3797 100.351 20.3396 100.197 20.3396C99.9577 20.3368 99.7189 20.3174 99.4822 20.2816C99.0651 20.227 98.9832 19.9199 98.9397 19.5309C98.8672 18.9295 98.8672 17.8249 98.8672 16.5454V10.8182L100.629 10.86C101.874 10.8899 102.249 11.2789 102.278 11.6431L102.291 11.7984C102.304 12.0073 102.338 12.0764 102.446 12.0764C102.531 12.0764 102.558 11.9911 102.573 11.8504C102.573 11.4887 102.617 10.5248 102.617 10.2297C102.617 10.0181 102.6 9.93367 102.502 9.93367" fill="white"/>
<path d="M120.361 20.4296C120.958 20.6923 121.589 20.7904 122.401 20.7904C123.14 20.7904 123.927 20.665 124.619 20.2155C125.029 19.9586 125.365 19.6002 125.596 19.175C125.826 18.7498 125.943 18.2722 125.934 17.7887C125.934 16.4622 125.333 15.5 123.642 14.2265L123.254 13.9347C122.095 13.051 121.776 12.5648 121.776 11.9208C121.776 11.084 122.402 10.4852 123.436 10.4852C124.341 10.4852 124.75 10.9014 124.953 11.1676C125.167 11.4288 125.295 11.7491 125.322 12.0854C125.322 12.256 125.363 12.3371 125.461 12.3371C125.559 12.3371 125.613 12.2296 125.613 11.9199C125.613 10.8298 125.667 10.4255 125.667 10.2446C125.667 10.1457 125.601 10.1047 125.47 10.074C124.865 9.91178 124.24 9.83314 123.614 9.84029C121.672 9.84029 120.388 10.9424 120.388 12.477C120.388 13.6132 120.921 14.5873 122.454 15.7875L123.098 16.2899C124.26 17.2026 124.468 17.8415 124.468 18.5274C124.468 19.2644 123.853 20.1208 122.591 20.1208C121.724 20.1208 120.9 19.7438 120.597 18.7074C120.524 18.4764 120.48 18.237 120.468 17.9951C120.468 17.8833 120.459 17.7588 120.328 17.7588C120.22 17.7588 120.176 17.9106 120.157 18.1205C120.146 18.344 120.092 19.1808 120.092 19.951C120.092 20.2581 120.129 20.3264 120.355 20.4287" fill="white"/>
<path d="M108.235 20.3434C107.997 20.3406 107.76 20.3212 107.525 20.2854C107.106 20.2308 107.008 19.9801 106.967 19.603C106.911 19.0059 106.911 17.903 106.911 16.5467V14.0858C106.911 11.9618 106.911 11.5745 106.939 11.1284C106.967 10.6387 107.081 10.3999 107.458 10.3316C107.596 10.3063 107.736 10.2929 107.877 10.2916C108.015 10.2916 108.097 10.2617 108.097 10.1491C108.097 10.0638 107.984 10.0391 107.803 10.0391C107.273 10.0391 106.45 10.0774 106.101 10.0774C105.696 10.0774 104.814 10.0391 104.285 10.0391C104.062 10.0391 103.949 10.0647 103.949 10.1491C103.949 10.2617 104.035 10.2916 104.172 10.2916C104.343 10.2883 104.513 10.3073 104.679 10.3479C104.983 10.4135 105.12 10.6541 105.15 11.1284C105.178 11.5745 105.178 11.9618 105.178 14.0858V16.5467C105.178 17.903 105.178 19.0051 105.109 19.5902C105.068 19.9937 104.983 20.2326 104.705 20.2871C104.542 20.3271 104.374 20.3466 104.206 20.3452C104.036 20.3452 103.98 20.3852 103.98 20.4552C103.98 20.5533 104.074 20.6002 104.257 20.6002C104.814 20.6002 105.696 20.5533 106.019 20.5533C106.394 20.5533 107.273 20.6002 108.197 20.6002C108.256 20.6018 108.314 20.5902 108.368 20.5661L108.361 20.3673C108.321 20.3517 108.278 20.3436 108.235 20.3434Z" fill="white"/>
<path d="M119.622 20.3428C119.425 20.3428 119.229 20.3234 119.037 20.2848C118.739 20.2157 118.336 20.0229 117.805 18.7647C116.91 16.6407 114.675 10.9435 114.342 10.1749C114.202 9.85501 114.117 9.73047 113.992 9.73047C113.867 9.73047 113.768 9.88145 113.6 10.2892L110.096 19.059C109.817 19.7576 109.552 20.2302 108.908 20.3172C108.796 20.3274 108.603 20.3428 108.474 20.3428C108.435 20.3414 108.396 20.349 108.36 20.365L108.367 20.5637C108.432 20.5918 108.502 20.6038 108.572 20.5987C109.3 20.5987 110.066 20.5518 110.22 20.5518C110.646 20.5518 111.254 20.5987 111.701 20.5987C111.85 20.5987 111.94 20.5688 111.94 20.4537C111.94 20.3684 111.894 20.3436 111.729 20.3436H111.522C111.087 20.3436 110.961 20.1637 110.961 19.9103C110.984 19.6166 111.054 19.3285 111.169 19.0573L111.926 17.0587C111.949 16.9734 111.983 16.9461 112.048 16.9461H115.162C115.193 16.9445 115.224 16.9533 115.249 16.971C115.275 16.9888 115.294 17.0145 115.303 17.0442L116.419 20.0058C116.434 20.0345 116.444 20.0663 116.446 20.099C116.448 20.1316 116.443 20.1643 116.431 20.1948C116.419 20.2252 116.401 20.2528 116.377 20.2754C116.353 20.298 116.325 20.3152 116.294 20.3257C116.158 20.3411 116.098 20.3692 116.098 20.4511C116.098 20.5492 116.269 20.5492 116.516 20.5663C117.633 20.5961 118.654 20.5961 119.16 20.5961C119.679 20.5961 119.802 20.5663 119.802 20.4511C119.801 20.3573 119.732 20.3428 119.622 20.3428ZM114.899 16.2483H112.329C112.276 16.2483 112.258 16.2057 112.276 16.1511L113.555 12.7143C113.568 12.6589 113.598 12.5881 113.64 12.5881C113.683 12.5881 113.698 12.6589 113.711 12.7143L114.969 16.1647C114.982 16.2082 114.971 16.2509 114.897 16.2509L114.899 16.2483Z" fill="white"/>
<mask id="mask0_231_1683" style="mask-type:luminance" maskUnits="userSpaceOnUse" x="16" y="11" width="16" height="11">
<path d="M23.7535 11.442C21.783 11.7448 19.7204 12.7608 18.4213 14.3005C16.4525 16.6394 15.5978 19.6864 16.2563 21.7328C16.2563 21.7328 16.537 21.8692 16.7485 21.9648C17.1477 19.6736 18.3556 17.5359 19.2871 16.543C24.4504 11.0172 31.0851 13.6624 31.1934 13.7281C31.1593 13.4764 30.4197 12.4597 30.4197 12.4597C29.4874 11.5341 27.9196 11.2305 26.2997 11.2305C25.4468 11.2366 24.5957 11.3073 23.7535 11.442Z" fill="white"/>
</mask>
<g mask="url(#mask0_231_1683)">
<path d="M15.7182 9.63477L32.1413 11.1019L31.0725 23.3478L14.6494 21.8806L15.7182 9.63477Z" fill="white"/>
</g>
<mask id="mask1_231_1683" style="mask-type:luminance" maskUnits="userSpaceOnUse" x="15" y="10" width="16" height="12">
<path d="M22.7036 10.4285C20.6035 10.9403 18.4693 12.2096 17.2085 13.9642C15.1826 16.7971 15.1365 19.6419 16.2565 21.7343C16.4706 19.2606 17.4508 17.3984 18.3558 16.2571C23.4167 9.91155 30.298 12.4006 30.4199 12.4621C29.34 10.8934 27.2374 10.1504 25.04 10.1504C24.253 10.1509 23.4688 10.2442 22.7036 10.4285Z" fill="white"/>
</mask>
<g mask="url(#mask1_231_1683)">
<path d="M30.4199 9.91016H15.1365V21.7329H30.4199V9.91016Z" fill="white"/>
</g>
<mask id="mask2_231_1683" style="mask-type:luminance" maskUnits="userSpaceOnUse" x="16" y="11" width="15" height="11">
<path d="M18.3558 16.256C17.4609 17.3769 16.5047 19.2049 16.2693 21.6121C16.5653 19.0871 17.7663 17.0647 18.9324 15.7638C24.0206 10.0964 30.3235 12.4371 30.4199 12.461C30.3192 12.4115 28.9416 11.9082 26.9985 11.9082C24.5418 11.9082 21.1818 12.7126 18.3558 16.2586" fill="white"/>
</mask>
<g mask="url(#mask2_231_1683)">
<path d="M30.419 10.0977H16.2693V21.6133H30.419V10.0977Z" fill="white"/>
</g>
<mask id="mask3_231_1683" style="mask-type:luminance" maskUnits="userSpaceOnUse" x="8" y="5" width="21" height="22">
<path d="M15.0093 6.17803C12.3299 7.53091 11.0146 8.82237 9.70096 11.4488C8.34467 14.1554 8.36514 18.1398 9.70096 20.8507C10.8457 23.182 13.6803 25.6113 15.9655 26.1718C15.9655 26.1718 16.5012 26.0694 16.978 25.9449C14.7679 25.4186 12.8835 22.5328 12.376 20.8507C11.4855 17.9078 12.0246 14.4002 13.937 12.0007C17.2638 7.83202 24.3335 6.57809 28.9458 9.57217C28.8963 9.31626 28.3785 8.47946 28.3785 8.47946C26.2835 6.33925 22.7828 5.22266 19.5848 5.22266C17.8899 5.22266 16.2802 5.53657 15.0093 6.17803Z" fill="white"/>
</mask>
<g mask="url(#mask3_231_1683)">
<path d="M6.07666 25.9304L28.7113 28.3367L31.2209 5.46494L8.58537 3.05859L6.07666 25.9304Z" fill="white"/>
</g>
<mask id="mask4_231_1683" style="mask-type:luminance" maskUnits="userSpaceOnUse" x="7" y="4" width="22" height="23">
<path d="M14.0625 5.07138C11.1921 6.5215 9.78637 7.89656 8.37804 10.7106C6.92792 13.6049 6.95095 17.8657 8.37804 20.766C9.85972 23.7762 13.2001 26.3105 15.9698 26.1723C13.6079 25.6068 11.7901 22.5709 11.2442 20.766C10.2922 17.6183 10.8654 13.8642 12.9109 11.3026C16.4714 6.84394 23.4465 5.28037 28.3829 8.48002C26.2666 5.49448 22.4775 4 18.9144 4C17.1717 4 15.4819 4.35741 14.0668 5.07138" fill="white"/>
</mask>
<g mask="url(#mask4_231_1683)">
<path d="M4.5105 26.0544L28.1347 28.5656L30.802 4.25821L7.17787 1.74609L4.5105 26.0544Z" fill="white"/>
</g>
<mask id="mask5_231_1683" style="mask-type:luminance" maskUnits="userSpaceOnUse" x="7" y="4" width="22" height="23">
<path d="M14.0625 5.07138C11.1921 6.5215 9.78637 7.89656 8.37804 10.7106C6.92792 13.6049 6.95095 17.8657 8.37804 20.766C9.85972 23.7762 13.2001 26.3105 15.9698 26.1723C13.6079 25.6068 11.7901 22.5709 11.2442 20.766C10.2922 17.6183 10.8654 13.8642 12.9109 11.3026C16.4714 6.84394 23.4465 5.28037 28.3829 8.48002C26.2666 5.49448 22.4775 4 18.9144 4C17.1717 4 15.4819 4.35741 14.0668 5.07138" fill="white"/>
</mask>
<g mask="url(#mask5_231_1683)">
<path d="M4.5105 26.0544L28.1347 28.5656L30.802 4.25821L7.17787 1.74609L4.5105 26.0544Z" fill="white"/>
</g>
<mask id="mask6_231_1683" style="mask-type:luminance" maskUnits="userSpaceOnUse" x="10" y="6" width="19" height="19">
<path d="M12.91 11.3021C10.8628 13.8611 10.2913 17.6144 11.2433 20.7654C11.5614 21.8078 12.2993 23.2588 13.3229 24.4112C12.3675 23.2852 11.6766 21.9161 11.3755 20.9207C10.4209 17.7645 10.9967 14.0164 13.0448 11.4522C16.6002 6.99439 23.2878 5.49565 28.382 8.47778C26.5975 7.32109 24.5434 6.78711 22.4877 6.78711C18.8479 6.78796 15.1799 8.45475 12.91 11.3021Z" fill="white"/>
</mask>
<g mask="url(#mask6_231_1683)">
<path d="M28.3819 5.49805H10.2913V24.4127H28.3819V5.49805Z" fill="white"/>
</g>
<mask id="mask7_231_1683" style="mask-type:luminance" maskUnits="userSpaceOnUse" x="1" y="4" width="30" height="31">
<path d="M9.66782 4.88422C2.3848 8.45492 1.17352 18.2552 2.2995 23.1429C3.46301 28.2201 7.55917 32.4015 13.2061 33.7416C17.0071 34.6424 21.2091 33.8559 24.4915 31.7984C27.8574 29.6872 30.6903 25.3249 29.9405 21.2689C29.1225 16.8332 23.6163 16.8451 20.7169 19.382C23.8645 19.2404 24.3226 21.3798 23.8457 23.369C23.0277 26.7623 18.2764 28.2448 14.9659 28.0785C9.87424 27.814 6.09455 23.8987 5.25518 19.3061C4.25887 13.8468 7.80739 6.00934 13.4842 4.00391C11.7312 4.17963 9.66782 4.88422 9.66782 4.88422Z" fill="white"/>
</mask>
<g mask="url(#mask7_231_1683)">
<path d="M30.6861 4.00391H1.17358V34.6432H30.6861V4.00391Z" fill="white"/>
</g>
<mask id="mask8_231_1683" style="mask-type:luminance" maskUnits="userSpaceOnUse" x="0" y="4" width="32" height="32">
<path d="M0.402393 23.516C1.72968 29.2917 6.39395 34.0533 12.8154 35.581C17.1428 36.6046 21.9239 35.709 25.6601 33.3632C29.4892 30.9636 32.7119 25.9957 31.8598 21.3826C30.9317 16.3405 24.6603 16.3499 21.3617 19.2373C24.9444 19.0744 25.4647 21.508 24.9231 23.7728C23.9984 27.6352 18.5954 29.3259 14.8217 29.1305C9.0272 28.8294 4.72887 24.3758 3.77094 19.1503C3.30775 16.6075 3.49712 13.9409 4.52244 11.55C5.50085 9.26388 7.50798 6.08641 9.66781 4.88281C1.5804 8.46376 -1.11256 16.9197 0.402393 23.516Z" fill="white"/>
</mask>
<g mask="url(#mask8_231_1683)">
<path d="M32.7119 4.88477H-1.11084V36.6023H32.7119V4.88477Z" fill="white"/>
</g>
<mask id="mask9_231_1683" style="mask-type:luminance" maskUnits="userSpaceOnUse" x="3" y="6" width="22" height="24">
<path d="M4.52252 11.5528C3.49891 13.9413 3.30784 16.6103 3.77102 19.1532C4.72895 24.3779 9.02728 28.8314 14.8218 29.1334C17.9097 29.2921 22.0895 28.1874 24.0121 25.6625C21.999 27.9844 18.0231 28.9978 15.0623 28.8425C9.26186 28.5448 4.96097 24.0878 4.0073 18.8623C3.54156 16.322 3.72922 13.6589 4.7571 11.2628C5.42388 9.72965 6.28169 8.28687 7.31017 6.96875C6.12789 8.38646 5.12987 10.1411 4.52252 11.5528Z" fill="white"/>
</mask>
<g mask="url(#mask9_231_1683)">
<path d="M24.0119 6.9668H3.30762V29.291H24.0119V6.9668Z" fill="white"/>
</g>
</g>
</svg>
