<svg width="126" height="32" viewBox="0 0 126 32" fill="none" xmlns="http://www.w3.org/2000/svg">
<g opacity="0.4">
<path d="M45.6777 19.8418C45.3561 19.8418 44.8247 19.8691 44.73 19.8691C44.7232 19.8691 44.1943 19.8418 43.7746 19.8418C43.6484 19.8418 43.5938 19.8597 43.5938 19.9211C43.5938 19.9825 43.6441 19.9919 43.7371 19.9919C43.8373 19.9932 43.9373 20.0012 44.0365 20.0158C44.3137 20.0747 44.3777 20.2129 44.3973 20.4935C44.4093 20.7596 44.4093 20.9917 44.4093 22.2618V23.3067C44.4093 24.1597 44.3871 24.9155 43.9273 25.377C43.6157 25.6684 43.2032 25.8275 42.7766 25.8206C42.3995 25.8372 42.0292 25.7159 41.7351 25.4793C41.329 25.1467 41.0842 24.6366 41.0842 23.4321V22.2618C41.0842 20.9917 41.0842 20.7596 41.0996 20.4935C41.1183 20.1992 41.1849 20.0619 41.4058 20.0158C41.4871 20.003 41.5692 19.995 41.6515 19.9919C41.7368 19.9919 41.7871 19.9774 41.7871 19.9211C41.7871 19.8648 41.7274 19.8418 41.6029 19.8418C41.3026 19.8418 40.7788 19.8691 40.5792 19.8691C40.3233 19.8691 39.803 19.8418 39.362 19.8418C39.2357 19.8418 39.1794 19.8597 39.1794 19.9211C39.1794 19.9825 39.2264 19.9919 39.3202 19.9919C39.4284 19.9924 39.5364 20.0004 39.6435 20.0158C39.9207 20.0747 39.9847 20.2129 40.0035 20.4935C40.0197 20.7596 40.0197 20.9917 40.0197 22.2618V23.4773C40.0197 24.6878 40.3395 25.3045 40.7618 25.6883C41.37 26.2377 42.1744 26.2624 42.6128 26.2624C43.1545 26.2624 43.7567 26.1711 44.3496 25.6653C45.0507 25.0682 45.1411 24.0796 45.1411 23.154V22.2618C45.1411 20.9917 45.1411 20.7596 45.1548 20.4935C45.1744 20.1992 45.2401 20.0619 45.4661 20.0158C45.546 20.0027 45.6267 19.9948 45.7075 19.9919C45.8048 19.9919 45.8568 19.9774 45.8568 19.9211C45.8568 19.8648 45.8014 19.8418 45.6802 19.8418" fill="white"/>
<path d="M56.6636 19.8428C56.2516 19.8428 55.936 19.8701 55.8481 19.8701C55.6681 19.8701 55.2706 19.8428 54.8364 19.8428C54.7102 19.8428 54.6189 19.8539 54.6189 19.9221C54.6189 19.9724 54.6505 19.9929 54.7486 19.9929C54.8982 19.985 55.0481 20.002 55.1921 20.0432C55.3926 20.1285 55.4685 20.288 55.4779 20.7981L55.5632 24.5386H55.5257C55.3815 24.4089 54.2581 23.2062 53.69 22.6389C52.4685 21.4302 51.2043 20.0705 51.1045 19.9648C50.9629 19.8129 50.8887 19.7012 50.7966 19.7012C50.7044 19.7012 50.6857 19.8214 50.6857 19.9844L50.6149 24.9216C50.6021 25.6484 50.5688 25.8923 50.3547 25.9538C50.2322 25.9856 50.1059 26 49.9794 25.9964C49.8941 25.9964 49.8489 26.0186 49.8489 26.0638C49.8489 26.144 49.9205 26.1491 50.0323 26.1491C50.4588 26.1491 50.8563 26.1252 50.9288 26.1252C51.0866 26.1252 51.4184 26.1491 51.9626 26.1491C52.0804 26.1491 52.158 26.132 52.158 26.0638C52.158 26.0186 52.1042 25.9964 52.0104 25.9964C51.8641 26.0015 51.718 25.9825 51.5779 25.9401C51.4124 25.8812 51.299 25.6654 51.2888 25.0171L51.1932 21.5164H51.2163C51.3672 21.6733 52.2936 22.7157 53.2038 23.6165C54.067 24.4763 55.1324 25.5725 55.663 26.0681C55.7534 26.161 55.8532 26.2557 55.9428 26.2557C56.0179 26.2557 56.0571 26.1781 56.0571 25.9947L56.1424 20.7325C56.1526 20.2642 56.2192 20.0884 56.4537 20.0211C56.5348 20.0021 56.618 19.994 56.7011 19.9972C56.8043 19.9972 56.8521 19.9767 56.8521 19.9264C56.8521 19.8581 56.7668 19.847 56.6619 19.847" fill="white"/>
<path d="M63.8741 25.9954C63.7332 25.9926 63.5926 25.9826 63.4527 25.9656C63.1968 25.934 63.1431 25.7822 63.1158 25.5553C63.0825 25.2004 63.0825 24.5376 63.0825 23.7281V22.2618C63.0825 20.9917 63.0825 20.7596 63.0962 20.4935C63.1158 20.1992 63.1815 20.0619 63.4067 20.0158C63.4895 20.0032 63.5729 19.9953 63.6566 19.9919C63.7419 19.9919 63.7914 19.9774 63.7914 19.9126C63.7914 19.8478 63.7265 19.8418 63.6208 19.8418C63.2992 19.8418 62.8061 19.8691 62.5971 19.8691C62.3574 19.8691 61.8294 19.8418 61.5155 19.8418C61.3825 19.8418 61.3176 19.8597 61.3176 19.9126C61.3176 19.9655 61.3705 19.9919 61.4516 19.9919C61.5521 19.9922 61.6523 20.0042 61.7501 20.0278C61.9318 20.0696 62.0162 20.2129 62.0333 20.4935C62.0512 20.7596 62.0512 20.9917 62.0512 22.2618V23.7281C62.0512 24.5376 62.0512 25.2004 62.0077 25.5493C61.9821 25.7856 61.9318 25.934 61.7689 25.9656C61.6696 25.9846 61.5688 25.9946 61.4678 25.9954C61.3705 25.9954 61.3347 26.0244 61.3347 26.0628C61.3347 26.1225 61.3927 26.1481 61.5053 26.1481C61.8328 26.1481 62.3583 26.1234 62.5588 26.1234C62.7788 26.1234 63.3017 26.1481 63.8536 26.1481C63.9449 26.1481 64.0131 26.1234 64.0131 26.0628C64.0131 26.0244 63.9705 25.9954 63.8784 25.9954" fill="white"/>
<path d="M74.1231 19.8457C73.8672 19.8457 73.4825 19.8687 73.3392 19.8687C73.2291 19.8687 72.8803 19.8457 72.4657 19.8457C72.3045 19.8457 72.2277 19.8593 72.2277 19.9242C72.2277 19.989 72.2951 19.9916 72.3685 19.9916C72.4813 19.9904 72.5938 20.0045 72.7028 20.0334C72.7357 20.045 72.7642 20.0665 72.7845 20.0949C72.8048 20.1233 72.8159 20.1572 72.8163 20.192C72.8041 20.298 72.7786 20.402 72.7404 20.5017C72.5391 21.0527 71.4549 23.7346 71.0949 24.6541H71.0642L69.626 20.8685C69.5109 20.5665 69.435 20.3353 69.435 20.2279C69.4334 20.1945 69.4404 20.1613 69.4554 20.1314C69.4703 20.1016 69.4926 20.076 69.5203 20.0572C69.6212 20.0073 69.7339 19.9861 69.8461 19.9958C69.922 19.9958 69.9749 19.9813 69.9749 19.925C69.9749 19.8687 69.8794 19.85 69.7787 19.85C69.3641 19.85 68.9675 19.873 68.7551 19.873C68.46 19.873 67.9874 19.85 67.5472 19.85C67.4218 19.85 67.3306 19.8568 67.3306 19.925C67.3306 19.9754 67.3527 19.9958 67.4287 19.9958C67.5373 19.9927 67.6458 20.0047 67.7511 20.0317C68.0531 20.1118 68.1964 20.2023 68.3866 20.6654L70.4944 25.7622C70.6462 26.1503 70.6983 26.274 70.804 26.274C70.9234 26.274 70.9746 26.1367 71.1913 25.6539C71.373 25.2384 71.7654 24.3274 72.3002 23.111C72.7515 22.0874 72.9826 21.6328 73.2991 20.8523C73.5277 20.314 73.6514 20.1775 73.7589 20.0982C73.8828 20.0252 74.0256 19.9905 74.1692 19.9984C74.2545 19.9984 74.3031 19.9839 74.3031 19.9276C74.3031 19.8713 74.2383 19.8525 74.1325 19.8525" fill="white"/>
<path d="M81.8318 24.8809C81.7712 24.8809 81.7465 24.9133 81.7354 25.0055C81.674 25.3467 81.5793 25.5173 81.3661 25.623C81.1528 25.7288 80.7954 25.7245 80.577 25.7245C79.724 25.7245 79.5943 25.5983 79.5773 25.0157C79.5687 24.7794 79.5773 24.0108 79.5773 23.7276V23.07C79.5773 23.0222 79.5773 22.9847 79.6285 22.9847C79.8272 22.9847 80.6521 22.9932 80.8107 23.0154C81.1204 23.0461 81.2372 23.1698 81.2773 23.3378C81.2981 23.4363 81.3095 23.5366 81.3115 23.6372C81.3115 23.6782 81.3234 23.714 81.3848 23.714C81.4599 23.714 81.4599 23.6287 81.4599 23.5562C81.4599 23.4837 81.4838 23.1604 81.4949 22.9932C81.5281 22.5718 81.5597 22.4353 81.5597 22.3876C81.5597 22.3398 81.5341 22.321 81.5059 22.321C81.4599 22.321 81.4283 22.3637 81.3686 22.4302C81.2935 22.5104 81.169 22.5377 80.9668 22.5573C80.7792 22.5718 79.8187 22.5718 79.6344 22.5718C79.5815 22.5718 79.5773 22.5377 79.5773 22.478V20.371C79.5773 20.3071 79.5943 20.2857 79.6344 20.2857C79.805 20.2857 80.6777 20.3028 80.8184 20.3164C81.2364 20.3702 81.3183 20.4683 81.3746 20.6193C81.4119 20.7152 81.4302 20.8175 81.4283 20.9204C81.4283 20.9912 81.4462 21.0355 81.5059 21.0355C81.5657 21.0355 81.5793 20.9835 81.5853 20.9434C81.6015 20.8445 81.6185 20.4743 81.6245 20.3924C81.6518 20.0094 81.691 19.9113 81.691 19.8516C81.691 19.8106 81.691 19.7773 81.6458 19.7773C81.6002 19.7824 81.5554 19.7936 81.5128 19.8106C81.4462 19.8234 81.3115 19.8405 81.1528 19.8584C80.9941 19.8763 79.3359 19.8678 79.0672 19.8678C78.9486 19.8678 78.7592 19.8584 78.5383 19.8516C78.3336 19.8516 78.0888 19.8405 77.8678 19.8405C77.7416 19.8405 77.687 19.8584 77.687 19.9198C77.687 19.9812 77.7339 19.9906 77.8252 19.9906C77.9334 19.991 78.0414 19.999 78.1485 20.0145C78.424 20.0733 78.4897 20.2115 78.5093 20.4922C78.5238 20.7583 78.5238 20.9912 78.5238 22.2605V23.7268C78.5238 24.4945 78.5238 25.1581 78.4829 25.507C78.447 25.7493 78.4061 25.9335 78.2398 25.9642C78.1415 25.9839 78.0415 25.9939 77.9412 25.9941C77.8414 25.9941 77.8098 26.0231 77.8098 26.0615C77.8098 26.122 77.8678 26.1468 77.9745 26.1468C78.1451 26.1468 78.3549 26.1297 78.5511 26.1297C78.7473 26.1297 78.9358 26.1229 79.0288 26.1229C79.277 26.1229 79.5312 26.1297 79.892 26.1468C80.2529 26.1638 80.7109 26.1724 81.3362 26.1724C81.6518 26.1724 81.7252 26.1724 81.7874 25.9523C81.8464 25.6475 81.882 25.3387 81.8941 25.0285C81.8941 24.9432 81.8941 24.8809 81.8318 24.8809Z" fill="white"/>
<path d="M92.7666 25.9969C92.6883 25.996 92.6102 25.9898 92.5329 25.9781C92.4083 25.9525 92.0654 25.8928 91.6014 25.4066C91.1075 24.8948 90.5334 24.1493 89.7887 23.2169C90.6332 22.5345 90.8976 21.9604 90.8976 21.3403C90.8969 21.119 90.8452 20.9009 90.7465 20.7028C90.6478 20.5047 90.5049 20.332 90.3287 20.1981C89.8766 19.8936 89.3187 19.8398 88.7933 19.8398C88.5374 19.8398 87.9019 19.8671 87.6178 19.8671C87.4472 19.8671 86.9166 19.8398 86.4773 19.8398C86.3511 19.8398 86.2922 19.8578 86.2922 19.9192C86.2922 19.9806 86.3426 19.99 86.4355 19.99C86.5446 19.9904 86.6535 19.9984 86.7614 20.0139C87.0344 20.0727 87.1026 20.2109 87.1214 20.4915C87.1359 20.7577 87.1359 20.9906 87.1359 22.2598V23.7262C87.1359 24.4939 87.1359 25.1575 87.0924 25.5064C87.0634 25.7487 87.0199 25.9329 86.8527 25.9636C86.7538 25.9833 86.6532 25.9933 86.5524 25.9935C86.4526 25.9935 86.421 26.0225 86.421 26.0609C86.421 26.1214 86.4773 26.1462 86.5831 26.1462C86.9166 26.1462 87.4464 26.1223 87.6008 26.1223C87.7279 26.1223 88.342 26.1462 88.8274 26.1462C88.9323 26.1462 88.998 26.1223 88.998 26.0609C88.998 26.0225 88.9673 25.9935 88.8982 25.9935C88.7967 25.9935 88.6175 25.9781 88.4887 25.9636C88.2328 25.9321 88.1885 25.7487 88.1646 25.5064C88.1211 25.1575 88.1211 24.4939 88.1211 23.7151V23.5965C88.1211 23.5504 88.1458 23.5317 88.1885 23.5317L88.917 23.5504C88.9443 23.5478 88.9719 23.5513 88.9976 23.561C89.0233 23.5706 89.0465 23.5859 89.0654 23.6059C89.1746 23.7355 89.5541 24.3002 89.8885 24.7609C90.3568 25.3998 90.6759 25.7845 91.0299 25.9841C91.2491 26.1052 91.4564 26.1419 91.923 26.1419H92.7171C92.8186 26.1419 92.8732 26.1248 92.8732 26.0566C92.8732 26.0182 92.8442 25.9892 92.7743 25.9892M89.4228 23.0088C89.2769 23.1154 89.1669 23.147 88.8308 23.147C88.6168 23.149 88.4037 23.1203 88.1979 23.0617C88.1382 23.0369 88.1211 23.0062 88.1211 22.9124V20.3858C88.1211 20.3192 88.1382 20.2885 88.1979 20.2681C88.3439 20.2419 88.4923 20.2313 88.6406 20.2365C89.1319 20.2365 89.9141 20.5777 89.9141 21.7625C89.9141 22.4449 89.6736 22.8279 89.4228 23.0165" fill="white"/>
<path d="M98.1388 22.3408L97.9033 22.1702C97.2124 21.6422 97.0188 21.3462 97.0188 20.9641C97.0188 20.4685 97.3992 20.1059 98.0108 20.1059C98.5593 20.1059 98.7973 20.355 98.9244 20.5188C99.0473 20.676 99.1211 20.8658 99.1368 21.0647C99.1368 21.1688 99.1641 21.2157 99.2221 21.2157C99.2801 21.2157 99.3074 21.1509 99.3074 20.9598C99.3074 20.3115 99.3424 20.0727 99.3424 19.9652C99.3424 19.9021 99.3014 19.8799 99.2264 19.8628C98.8631 19.7657 98.4883 19.7187 98.1123 19.7229C96.9608 19.7229 96.1939 20.378 96.1939 21.2976C96.1939 21.9732 96.5104 22.5515 97.4239 23.2732L97.8069 23.5726C98.4979 24.1125 98.6301 24.4972 98.6301 24.9075C98.6301 25.3477 98.2582 25.8569 97.5084 25.8569C96.9915 25.8569 96.4984 25.6343 96.3142 25.0193C96.2724 24.8806 96.2472 24.7374 96.2391 24.5928C96.2391 24.5279 96.2323 24.4495 96.1581 24.4495C96.0839 24.4495 96.0659 24.5433 96.054 24.6687C96.0421 24.7941 96.0105 25.3008 96.0105 25.7588C96.0105 25.9465 96.0395 25.9849 96.1709 26.0446C96.53 26.2024 96.9045 26.2595 97.3932 26.2595C97.8291 26.2595 98.2974 26.1853 98.7163 25.9183C98.96 25.7642 99.1597 25.5497 99.296 25.2956C99.4323 25.0415 99.5006 24.7565 99.4942 24.4682C99.4942 23.6749 99.1428 23.1034 98.1294 22.3357" fill="white"/>
<path d="M106.653 25.9954C106.528 25.9954 106.343 25.9792 106.226 25.9656C105.978 25.934 105.919 25.7822 105.898 25.5553C105.862 25.2004 105.862 24.5376 105.862 23.7281V22.2618C105.862 20.9917 105.862 20.7596 105.879 20.4935C105.898 20.1992 105.964 20.0619 106.187 20.0158C106.269 20.0031 106.351 19.9951 106.434 19.9919C106.519 19.9919 106.568 19.9774 106.568 19.9126C106.568 19.8478 106.503 19.8418 106.398 19.8418C106.078 19.8418 105.587 19.8691 105.381 19.8691C105.134 19.8691 104.613 19.8418 104.294 19.8418C104.163 19.8418 104.09 19.8597 104.09 19.9126C104.09 19.9655 104.144 19.9919 104.229 19.9919C104.329 19.9921 104.43 20.0041 104.528 20.0278C104.713 20.0696 104.797 20.2129 104.817 20.4935C104.826 20.7596 104.826 20.9917 104.826 22.2618V23.7281C104.826 24.5376 104.826 25.2004 104.789 25.5493C104.765 25.7856 104.713 25.934 104.544 25.9656C104.446 25.9852 104.345 25.9952 104.245 25.9954C104.144 25.9954 104.112 26.0244 104.112 26.0628C104.112 26.1225 104.165 26.1481 104.282 26.1481C104.615 26.1481 105.135 26.1234 105.329 26.1234C105.555 26.1234 106.079 26.1481 106.63 26.1481C106.721 26.1481 106.788 26.1234 106.788 26.0628C106.788 26.0244 106.751 25.9954 106.657 25.9954" fill="white"/>
<path d="M116.249 19.7823C116.173 19.7927 116.098 19.8069 116.023 19.8249C115.832 19.8562 115.64 19.871 115.446 19.8693H112.145C111.867 19.8693 111.589 19.8545 111.313 19.8249C111.106 19.8121 111.019 19.7285 110.953 19.7285C110.902 19.7285 110.875 19.7788 110.857 19.8846C110.838 19.9512 110.681 20.7086 110.681 20.846C110.681 20.9313 110.695 20.9748 110.753 20.9748C110.811 20.9748 110.828 20.9449 110.847 20.8741C110.876 20.7704 110.923 20.6729 110.988 20.5866C111.111 20.3998 111.313 20.3614 111.795 20.3401L113.038 20.3077V23.7283C113.038 24.496 113.038 25.1596 112.996 25.5085C112.974 25.7508 112.921 25.9299 112.758 25.9657C112.659 25.9847 112.558 25.9947 112.457 25.9956C112.355 25.9956 112.323 26.0246 112.323 26.0638C112.323 26.1227 112.379 26.1491 112.488 26.1491C112.823 26.1491 113.349 26.1244 113.537 26.1244C113.771 26.1244 114.299 26.1491 114.851 26.1491C114.936 26.1491 115.01 26.1244 115.01 26.0638C115.01 26.0246 114.966 25.9956 114.871 25.9956C114.747 25.9956 114.565 25.9794 114.444 25.9657C114.194 25.9299 114.145 25.7508 114.118 25.5171C114.078 25.1596 114.078 24.4934 114.078 23.7257V20.3052L115.126 20.3333C115.872 20.3495 116.095 20.5841 116.113 20.7965L116.121 20.8903C116.131 21.02 116.148 21.0567 116.206 21.0567C116.265 21.0567 116.275 21.0106 116.282 20.9261C116.282 20.7061 116.31 20.1328 116.31 19.9537C116.31 19.8317 116.299 19.7831 116.241 19.7831" fill="white"/>
<path d="M125.756 19.8457C125.599 19.8457 125.044 19.8687 124.864 19.8687C124.619 19.8687 124.353 19.8457 124.08 19.8457C123.978 19.8457 123.937 19.8594 123.937 19.9208C123.937 19.9822 124.011 19.983 124.086 20.0061C124.136 20.0115 124.182 20.0362 124.214 20.0749C124.246 20.1137 124.261 20.1634 124.257 20.2134C124.25 20.3641 124.21 20.5116 124.141 20.6458C124.023 20.9017 122.975 22.7383 122.895 22.9387C122.758 22.7059 121.585 20.6927 121.469 20.4479C121.42 20.3583 121.387 20.2611 121.371 20.1605C121.371 20.1265 121.383 20.0936 121.403 20.0665C121.423 20.0394 121.452 20.0197 121.485 20.0103C121.614 19.9788 121.677 19.9728 121.677 19.925C121.677 19.8773 121.631 19.85 121.55 19.85C121.172 19.85 120.828 19.873 120.657 19.873C120.379 19.873 119.752 19.85 119.605 19.85C119.508 19.85 119.443 19.873 119.443 19.925C119.443 19.9771 119.508 19.9958 119.571 19.9958C119.694 20.0056 119.814 20.0435 119.921 20.1067C120.082 20.192 120.289 20.4036 120.496 20.7124C120.788 21.1474 121.909 22.9873 121.966 23.1187C122.101 23.3882 122.166 23.6874 122.155 23.9888V24.6712C122.155 24.8051 122.155 25.1574 122.132 25.5063C122.113 25.7485 122.042 25.9277 121.876 25.9635C121.78 25.9853 121.682 25.9953 121.584 25.9934C121.486 25.9934 121.449 26.0224 121.449 26.0607C121.449 26.1281 121.515 26.146 121.632 26.146C121.947 26.146 122.467 26.1222 122.673 26.1222C122.898 26.1222 123.429 26.146 123.952 26.146C124.059 26.146 124.123 26.1222 124.123 26.0607C124.123 26.0224 124.083 25.9934 123.989 25.9934C123.85 25.9931 123.712 25.9831 123.575 25.9635C123.326 25.9277 123.25 25.7485 123.233 25.5063C123.211 25.1574 123.211 24.8051 123.211 24.6712V23.9888C123.211 23.7175 123.211 23.4608 123.335 23.1545C123.489 22.8022 124.657 20.8378 124.933 20.5102C125.118 20.2867 125.207 20.1869 125.382 20.0999C125.496 20.0412 125.622 20.0072 125.75 20.0001C125.835 20.0001 125.903 19.9796 125.903 19.9148C125.903 19.8662 125.849 19.8525 125.756 19.8525" fill="white"/>
<path d="M49.244 11.501C49.244 11.3893 49.1434 11.3586 48.9659 11.3586C48.5019 11.3586 47.7606 11.3995 47.3299 11.3995C46.9119 11.3995 46.0307 11.3586 45.3057 11.3586C45.1112 11.3586 45.0105 11.3893 45.0105 11.501C45.0105 11.5812 45.0958 11.6077 45.2195 11.6077C45.4021 11.604 45.5845 11.6174 45.7646 11.6478C46.2286 11.7484 46.3506 11.9745 46.3617 12.4453C46.3762 12.8659 46.3762 13.3939 46.3762 14.095V15.4087C46.3762 15.6433 46.3233 15.8275 46.1143 15.9205C45.7774 16.0749 45.286 16.0749 44.9252 16.0749C41.9764 16.0749 40.0631 13.8263 40.0631 10.822C40.0631 9.10578 40.5655 8.05999 41.3426 7.40061C42.321 6.58939 43.3463 6.53566 44.114 6.53566C45.6853 6.53566 46.8061 7.17712 47.2249 7.62751C47.5866 8.01563 47.6574 8.46261 47.6984 8.78419C47.7112 8.89764 47.7376 8.96503 47.8383 8.96503C47.9389 8.96503 47.9927 8.89765 47.9927 8.67245C47.9927 6.92633 48.0916 6.53566 48.0916 6.38297C48.0916 6.28743 48.0652 6.23028 47.8929 6.21236C47.5225 6.18489 47.1544 6.13331 46.7908 6.05797C45.9724 5.92655 45.1458 5.85301 44.317 5.83789C43.1433 5.83789 41.9013 5.93343 40.5638 6.74635C39.2911 7.51406 38.1335 9.07848 38.1335 11.3117C38.1335 15.1647 41.1634 16.7863 44.59 16.7863C45.6725 16.7863 47.045 16.6336 47.9517 16.1593C48.1223 16.0604 48.1308 16.0322 48.1308 15.6526V14.1172C48.1308 13.4203 48.1308 12.8616 48.1505 12.4411C48.1641 11.9531 48.3023 11.7168 48.6793 11.6435C48.8027 11.6192 48.928 11.6058 49.0538 11.6034C49.1545 11.6034 49.2389 11.577 49.2389 11.4968" fill="white"/>
<path d="M60.1653 16.3428C59.9677 16.3427 59.7706 16.3233 59.5767 16.2848C59.2858 16.2157 58.879 16.0229 58.3518 14.7647C57.4561 12.6407 55.2212 6.94345 54.8869 6.17489C54.7453 5.85501 54.6625 5.73047 54.5363 5.73047C54.3955 5.73047 54.3145 5.88145 54.1482 6.28919L50.6363 15.059C50.3616 15.7576 50.0938 16.2302 49.4515 16.3172C49.3414 16.3274 49.1435 16.3428 49.025 16.3428C48.9064 16.3428 48.8501 16.3709 48.8501 16.4528C48.8501 16.568 48.9397 16.5978 49.1205 16.5978C49.8498 16.5978 50.6141 16.5509 50.7711 16.5509C51.1976 16.5509 51.8032 16.5978 52.2468 16.5978C52.4012 16.5978 52.4865 16.568 52.4865 16.4528C52.4865 16.3675 52.4455 16.3428 52.2801 16.3428H52.0668C51.6403 16.3428 51.5089 16.1628 51.5089 15.9095C51.533 15.6157 51.6041 15.3276 51.7196 15.0564L52.4711 13.0578C52.4993 12.9725 52.5283 12.9452 52.5957 12.9452H55.7126C55.7435 12.9429 55.7743 12.9515 55.7997 12.9694C55.825 12.9873 55.8434 13.0134 55.8516 13.0433L56.9699 16.005C56.9849 16.0337 56.9937 16.0652 56.9956 16.0975C56.9975 16.1298 56.9925 16.1622 56.981 16.1924C56.9694 16.2226 56.9516 16.2501 56.9287 16.2729C56.9057 16.2958 56.8782 16.3135 56.8479 16.3249C56.7004 16.3402 56.65 16.3684 56.65 16.4503C56.65 16.5484 56.8155 16.5484 57.0646 16.5654C58.1829 16.5953 59.1971 16.5953 59.7089 16.5953C60.2208 16.5953 60.3513 16.5654 60.3513 16.4503C60.3513 16.3547 60.2813 16.3402 60.1704 16.3402M55.4464 12.2458H52.8755C52.8217 12.2458 52.8064 12.2031 52.8217 12.1485L54.1012 8.71174C54.1149 8.6563 54.1456 8.5855 54.1865 8.5855C54.2275 8.5855 54.2428 8.6563 54.2556 8.71174L55.5155 12.1622C55.5292 12.2031 55.5155 12.2475 55.4422 12.2475" fill="white"/>
<path d="M67.5958 16.2599C67.705 15.8547 67.8014 14.8097 67.8014 14.6536C67.8014 14.4975 67.792 14.4182 67.6956 14.4182C67.5788 14.4182 67.5523 14.5035 67.5395 14.6263C67.4932 14.9321 67.3679 15.2205 67.1761 15.4631C66.8238 15.8402 66.283 15.8547 65.5392 15.8547C64.4533 15.8547 64.0891 15.7583 63.8511 15.5459C63.5594 15.2959 63.5594 14.3329 63.5594 12.5458V10.0858C63.5594 7.96175 63.5594 7.57448 63.585 7.12836C63.6157 6.63873 63.7266 6.39989 64.1044 6.33164C64.2844 6.30525 64.466 6.29185 64.6478 6.29155C64.8184 6.29155 64.8986 6.2617 64.8986 6.16446C64.8986 6.06721 64.8039 6.03906 64.606 6.03906C64.0609 6.03906 63.0399 6.07745 62.7072 6.07745C62.3293 6.07745 61.4507 6.03906 60.7939 6.03906C60.5806 6.03906 60.4868 6.0638 60.4868 6.16446C60.4868 6.26511 60.567 6.29155 60.7257 6.29155C60.8791 6.288 61.0324 6.30145 61.1829 6.33164C61.6478 6.42889 61.7544 6.65408 61.7842 7.12836C61.815 7.57448 61.815 7.96175 61.815 10.0858V12.5475C61.815 13.8313 61.815 14.936 61.7442 15.5211C61.6853 15.9263 61.6171 16.2326 61.3373 16.2889C61.173 16.3296 61.0041 16.3491 60.8348 16.3469C60.6642 16.3469 60.6105 16.3869 60.6105 16.4569C60.6105 16.555 60.7129 16.6019 60.8903 16.6019C61.1735 16.6019 61.5369 16.5721 61.855 16.5721C62.186 16.555 62.4948 16.555 62.6518 16.555C63.225 16.555 63.7266 16.5721 64.3578 16.6019C64.9847 16.613 65.7124 16.6411 66.7164 16.6411C67.4457 16.6411 67.5131 16.5721 67.5975 16.2633" fill="white"/>
<path d="M78.6671 15.6567V14.1212C78.6671 13.4243 78.6671 12.8656 78.6867 12.4459C78.6978 11.9572 78.8343 11.7209 79.2147 11.6475C79.3399 11.6233 79.4669 11.6099 79.5943 11.6074C79.6907 11.6074 79.7709 11.5801 79.7709 11.4999C79.7709 11.3882 79.6779 11.3592 79.4928 11.3592C79.0356 11.3592 78.2986 11.3993 77.8601 11.3993C77.4396 11.3993 76.5618 11.3592 75.8376 11.3592C75.6423 11.3592 75.5425 11.3882 75.5425 11.4999C75.5425 11.5801 75.6278 11.6074 75.7506 11.6074C75.9329 11.6036 76.1151 11.617 76.2949 11.6475C76.7546 11.7482 76.8834 11.9742 76.892 12.4459C76.9073 12.8656 76.9073 13.3936 76.9073 14.0948V15.4084C76.9073 15.643 76.851 15.8281 76.6403 15.9202C76.3068 16.0738 75.8155 16.0738 75.4538 16.0738C72.5075 16.0738 70.5916 13.8252 70.5916 10.8209C70.5916 9.10468 71.0923 8.05889 71.8763 7.40036C72.8547 6.58829 73.8723 6.53455 74.6383 6.53455C76.2181 6.53455 77.3364 7.17602 77.7518 7.62641C78.1203 8.01453 78.1877 8.46151 78.2286 8.78309C78.2414 8.89655 78.273 8.96393 78.3694 8.96393C78.482 8.96393 78.5255 8.89655 78.5255 8.67135C78.5255 6.92524 78.6227 6.53455 78.6227 6.38186C78.6227 6.28547 78.592 6.22918 78.4223 6.21126C78.0524 6.18241 77.6846 6.13084 77.321 6.05687C76.5045 5.92433 75.6795 5.8505 74.8524 5.83594C73.677 5.83594 72.4341 5.93148 71.0923 6.74354C69.8231 7.51125 68.6604 9.07653 68.6604 11.3097C68.6604 15.1628 71.6929 16.7852 75.1143 16.7852C76.2036 16.7852 77.5727 16.6317 78.482 16.1582C78.6526 16.0584 78.6594 16.0303 78.6594 15.6507" fill="white"/>
<path d="M92.4576 11.0648C92.4576 7.86514 90.2893 5.8418 86.8141 5.8418C82.6249 5.8418 81.0469 8.92799 81.0469 11.3156C81.0469 13.7893 82.6676 16.7911 86.6725 16.7911C90.2244 16.7911 92.4576 14.2602 92.4576 11.0648ZM82.9696 10.8848C82.9696 7.40451 84.8018 6.51226 86.4106 6.51226C88.6984 6.51226 90.5051 8.45201 90.5051 11.5809C90.5051 15.6173 88.2412 16.0933 87.2636 16.0933C84.5843 16.0933 82.9755 13.7902 82.9755 10.8848" fill="white"/>
<path d="M102.498 5.93709C102.37 5.95379 102.243 5.97829 102.118 6.01045C101.799 6.0539 101.478 6.07556 101.156 6.07527H95.6241C95.1581 6.07709 94.6923 6.05546 94.2285 6.01045C93.8813 5.98059 93.7432 5.83984 93.6314 5.83984C93.5529 5.83984 93.506 5.92514 93.4659 6.10428C93.4369 6.21431 93.1733 7.48701 93.1733 7.70879C93.1733 7.86319 93.1998 7.93313 93.3004 7.93313C93.3806 7.93313 93.4241 7.87769 93.4531 7.76253C93.504 7.58764 93.5842 7.42266 93.6903 7.27461C93.8984 6.96496 94.2328 6.89672 95.0457 6.87028L97.1271 6.81398V12.5411C97.1271 13.8249 97.1271 14.9295 97.0554 15.5139C97.0127 15.919 96.9274 16.2261 96.6502 16.2816C96.4861 16.3218 96.3176 16.3413 96.1486 16.3396C95.978 16.3396 95.9218 16.3797 95.9218 16.4496C95.9218 16.5477 96.0207 16.5946 96.2067 16.5946C96.7611 16.5946 97.6414 16.5477 97.9613 16.5477C98.3537 16.5477 99.2348 16.5946 100.154 16.5946C100.31 16.5946 100.422 16.5477 100.422 16.4496C100.422 16.3797 100.351 16.3396 100.197 16.3396C99.9577 16.3368 99.7189 16.3174 99.4822 16.2816C99.0651 16.227 98.9832 15.9199 98.9397 15.5309C98.8672 14.9295 98.8672 13.8249 98.8672 12.5454V6.81825L100.629 6.86005C101.874 6.8899 102.249 7.27887 102.278 7.64311L102.291 7.79836C102.304 8.00735 102.338 8.07644 102.446 8.07644C102.531 8.07644 102.558 7.99114 102.573 7.85039C102.573 7.48871 102.617 6.52481 102.617 6.22967C102.617 6.01812 102.6 5.93367 102.502 5.93367" fill="white"/>
<path d="M120.361 16.4296C120.958 16.6923 121.589 16.7904 122.401 16.7904C123.14 16.7904 123.927 16.665 124.619 16.2155C125.029 15.9586 125.365 15.6002 125.596 15.175C125.826 14.7498 125.943 14.2722 125.934 13.7887C125.934 12.4622 125.333 11.5 123.642 10.2265L123.254 9.93475C122.095 9.05103 121.776 8.56481 121.776 7.92079C121.776 7.08398 122.402 6.48517 123.436 6.48517C124.341 6.48517 124.75 6.90144 124.953 7.16758C125.167 7.42881 125.295 7.74906 125.322 8.08542C125.322 8.25602 125.363 8.33706 125.461 8.33706C125.559 8.33706 125.613 8.22958 125.613 7.91993C125.613 6.82979 125.667 6.42546 125.667 6.24462C125.667 6.14567 125.601 6.10473 125.47 6.07402C124.865 5.91178 124.24 5.83314 123.614 5.84029C121.672 5.84029 120.388 6.94238 120.388 8.47695C120.388 9.61316 120.921 10.5873 122.454 11.7875L123.098 12.2899C124.26 13.2026 124.468 13.8415 124.468 14.5274C124.468 15.2644 123.853 16.1208 122.591 16.1208C121.724 16.1208 120.9 15.7438 120.597 14.7074C120.524 14.4764 120.48 14.237 120.468 13.9951C120.468 13.8833 120.459 13.7588 120.328 13.7588C120.22 13.7588 120.176 13.9106 120.157 14.1205C120.146 14.344 120.092 15.1808 120.092 15.951C120.092 16.2581 120.129 16.3264 120.355 16.4287" fill="white"/>
<path d="M108.235 16.3434C107.997 16.3406 107.76 16.3212 107.525 16.2854C107.106 16.2308 107.008 15.9801 106.967 15.603C106.911 15.0059 106.911 13.903 106.911 12.5467V10.0858C106.911 7.96175 106.911 7.57448 106.939 7.12836C106.967 6.63873 107.081 6.39989 107.458 6.33164C107.596 6.30635 107.736 6.29294 107.877 6.29155C108.015 6.29155 108.097 6.2617 108.097 6.1491C108.097 6.0638 107.984 6.03906 107.803 6.03906C107.273 6.03906 106.45 6.07745 106.101 6.07745C105.696 6.07745 104.814 6.03906 104.285 6.03906C104.062 6.03906 103.949 6.06465 103.949 6.1491C103.949 6.2617 104.035 6.29155 104.172 6.29155C104.343 6.28833 104.513 6.30725 104.679 6.34785C104.983 6.41353 105.12 6.65408 105.15 7.12836C105.178 7.57448 105.178 7.96175 105.178 10.0858V12.5467C105.178 13.903 105.178 15.0051 105.109 15.5902C105.068 15.9937 104.983 16.2326 104.705 16.2871C104.542 16.3271 104.374 16.3466 104.206 16.3452C104.036 16.3452 103.98 16.3852 103.98 16.4552C103.98 16.5533 104.074 16.6002 104.257 16.6002C104.814 16.6002 105.696 16.5533 106.019 16.5533C106.394 16.5533 107.273 16.6002 108.197 16.6002C108.256 16.6018 108.314 16.5902 108.368 16.5661L108.361 16.3673C108.321 16.3517 108.278 16.3436 108.235 16.3434Z" fill="white"/>
<path d="M119.622 16.3428C119.425 16.3428 119.229 16.3234 119.037 16.2848C118.739 16.2157 118.336 16.0229 117.805 14.7647C116.91 12.6407 114.675 6.94345 114.342 6.17489C114.202 5.85501 114.117 5.73047 113.992 5.73047C113.867 5.73047 113.768 5.88145 113.6 6.28919L110.096 15.059C109.817 15.7576 109.552 16.2302 108.908 16.3172C108.796 16.3274 108.603 16.3428 108.474 16.3428C108.435 16.3414 108.396 16.349 108.36 16.365L108.367 16.5637C108.432 16.5918 108.502 16.6038 108.572 16.5987C109.3 16.5987 110.066 16.5518 110.22 16.5518C110.646 16.5518 111.254 16.5987 111.701 16.5987C111.85 16.5987 111.94 16.5688 111.94 16.4537C111.94 16.3684 111.894 16.3436 111.729 16.3436H111.522C111.087 16.3436 110.961 16.1637 110.961 15.9103C110.984 15.6166 111.054 15.3285 111.169 15.0573L111.926 13.0587C111.949 12.9734 111.983 12.9461 112.048 12.9461H115.162C115.193 12.9445 115.224 12.9533 115.249 12.971C115.275 12.9888 115.294 13.0145 115.303 13.0442L116.419 16.0058C116.434 16.0345 116.444 16.0663 116.446 16.099C116.448 16.1316 116.443 16.1643 116.431 16.1948C116.419 16.2252 116.401 16.2528 116.377 16.2754C116.353 16.298 116.325 16.3152 116.294 16.3257C116.158 16.3411 116.098 16.3692 116.098 16.4511C116.098 16.5492 116.269 16.5492 116.516 16.5663C117.633 16.5961 118.654 16.5961 119.16 16.5961C119.679 16.5961 119.802 16.5663 119.802 16.4511C119.801 16.3573 119.732 16.3428 119.622 16.3428ZM114.899 12.2483H112.329C112.276 12.2483 112.258 12.2057 112.276 12.1511L113.555 8.7143C113.568 8.65886 113.598 8.58806 113.64 8.58806C113.683 8.58806 113.698 8.65886 113.711 8.7143L114.969 12.1647C114.982 12.2082 114.971 12.2509 114.897 12.2509L114.899 12.2483Z" fill="white"/>
<mask id="mask0_174_534" style="mask-type:luminance" maskUnits="userSpaceOnUse" x="16" y="7" width="16" height="11">
<path d="M23.7535 7.44202C21.783 7.74484 19.7204 8.76077 18.4213 10.3005C16.4525 12.6394 15.5978 15.6864 16.2563 17.7328C16.2563 17.7328 16.537 17.8692 16.7485 17.9648C17.1477 15.6736 18.3556 13.5359 19.2871 12.543C24.4504 7.01722 31.0851 9.66241 31.1934 9.72809C31.1593 9.47645 30.4197 8.45966 30.4197 8.45966C29.4874 7.53414 27.9196 7.23047 26.2997 7.23047C25.4468 7.23659 24.5957 7.30731 23.7535 7.44202Z" fill="white"/>
</mask>
<g mask="url(#mask0_174_534)">
<path d="M15.7182 5.63477L32.1413 7.10195L31.0725 19.3478L14.6494 17.8806L15.7182 5.63477Z" fill="white"/>
</g>
<mask id="mask1_174_534" style="mask-type:luminance" maskUnits="userSpaceOnUse" x="15" y="6" width="16" height="12">
<path d="M22.7036 6.42847C20.6035 6.94028 18.4693 8.20956 17.2085 9.96421C15.1826 12.7971 15.1365 15.6419 16.2565 17.7343C16.4706 15.2606 17.4508 13.3984 18.3558 12.2571C23.4167 5.91155 30.298 8.40064 30.4199 8.46205C29.34 6.89336 27.2374 6.15039 25.04 6.15039C24.253 6.15088 23.4688 6.24422 22.7036 6.42847Z" fill="white"/>
</mask>
<g mask="url(#mask1_174_534)">
<path d="M30.4199 5.91016H15.1365V17.7329H30.4199V5.91016Z" fill="white"/>
</g>
<mask id="mask2_174_534" style="mask-type:luminance" maskUnits="userSpaceOnUse" x="16" y="7" width="15" height="11">
<path d="M18.3558 12.256C17.4609 13.3769 16.5047 15.2049 16.2693 17.6121C16.5653 15.0871 17.7663 13.0647 18.9324 11.7638C24.0206 6.0964 30.3235 8.43707 30.4199 8.46095C30.3192 8.41148 28.9416 7.9082 26.9985 7.9082C24.5418 7.9082 21.1818 8.71259 18.3558 12.2586" fill="white"/>
</mask>
<g mask="url(#mask2_174_534)">
<path d="M30.419 6.09766H16.2693V17.6133H30.419V6.09766Z" fill="white"/>
</g>
<mask id="mask3_174_534" style="mask-type:luminance" maskUnits="userSpaceOnUse" x="8" y="1" width="21" height="22">
<path d="M15.0093 2.17803C12.3299 3.53091 11.0146 4.82237 9.70096 7.44879C8.34467 10.1554 8.36514 14.1398 9.70096 16.8507C10.8457 19.182 13.6803 21.6113 15.9655 22.1718C15.9655 22.1718 16.5012 22.0694 16.978 21.9449C14.7679 21.4186 12.8835 18.5328 12.376 16.8507C11.4855 13.9078 12.0246 10.4002 13.937 8.00069C17.2638 3.83202 24.3335 2.57809 28.9458 5.57217C28.8963 5.31626 28.3785 4.47946 28.3785 4.47946C26.2835 2.33925 22.7828 1.22266 19.5848 1.22266C17.8899 1.22266 16.2802 1.53657 15.0093 2.17803Z" fill="white"/>
</mask>
<g mask="url(#mask3_174_534)">
<path d="M6.07666 21.9304L28.7113 24.3367L31.2209 1.46494L8.58537 -0.941406L6.07666 21.9304Z" fill="white"/>
</g>
<mask id="mask4_174_534" style="mask-type:luminance" maskUnits="userSpaceOnUse" x="7" y="0" width="22" height="23">
<path d="M14.0625 1.07138C11.1921 2.5215 9.78637 3.89656 8.37804 6.71065C6.92792 9.60492 6.95095 13.8657 8.37804 16.766C9.85972 19.7762 13.2001 22.3105 15.9698 22.1723C13.6079 21.6068 11.7901 18.5709 11.2442 16.766C10.2922 13.6183 10.8654 9.86423 12.9109 7.30264C16.4714 2.84394 23.4465 1.28037 28.3829 4.48002C26.2666 1.49448 22.4775 0 18.9144 0C17.1717 0 15.4819 0.357412 14.0668 1.07138" fill="white"/>
</mask>
<g mask="url(#mask4_174_534)">
<path d="M4.5105 22.0544L28.1347 24.5656L30.802 0.258214L7.17787 -2.25391L4.5105 22.0544Z" fill="white"/>
</g>
<mask id="mask5_174_534" style="mask-type:luminance" maskUnits="userSpaceOnUse" x="7" y="0" width="22" height="23">
<path d="M14.0625 1.07138C11.1921 2.5215 9.78637 3.89656 8.37804 6.71065C6.92792 9.60492 6.95095 13.8657 8.37804 16.766C9.85972 19.7762 13.2001 22.3105 15.9698 22.1723C13.6079 21.6068 11.7901 18.5709 11.2442 16.766C10.2922 13.6183 10.8654 9.86423 12.9109 7.30264C16.4714 2.84394 23.4465 1.28037 28.3829 4.48002C26.2666 1.49448 22.4775 0 18.9144 0C17.1717 0 15.4819 0.357412 14.0668 1.07138" fill="white"/>
</mask>
<g mask="url(#mask5_174_534)">
<path d="M4.5105 22.0544L28.1347 24.5656L30.802 0.258214L7.17787 -2.25391L4.5105 22.0544Z" fill="white"/>
</g>
<mask id="mask6_174_534" style="mask-type:luminance" maskUnits="userSpaceOnUse" x="10" y="2" width="19" height="19">
<path d="M12.91 7.3021C10.8628 9.86114 10.2913 13.6144 11.2433 16.7654C11.5614 17.8078 12.2993 19.2588 13.3229 20.4112C12.3675 19.2852 11.6766 17.9161 11.3755 16.9207C10.4209 13.7645 10.9967 10.0164 13.0448 7.45223C16.6002 2.99439 23.2878 1.49565 28.382 4.47778C26.5975 3.32109 24.5434 2.78711 22.4877 2.78711C18.8479 2.78796 15.1799 4.45475 12.91 7.3021Z" fill="white"/>
</mask>
<g mask="url(#mask6_174_534)">
<path d="M28.3819 1.49805H10.2913V20.4127H28.3819V1.49805Z" fill="white"/>
</g>
<mask id="mask7_174_534" style="mask-type:luminance" maskUnits="userSpaceOnUse" x="1" y="0" width="30" height="31">
<path d="M9.66782 0.884215C2.3848 4.45492 1.17352 14.2552 2.2995 19.1429C3.46301 24.2201 7.55917 28.4015 13.2061 29.7416C17.0071 30.6424 21.2091 29.8559 24.4915 27.7984C27.8574 25.6872 30.6903 21.3249 29.9405 17.2689C29.1225 12.8332 23.6163 12.8451 20.7169 15.382C23.8645 15.2404 24.3226 17.3798 23.8457 19.369C23.0277 22.7623 18.2764 24.2448 14.9659 24.0785C9.87424 23.814 6.09455 19.8987 5.25518 15.3061C4.25887 9.84681 7.80739 2.00934 13.4842 0.00390625C11.7312 0.179627 9.66782 0.884215 9.66782 0.884215Z" fill="white"/>
</mask>
<g mask="url(#mask7_174_534)">
<path d="M30.6861 0.00390625H1.17358V30.6432H30.6861V0.00390625Z" fill="white"/>
</g>
<mask id="mask8_174_534" style="mask-type:luminance" maskUnits="userSpaceOnUse" x="0" y="0" width="32" height="32">
<path d="M0.402393 19.516C1.72968 25.2917 6.39395 30.0533 12.8154 31.581C17.1428 32.6046 21.9239 31.709 25.6601 29.3632C29.4892 26.9636 32.7119 21.9957 31.8598 17.3826C30.9317 12.3405 24.6603 12.3499 21.3617 15.2373C24.9444 15.0744 25.4647 17.508 24.9231 19.7728C23.9984 23.6352 18.5954 25.3259 14.8217 25.1305C9.0272 24.8294 4.72887 20.3758 3.77094 15.1503C3.30775 12.6075 3.49712 9.94095 4.52244 7.54995C5.50085 5.26388 7.50798 2.08641 9.66781 0.882812C1.5804 4.46376 -1.11256 12.9197 0.402393 19.516Z" fill="white"/>
</mask>
<g mask="url(#mask8_174_534)">
<path d="M32.7119 0.884766H-1.11084V32.6023H32.7119V0.884766Z" fill="white"/>
</g>
<mask id="mask9_174_534" style="mask-type:luminance" maskUnits="userSpaceOnUse" x="3" y="2" width="22" height="24">
<path d="M4.52252 7.55283C3.49891 9.94127 3.30784 12.6103 3.77102 15.1532C4.72895 20.3779 9.02728 24.8314 14.8218 25.1334C17.9097 25.2921 22.0895 24.1874 24.0121 21.6625C21.999 23.9844 18.0231 24.9978 15.0623 24.8425C9.26186 24.5448 4.96097 20.0878 4.0073 14.8623C3.54156 12.322 3.72922 9.65892 4.7571 7.26281C5.42388 5.72965 6.28169 4.28687 7.31017 2.96875C6.12789 4.38646 5.12987 6.1411 4.52252 7.55283Z" fill="white"/>
</mask>
<g mask="url(#mask9_174_534)">
<path d="M24.0119 2.9668H3.30762V25.291H24.0119V2.9668Z" fill="white"/>
</g>
</g>
</svg>
