<svg width="145" height="30" viewBox="0 0 145 30" fill="none" xmlns="http://www.w3.org/2000/svg">
<g opacity="0.4">
<path d="M21.5254 18.8574C22.8265 15.1848 30.9522 13.9567 29.3936 19.2432C28.476 22.3482 26.5788 25.0733 23.9854 27.0117C21.3916 28.9502 18.24 29.9985 15.002 29.999L3.77441 30C1.89417 30 0 28.3744 0 26.4941V18.9707C0 14.6759 5.07224 14.8347 6.18457 18.2256C7.12097 21.0899 8.4477 23.5853 9.5166 24.4785C12.2081 26.7143 12.5353 20.9783 12.833 19.7754C13.3213 17.7676 14.6029 17.7676 15.0928 19.7754C15.3905 20.9664 15.7171 26.7087 18.4102 24.4727C19.3986 23.6523 20.6084 21.4475 21.5254 18.8574ZM15.0049 0.000976562C18.8303 0.00151573 22.5114 1.46281 25.2949 4.08691C28.0782 6.71083 29.7534 10.2988 29.9795 14.1172C26.3284 11.8331 22.7238 15.4718 22.8965 12.6602C23.0736 9.76781 22.4071 7.27443 20.1445 6.76074C16.9944 6.04765 15.0991 9.84978 9.88867 8.58594C11.0216 8.5368 12.5267 8.26734 13.3291 7.67188C11.6975 7.4441 9.6842 6.28882 7.78906 6.76074C5.53258 7.32513 4.85701 9.756 5.04004 12.6602C5.21571 15.3369 2.91234 12.0116 0.00488281 14.1182V3.50684C0.00488281 0.998351 1.28421 0.000976562 3.7793 0.000976562H15.0049Z" fill="white"/>
<path d="M41.8234 22H39.6224V8.8486H41.8234V22ZM49.4361 22H47.226L43.6459 12.1365H45.8469L48.3311 19.2875L50.8061 12.1365H53.0162L49.4361 22ZM58.655 22.274C55.6868 22.274 53.7506 20.1186 53.7506 17.0682C53.7506 13.9722 55.7416 11.8625 58.655 11.8625C61.6323 11.8625 63.5776 14.0178 63.5776 17.0682C63.5776 20.146 61.6049 22.274 58.655 22.274ZM58.655 20.2099C60.3993 20.2099 61.2487 18.9222 61.2487 17.0682C61.2487 15.1594 60.3811 13.9265 58.655 13.9265C56.8832 13.9265 56.0795 15.2051 56.0795 17.0682C56.0795 18.9861 56.9562 20.2099 58.655 20.2099ZM67.8 22H65.5898V12.1365H67.5352V13.7164C67.7817 13.2872 68.1105 12.9128 68.5215 12.657C69.2521 12.1547 70.2568 11.9995 71.1427 12.1365V14.1914C70.549 14.027 69.7179 14.0726 69.106 14.4288C68.2019 14.922 67.8 15.8444 67.8 16.986V22ZM75.9431 26.3838H73.8791L75.5048 21.9269L71.5137 12.1365H73.806L76.5642 19.1962L79.2401 12.1365H81.4412L75.9431 26.3838ZM90.652 22H86.46V8.8486H90.652C90.8712 8.8486 91.6383 8.8486 92.2502 8.92167C95.3828 9.31438 97.0907 12.0817 97.0907 15.4243C97.0907 18.7761 95.3828 21.5342 92.2502 21.9269C91.6475 22 90.862 22 90.652 22ZM88.6975 10.9218V19.9268H90.652C91.0173 19.9268 91.6566 19.9177 92.1041 19.8264C93.9672 19.4702 94.7618 17.4883 94.7618 15.4243C94.7618 13.2781 93.9216 11.3693 92.1041 11.0222C91.6566 10.9309 91.0173 10.9218 90.652 10.9218H88.6975ZM103.734 22.274C100.738 22.274 98.7016 20.1734 98.7016 17.1778C98.7016 13.9448 100.702 11.8625 103.606 11.8625C106.666 11.8625 108.456 14.1274 108.2 17.6801H101.058C101.231 19.3058 102.108 20.2099 103.606 20.2099C104.684 20.2099 105.487 19.7168 105.917 18.8035L108.09 19.461C107.332 21.2511 105.634 22.274 103.734 22.274ZM103.697 13.7895C102.218 13.7895 101.368 14.5567 101.113 16.0179H105.971C105.78 14.4745 105.058 13.7895 103.697 13.7895ZM112.18 22H109.952V12.1365H111.915V13.2324C112.637 12.383 113.715 11.8533 115.139 11.8533C118.774 11.8533 119.021 15.3238 119.021 16.4929V22H116.792V17.2509C116.792 16.0362 116.591 13.9265 114.491 13.9265C113.368 13.9265 112.18 14.5384 112.18 16.9312V22ZM127.185 20.1552V22C125.231 22.3744 123.24 22.2009 122.473 20.7853C122.016 19.936 122.098 19.1049 122.098 17.9724V13.8626H120.308V12.1365H122.098V9.39658H124.29V12.1365H127.185V13.8626H124.29V17.8445C124.29 18.63 124.254 19.2419 124.491 19.6163C124.929 20.3469 125.952 20.3378 127.185 20.1552ZM132.064 22.274C129.918 22.274 128.758 20.9223 128.758 19.2967C128.758 17.8628 129.443 16.8856 131.005 16.3467C132.046 16.0088 133.571 15.7988 135.297 15.543C135.215 14.4105 134.622 13.8808 133.279 13.8808C132.393 13.8808 131.452 14.2553 131.124 15.2599L129.114 14.6297C129.598 12.9675 130.959 11.8625 133.279 11.8625C135.033 11.8625 136.43 12.3922 137.078 13.6982C137.425 14.3923 137.453 15.0955 137.453 15.9449V22H135.526V20.6757C134.685 21.7717 133.635 22.274 132.064 22.274ZM132.503 20.5205C134 20.5205 134.832 19.5706 135.051 18.8857C135.233 18.4382 135.261 17.8171 135.27 17.3513C133.699 17.5979 132.804 17.7349 132.11 17.9724C131.352 18.2555 130.914 18.63 130.914 19.2693C130.914 19.9908 131.462 20.5205 132.503 20.5205ZM142.214 22H140.013V8.8486H142.214V22Z" fill="white"/>
</g>
</svg>
