<svg width="145" height="40" viewBox="0 0 145 40" fill="none" xmlns="http://www.w3.org/2000/svg">
<g opacity="0.4">
<path d="M21.5254 23.8574C22.8265 20.1848 30.9522 18.9567 29.3936 24.2432C28.476 27.3482 26.5788 30.0733 23.9854 32.0117C21.3916 33.9502 18.24 34.9985 15.002 34.999L3.77441 35C1.89417 35 0 33.3744 0 31.4941V23.9707C0 19.6759 5.07224 19.8347 6.18457 23.2256C7.12097 26.0899 8.4477 28.5853 9.5166 29.4785C12.2081 31.7143 12.5353 25.9783 12.833 24.7754C13.3213 22.7676 14.6029 22.7676 15.0928 24.7754C15.3905 25.9664 15.7171 31.7087 18.4102 29.4727C19.3986 28.6523 20.6084 26.4475 21.5254 23.8574ZM15.0049 5.00098C18.8303 5.00152 22.5114 6.46281 25.2949 9.08691C28.0782 11.7108 29.7534 15.2988 29.9795 19.1172C26.3284 16.8331 22.7238 20.4718 22.8965 17.6602C23.0736 14.7678 22.4071 12.2744 20.1445 11.7607C16.9944 11.0477 15.0991 14.8498 9.88867 13.5859C11.0216 13.5368 12.5267 13.2673 13.3291 12.6719C11.6975 12.4441 9.6842 11.2888 7.78906 11.7607C5.53258 12.3251 4.85701 14.756 5.04004 17.6602C5.21571 20.3369 2.91234 17.0116 0.00488281 19.1182V8.50684C0.00488281 5.99835 1.28421 5.00098 3.7793 5.00098H15.0049Z" fill="white"/>
<path d="M41.8234 27H39.6224V13.8486H41.8234V27ZM49.4361 27H47.226L43.6459 17.1365H45.8469L48.3311 24.2875L50.8061 17.1365H53.0162L49.4361 27ZM58.655 27.274C55.6868 27.274 53.7506 25.1186 53.7506 22.0682C53.7506 18.9722 55.7416 16.8625 58.655 16.8625C61.6323 16.8625 63.5776 19.0178 63.5776 22.0682C63.5776 25.146 61.6049 27.274 58.655 27.274ZM58.655 25.2099C60.3993 25.2099 61.2487 23.9222 61.2487 22.0682C61.2487 20.1594 60.3811 18.9265 58.655 18.9265C56.8832 18.9265 56.0795 20.2051 56.0795 22.0682C56.0795 23.9861 56.9562 25.2099 58.655 25.2099ZM67.8 27H65.5898V17.1365H67.5352V18.7164C67.7817 18.2872 68.1105 17.9128 68.5215 17.657C69.2521 17.1547 70.2568 16.9995 71.1427 17.1365V19.1914C70.549 19.027 69.7179 19.0726 69.106 19.4288C68.2019 19.922 67.8 20.8444 67.8 21.986V27ZM75.9431 31.3838H73.8791L75.5048 26.9269L71.5137 17.1365H73.806L76.5642 24.1962L79.2401 17.1365H81.4412L75.9431 31.3838ZM90.652 27H86.46V13.8486H90.652C90.8712 13.8486 91.6383 13.8486 92.2502 13.9217C95.3828 14.3144 97.0907 17.0817 97.0907 20.4243C97.0907 23.7761 95.3828 26.5342 92.2502 26.9269C91.6475 27 90.862 27 90.652 27ZM88.6975 15.9218V24.9268H90.652C91.0173 24.9268 91.6566 24.9177 92.1041 24.8264C93.9672 24.4702 94.7618 22.4883 94.7618 20.4243C94.7618 18.2781 93.9216 16.3693 92.1041 16.0222C91.6566 15.9309 91.0173 15.9218 90.652 15.9218H88.6975ZM103.734 27.274C100.738 27.274 98.7016 25.1734 98.7016 22.1778C98.7016 18.9448 100.702 16.8625 103.606 16.8625C106.666 16.8625 108.456 19.1274 108.2 22.6801H101.058C101.231 24.3058 102.108 25.2099 103.606 25.2099C104.684 25.2099 105.487 24.7168 105.917 23.8035L108.09 24.461C107.332 26.2511 105.634 27.274 103.734 27.274ZM103.697 18.7895C102.218 18.7895 101.368 19.5567 101.113 21.0179H105.971C105.78 19.4745 105.058 18.7895 103.697 18.7895ZM112.18 27H109.952V17.1365H111.915V18.2324C112.637 17.383 113.715 16.8533 115.139 16.8533C118.774 16.8533 119.021 20.3238 119.021 21.4929V27H116.792V22.2509C116.792 21.0362 116.591 18.9265 114.491 18.9265C113.368 18.9265 112.18 19.5384 112.18 21.9312V27ZM127.185 25.1552V27C125.231 27.3744 123.24 27.2009 122.473 25.7853C122.016 24.936 122.098 24.1049 122.098 22.9724V18.8626H120.308V17.1365H122.098V14.3966H124.29V17.1365H127.185V18.8626H124.29V22.8445C124.29 23.63 124.254 24.2419 124.491 24.6163C124.929 25.3469 125.952 25.3378 127.185 25.1552ZM132.064 27.274C129.918 27.274 128.758 25.9223 128.758 24.2967C128.758 22.8628 129.443 21.8856 131.005 21.3467C132.046 21.0088 133.571 20.7988 135.297 20.543C135.215 19.4105 134.622 18.8808 133.279 18.8808C132.393 18.8808 131.452 19.2553 131.124 20.2599L129.114 19.6297C129.598 17.9675 130.959 16.8625 133.279 16.8625C135.033 16.8625 136.43 17.3922 137.078 18.6982C137.425 19.3923 137.453 20.0955 137.453 20.9449V27H135.526V25.6757C134.685 26.7717 133.635 27.274 132.064 27.274ZM132.503 25.5205C134 25.5205 134.832 24.5706 135.051 23.8857C135.233 23.4382 135.261 22.8171 135.27 22.3513C133.699 22.5979 132.804 22.7349 132.11 22.9724C131.352 23.2555 130.914 23.63 130.914 24.2693C130.914 24.9908 131.462 25.5205 132.503 25.5205ZM142.214 27H140.013V13.8486H142.214V27Z" fill="white"/>
</g>
</svg>
