<svg width="64" height="40" viewBox="0 0 64 40" fill="none" xmlns="http://www.w3.org/2000/svg">
<g opacity="0.4" clip-path="url(#clip0_174_519)">
<path d="M57.0175 1.23438H6.86663C3.75589 1.23438 1.23413 3.75613 1.23413 6.86687V33.1319C1.23413 36.2426 3.75589 38.7644 6.86663 38.7644H57.0175C60.1282 38.7644 62.65 36.2426 62.65 33.1319V6.86687C62.65 3.75613 60.1282 1.23438 57.0175 1.23438Z" stroke="white" stroke-width="2.47" stroke-miterlimit="10"/>
<path d="M14.1601 33.767C13.8418 33.767 13.5367 33.6406 13.3116 33.4155C13.0866 33.1905 12.9602 32.8853 12.9602 32.5671V26.5215C12.9593 26.2063 13.0824 25.9034 13.303 25.6782L19.5269 19.4321C19.7516 19.2091 20.0554 19.084 20.3719 19.084C20.6885 19.084 20.9923 19.2091 21.217 19.4321C21.4399 19.6568 21.565 19.9605 21.565 20.2771C21.565 20.5937 21.4399 20.8974 21.217 21.1221L15.3411 27.0186V32.5808C15.3375 32.8934 15.2121 33.1923 14.9916 33.4139C14.771 33.6354 14.4727 33.7621 14.1601 33.767Z" fill="white"/>
<path d="M14.1601 27.7111C14.0033 27.7127 13.8478 27.6832 13.7025 27.6243C13.5571 27.5655 13.4249 27.4785 13.3134 27.3683L7.0895 21.1221C6.86655 20.8974 6.74146 20.5937 6.74146 20.2771C6.74146 19.9605 6.86655 19.6568 7.0895 19.4321C7.31424 19.2091 7.61799 19.084 7.93456 19.084C8.25113 19.084 8.55486 19.2091 8.77959 19.4321L15.0035 25.6782C15.2264 25.9029 15.3515 26.2067 15.3515 26.5232C15.3515 26.8398 15.2264 27.1435 15.0035 27.3683C14.7783 27.5889 14.4754 27.712 14.1601 27.7111Z" fill="white"/>
<path d="M25.6257 32.7124V12.7638C25.6257 11.189 26.2513 9.67878 27.3648 8.56527C28.4783 7.45175 29.9886 6.82617 31.5633 6.82617C33.1381 6.82617 34.6483 7.45175 35.7619 8.56527C36.8754 9.67878 37.501 11.189 37.501 12.7638V32.7124" stroke="white" stroke-width="2.48543" stroke-linecap="round" stroke-linejoin="round"/>
<path d="M43.7023 33.7661C43.3841 33.7661 43.0789 33.6396 42.8539 33.4146C42.6289 33.1896 42.5024 32.8844 42.5024 32.5662V22.3639C42.5024 22.0457 42.6289 21.7405 42.8539 21.5155C43.0789 21.2905 43.3841 21.1641 43.7023 21.1641C44.0205 21.1641 44.3257 21.2905 44.5507 21.5155C44.7758 21.7405 44.9022 22.0457 44.9022 22.3639V32.5662C44.9022 32.8844 44.7758 33.1896 44.5507 33.4146C44.3257 33.6396 44.0205 33.7661 43.7023 33.7661Z" fill="white"/>
<path d="M50.6051 28.5626C49.9451 28.5626 50.6051 28.0279 50.6051 27.3628C50.6051 26.6977 49.9451 26.1629 50.6051 26.1629C51.6233 26.1616 52.5993 25.7564 53.3192 25.0362C54.039 24.3161 54.4437 23.3398 54.4446 22.3216V22.2565C54.4446 21.9383 54.5711 21.6331 54.7961 21.4081C55.0211 21.1831 55.3263 21.0566 55.6445 21.0566C55.9627 21.0566 56.2679 21.1831 56.4929 21.4081C56.7179 21.6331 56.8444 21.9383 56.8444 22.2565V22.3216C56.8467 23.14 56.6867 23.9508 56.3737 24.7069C56.0606 25.4631 55.6007 26.1496 55.0206 26.7268C54.4432 27.3105 53.7554 27.7733 52.9973 28.0885C52.2393 28.4037 51.426 28.5649 50.6051 28.5626Z" fill="white"/>
<path d="M55.6392 33.6662C55.321 33.6662 55.0158 33.5398 54.7908 33.3147C54.5658 33.0897 54.4394 32.7845 54.4394 32.4663V32.3995C54.438 31.3816 54.033 30.4058 53.3133 29.686C52.5935 28.9662 51.6177 28.5613 50.5998 28.5599L43.6972 28.661C43.379 28.661 43.0738 28.5346 42.8487 28.3096C42.6237 28.0846 42.4973 27.7794 42.4973 27.4612C42.4973 27.1429 42.6237 26.8378 42.8487 26.6127C43.0738 26.3877 43.379 26.2613 43.6972 26.2613L50.5998 26.1602C51.4182 26.158 52.2288 26.3181 52.985 26.6312C53.7411 26.9442 54.4277 27.404 55.005 27.984C55.585 28.5613 56.0448 29.2479 56.3578 30.004C56.6709 30.7602 56.831 31.5708 56.8288 32.3892V32.456C56.8302 32.6136 56.8005 32.7699 56.7414 32.916C56.6824 33.0621 56.5951 33.1951 56.4847 33.3075C56.3742 33.4199 56.2427 33.5094 56.0976 33.5709C55.9526 33.6325 55.7968 33.6648 55.6392 33.6662Z" fill="white"/>
<path d="M56.0954 18.7406C55.8097 18.7397 55.5338 18.637 55.3171 18.4509L45.4183 9.94557V17.5458C45.4183 17.8641 45.2919 18.1692 45.0669 18.3943C44.8418 18.6193 44.5366 18.7457 44.2184 18.7457C43.9002 18.7457 43.595 18.6193 43.37 18.3943C43.145 18.1692 43.0186 17.8641 43.0186 17.5458V7.34358C43.019 7.11496 43.0847 6.89122 43.208 6.69869C43.3313 6.50616 43.507 6.35287 43.7145 6.25685C43.9226 6.16181 44.1536 6.12826 44.3801 6.16015C44.6067 6.19204 44.8194 6.28804 44.9932 6.43683L54.8903 14.9438V7.42414C54.8903 7.10592 55.0168 6.80073 55.2418 6.57571C55.4668 6.35069 55.772 6.22428 56.0902 6.22428C56.4084 6.22428 56.7136 6.35069 56.9386 6.57571C57.1636 6.80073 57.2901 7.10592 57.2901 7.42414V17.5458C57.2893 17.7742 57.2235 17.9975 57.1002 18.1897C56.9769 18.3819 56.8014 18.535 56.5942 18.6309C56.4377 18.7028 56.2676 18.7402 56.0954 18.7406Z" fill="white"/>
<path d="M8.22241 15.1772V6.82617L14.16 11.725L20.0976 6.82617V15.1772" stroke="white" stroke-width="2.48543" stroke-linecap="round" stroke-linejoin="round"/>
<path d="M31.3901 23.2459C32.3263 23.2459 33.0853 22.487 33.0853 21.5507C33.0853 20.6145 32.3263 19.8555 31.3901 19.8555C30.4538 19.8555 29.6948 20.6145 29.6948 21.5507C29.6948 22.487 30.4538 23.2459 31.3901 23.2459Z" fill="white"/>
</g>
<defs>
<clipPath id="clip0_174_519">
<rect width="63.8858" height="40" fill="white"/>
</clipPath>
</defs>
</svg>
