<svg width="101" height="40" viewBox="0 0 101 40" fill="none" xmlns="http://www.w3.org/2000/svg">
<g opacity="0.4">
<path d="M9.93541 9.52142C11.8161 9.41933 13.7127 9.54638 15.5821 9.26053C17.2172 8.98577 18.7956 8.44227 20.2532 7.65205C20.6412 7.44787 21.0337 7.23916 21.4261 7.02363C18.3488 5.38804 14.7899 4.90074 11.3862 5.6489C7.98243 6.39707 4.95593 8.33189 2.84814 11.1072C5.05328 10.0795 7.52157 9.64846 9.93541 9.52142Z" fill="url(#paint0_linear_174_721)"/>
<path d="M21.4002 7.57491C18.8904 9.04453 16.0497 9.85539 13.1423 9.93204C9.73933 10.0273 6.26374 10.0409 3.11031 11.4974C2.83354 11.6267 2.55223 11.7651 2.26865 11.9148C1.08149 13.712 0.30675 15.7495 0 17.8814C2.77683 15.7511 5.75103 14.0065 9.27199 13.4144C13.4214 12.7157 17.7136 13.208 21.711 11.6403C22.9095 11.1641 24.0376 10.5268 25.0641 9.74601C24.1279 8.78838 23.0663 7.96189 21.9084 7.28906L21.4002 7.57491Z" fill="url(#paint1_linear_174_721)"/>
<path d="M20.2592 18.9138C18.1629 19.1112 16.0327 19.1407 14.0181 19.8213C12.1342 20.4543 10.3341 21.3136 8.65726 22.3803C6.25703 23.9184 4.18801 26.1848 2.69751 28.703C3.51033 29.8061 4.47235 30.7911 5.55602 31.6296C7.69536 30.9195 9.37189 29.5334 11.0144 27.9181C12.9223 26.0374 14.8371 24.2769 17.1942 22.9565C19.7079 21.5477 22.7637 20.3998 25.6926 20.5835C26.8927 20.6584 28.027 21.0168 29.1591 21.3866C29.2022 20.9329 29.2271 20.4656 29.2271 19.9982C29.224 18.79 29.0716 17.5868 28.7734 16.416C26.0669 17.6865 23.3218 18.6234 20.2592 18.9138Z" fill="url(#paint2_linear_174_721)"/>
<path d="M16.4219 18.7836C18.5181 18.4977 20.6416 18.5 22.7219 18.0826C24.7854 17.6385 26.7821 16.927 28.6613 15.9659C28.2354 14.4733 27.5745 13.0581 26.7034 11.7734C23.9311 14.3325 19.9292 15.7731 16.3674 16.4128C13.0734 17.005 9.64543 17.2704 6.53964 18.6134C5.64442 18.9984 4.80505 19.502 4.04412 20.1107C2.64209 21.54 1.37847 23.2868 0.779541 25.2152C1.19304 26.3007 1.73372 27.3333 2.39028 28.2915C5.44615 23.3458 10.6595 19.5821 16.4219 18.7836Z" fill="url(#paint3_linear_174_721)"/>
<path d="M16.0544 34.6148C17.5654 33.4555 18.8494 31.9809 20.138 30.6038C21.624 29.0158 22.9716 27.464 25.0156 26.6087C25.9766 26.2201 26.984 25.9577 28.0125 25.8283C28.2861 25.1929 28.5136 24.5386 28.6931 23.8705C27.0755 23.8047 25.4739 23.8705 23.8858 24.4195C21.6172 25.1863 19.6684 26.6019 18.0599 28.3465C16.4514 30.0911 14.9791 31.534 12.8125 32.4914C11.5887 33.0155 10.3071 33.3924 8.99438 33.6144C10.7495 34.3278 12.6262 34.6945 14.5208 34.6942C15.0494 34.6942 15.5553 34.6647 16.0544 34.6148Z" fill="url(#paint4_linear_174_721)"/>
<path d="M24.4198 27.424C22.344 28.5311 20.8671 30.5706 19.2564 32.2358C18.485 33.0344 17.7296 33.8057 16.9128 34.5045C19.2462 34.12 21.4525 33.1786 23.3446 31.76C25.2367 30.3415 26.7589 28.4875 27.782 26.3555C26.6095 26.5218 25.4731 26.8829 24.4198 27.424Z" fill="url(#paint5_linear_174_721)"/>
<path d="M45.3683 28.3306C40.8058 28.3306 37.2793 24.8041 37.2793 20.0653C37.2793 15.3265 40.8058 11.8441 45.3683 11.8441C49.9528 11.8441 53.5013 15.3265 53.5013 20.0653C53.5013 24.8041 49.9528 28.3306 45.3683 28.3306ZM45.3683 25.3331C48.2776 25.3331 50.0409 22.9747 50.0409 20.0653C50.0409 17.1559 48.2776 14.8416 45.3683 14.8416C42.4809 14.8416 40.7176 17.1559 40.7176 20.0653C40.7176 22.9747 42.4809 25.3331 45.3683 25.3331ZM58.611 22.2914V28H55.5473V16.2302H58.3686V18.5004C59.2281 17.0016 61.0575 16.098 62.953 16.098V19.2718C60.3522 19.0735 58.611 19.6906 58.611 22.2914ZM71.7077 23.0408V16.2302H74.7494V28H71.9502V26.4571C71.311 27.4931 70.0106 28.2204 68.5118 28.2204C66.1534 28.2204 64.4343 26.7878 64.4343 23.7241V16.2302H67.4979V23.129C67.4979 24.782 68.3134 25.5094 69.5477 25.5094C70.6498 25.5094 71.7077 24.6278 71.7077 23.0408ZM88.1037 16.2302L83.7837 28H80.4335L76.0914 16.2302H79.3976L82.1967 24.5176L85.018 16.2302H88.1037ZM96.1556 28V26.5453C95.3842 27.6473 94.2161 28.2204 92.6071 28.2204C90.1605 28.2204 88.5295 26.7878 88.5295 24.5837C88.5295 22.2914 90.3809 21.0571 93.8193 21.0571C94.4805 21.0571 95.0536 21.1012 95.7809 21.1894V20.4841C95.7809 19.1616 95.0316 18.3902 93.7532 18.3902C92.4307 18.3902 91.6373 19.1616 91.5271 20.4841H88.772C88.9483 17.7731 90.9099 16.0098 93.7532 16.0098C96.8389 16.0098 98.6463 17.7069 98.6463 20.5943V28H96.1556ZM91.4169 24.4955C91.4169 25.4873 92.1222 26.1045 93.2683 26.1045C94.8332 26.1045 95.7809 25.2449 95.7809 23.8784V23.0408C95.0536 22.9306 94.5467 22.8865 94.0177 22.8865C92.2765 22.8865 91.4169 23.4376 91.4169 24.4955Z" fill="white"/>
</g>
<defs>
<linearGradient id="paint0_linear_174_721" x1="3.05997" y1="9.89848" x2="16.5913" y2="0.206677" gradientUnits="userSpaceOnUse">
<stop stop-color="white"/>
<stop offset="1" stop-color="white" stop-opacity="0.75"/>
</linearGradient>
<linearGradient id="paint1_linear_174_721" x1="-1.82454e-05" y1="17.5513" x2="21.3025" y2="3.97772" gradientUnits="userSpaceOnUse">
<stop stop-color="white" stop-opacity="0.75"/>
<stop offset="1" stop-color="white"/>
</linearGradient>
<linearGradient id="paint2_linear_174_721" x1="3.06135" y1="29.1823" x2="28.5251" y2="17.9024" gradientUnits="userSpaceOnUse">
<stop stop-color="white" stop-opacity="0.75"/>
<stop offset="1" stop-color="white"/>
</linearGradient>
<linearGradient id="paint3_linear_174_721" x1="0.611402" y1="24.8978" x2="28.1624" y2="14.1835" gradientUnits="userSpaceOnUse">
<stop stop-color="white"/>
<stop offset="1" stop-color="white" stop-opacity="0.75"/>
</linearGradient>
<linearGradient id="paint4_linear_174_721" x1="10.1012" y1="34.6942" x2="28.2385" y2="23.9898" gradientUnits="userSpaceOnUse">
<stop stop-color="white"/>
<stop offset="1" stop-color="white" stop-opacity="0.75"/>
</linearGradient>
<linearGradient id="paint5_linear_174_721" x1="16.5307" y1="33.7768" x2="28.7277" y2="28.4073" gradientUnits="userSpaceOnUse">
<stop stop-color="white" stop-opacity="0.75"/>
<stop offset="1" stop-color="white"/>
</linearGradient>
</defs>
</svg>
