<svg width="101" height="30" viewBox="0 0 101 30" fill="none" xmlns="http://www.w3.org/2000/svg">
<g opacity="0.4">
<path d="M9.93541 4.52142C11.8161 4.41933 13.7127 4.54638 15.5821 4.26053C17.2172 3.98577 18.7956 3.44227 20.2532 2.65205C20.6412 2.44787 21.0337 2.23916 21.4261 2.02363C18.3488 0.38804 14.7899 -0.0992644 11.3862 0.648901C7.98243 1.39707 4.95593 3.33189 2.84814 6.10721C5.05328 5.07951 7.52157 4.64846 9.93541 4.52142Z" fill="url(#paint0_linear_174_722)"/>
<path d="M21.4002 2.57491C18.8904 4.04453 16.0497 4.85539 13.1423 4.93204C9.73933 5.02733 6.26374 5.04094 3.11031 6.49741C2.83354 6.62673 2.55223 6.76511 2.26865 6.91485C1.08149 8.71196 0.30675 10.7495 0 12.8814C2.77683 10.7511 5.75103 9.00654 9.27199 8.41442C13.4214 7.71568 17.7136 8.20798 21.711 6.64034C22.9095 6.16408 24.0376 5.52677 25.0641 4.74601C24.1279 3.78838 23.0663 2.96189 21.9084 2.28906L21.4002 2.57491Z" fill="url(#paint1_linear_174_722)"/>
<path d="M20.2592 13.9138C18.1629 14.1112 16.0327 14.1407 14.0181 14.8213C12.1342 15.4543 10.3341 16.3136 8.65726 17.3803C6.25703 18.9184 4.18801 21.1848 2.69751 23.703C3.51033 24.8061 4.47235 25.7911 5.55602 26.6296C7.69536 25.9195 9.37189 24.5334 11.0144 22.9181C12.9223 21.0374 14.8371 19.2769 17.1942 17.9565C19.7079 16.5477 22.7637 15.3998 25.6926 15.5835C26.8927 15.6584 28.027 16.0168 29.1591 16.3866C29.2022 15.9329 29.2271 15.4656 29.2271 14.9982C29.224 13.79 29.0716 12.5868 28.7734 11.416C26.0669 12.6865 23.3218 13.6234 20.2592 13.9138Z" fill="url(#paint2_linear_174_722)"/>
<path d="M16.4219 13.7836C18.5181 13.4977 20.6416 13.5 22.7219 13.0826C24.7854 12.6385 26.7821 11.927 28.6613 10.9659C28.2354 9.47334 27.5745 8.05813 26.7034 6.77344C23.9311 9.33248 19.9292 10.7731 16.3674 11.4128C13.0734 12.005 9.64543 12.2704 6.53964 13.6134C5.64442 13.9984 4.80505 14.502 4.04412 15.1107C2.64209 16.54 1.37847 18.2868 0.779541 20.2152C1.19304 21.3007 1.73372 22.3333 2.39028 23.2915C5.44615 18.3458 10.6595 14.5821 16.4219 13.7836Z" fill="url(#paint3_linear_174_722)"/>
<path d="M16.0544 29.6148C17.5654 28.4555 18.8494 26.9809 20.138 25.6038C21.624 24.0158 22.9716 22.464 25.0156 21.6087C25.9766 21.2201 26.984 20.9577 28.0125 20.8283C28.2861 20.1929 28.5136 19.5386 28.6931 18.8705C27.0755 18.8047 25.4739 18.8705 23.8858 19.4195C21.6172 20.1863 19.6684 21.6019 18.0599 23.3465C16.4514 25.0911 14.9791 26.534 12.8125 27.4914C11.5887 28.0155 10.3071 28.3924 8.99438 28.6144C10.7495 29.3278 12.6262 29.6945 14.5208 29.6942C15.0494 29.6942 15.5553 29.6647 16.0544 29.6148Z" fill="url(#paint4_linear_174_722)"/>
<path d="M24.4198 22.424C22.344 23.5311 20.8671 25.5706 19.2564 27.2358C18.485 28.0344 17.7296 28.8057 16.9128 29.5045C19.2462 29.12 21.4525 28.1786 23.3446 26.76C25.2367 25.3415 26.7589 23.4875 27.782 21.3555C26.6095 21.5218 25.4731 21.8829 24.4198 22.424Z" fill="url(#paint5_linear_174_722)"/>
<path d="M45.3683 23.3306C40.8058 23.3306 37.2793 19.8041 37.2793 15.0653C37.2793 10.3265 40.8058 6.84408 45.3683 6.84408C49.9528 6.84408 53.5013 10.3265 53.5013 15.0653C53.5013 19.8041 49.9528 23.3306 45.3683 23.3306ZM45.3683 20.3331C48.2776 20.3331 50.0409 17.9747 50.0409 15.0653C50.0409 12.1559 48.2776 9.84163 45.3683 9.84163C42.4809 9.84163 40.7176 12.1559 40.7176 15.0653C40.7176 17.9747 42.4809 20.3331 45.3683 20.3331ZM58.611 17.2914V23H55.5473V11.2302H58.3686V13.5004C59.2281 12.0016 61.0575 11.098 62.953 11.098V14.2718C60.3522 14.0735 58.611 14.6906 58.611 17.2914ZM71.7077 18.0408V11.2302H74.7494V23H71.9502V21.4571C71.311 22.4931 70.0106 23.2204 68.5118 23.2204C66.1534 23.2204 64.4343 21.7878 64.4343 18.7241V11.2302H67.4979V18.129C67.4979 19.782 68.3134 20.5094 69.5477 20.5094C70.6498 20.5094 71.7077 19.6278 71.7077 18.0408ZM88.1037 11.2302L83.7837 23H80.4335L76.0914 11.2302H79.3976L82.1967 19.5176L85.018 11.2302H88.1037ZM96.1556 23V21.5453C95.3842 22.6473 94.2161 23.2204 92.6071 23.2204C90.1605 23.2204 88.5295 21.7878 88.5295 19.5837C88.5295 17.2914 90.3809 16.0571 93.8193 16.0571C94.4805 16.0571 95.0536 16.1012 95.7809 16.1894V15.4841C95.7809 14.1616 95.0316 13.3902 93.7532 13.3902C92.4307 13.3902 91.6373 14.1616 91.5271 15.4841H88.772C88.9483 12.7731 90.9099 11.0098 93.7532 11.0098C96.8389 11.0098 98.6463 12.7069 98.6463 15.5943V23H96.1556ZM91.4169 19.4955C91.4169 20.4873 92.1222 21.1045 93.2683 21.1045C94.8332 21.1045 95.7809 20.2449 95.7809 18.8784V18.0408C95.0536 17.9306 94.5467 17.8865 94.0177 17.8865C92.2765 17.8865 91.4169 18.4376 91.4169 19.4955Z" fill="white"/>
</g>
<defs>
<linearGradient id="paint0_linear_174_722" x1="3.05997" y1="4.89848" x2="16.5913" y2="-4.79332" gradientUnits="userSpaceOnUse">
<stop stop-color="white"/>
<stop offset="1" stop-color="white" stop-opacity="0.75"/>
</linearGradient>
<linearGradient id="paint1_linear_174_722" x1="-1.82454e-05" y1="12.5513" x2="21.3025" y2="-1.02228" gradientUnits="userSpaceOnUse">
<stop stop-color="white" stop-opacity="0.75"/>
<stop offset="1" stop-color="white"/>
</linearGradient>
<linearGradient id="paint2_linear_174_722" x1="3.06135" y1="24.1823" x2="28.5251" y2="12.9024" gradientUnits="userSpaceOnUse">
<stop stop-color="white" stop-opacity="0.75"/>
<stop offset="1" stop-color="white"/>
</linearGradient>
<linearGradient id="paint3_linear_174_722" x1="0.611402" y1="19.8978" x2="28.1624" y2="9.18355" gradientUnits="userSpaceOnUse">
<stop stop-color="white"/>
<stop offset="1" stop-color="white" stop-opacity="0.75"/>
</linearGradient>
<linearGradient id="paint4_linear_174_722" x1="10.1012" y1="29.6942" x2="28.2385" y2="18.9898" gradientUnits="userSpaceOnUse">
<stop stop-color="white"/>
<stop offset="1" stop-color="white" stop-opacity="0.75"/>
</linearGradient>
<linearGradient id="paint5_linear_174_722" x1="16.5307" y1="28.7768" x2="28.7277" y2="23.4073" gradientUnits="userSpaceOnUse">
<stop stop-color="white" stop-opacity="0.75"/>
<stop offset="1" stop-color="white"/>
</linearGradient>
</defs>
</svg>
