<svg width="116" height="32" viewBox="0 0 116 32" fill="none" xmlns="http://www.w3.org/2000/svg">
<g opacity="0.4">
<path fill-rule="evenodd" clip-rule="evenodd" d="M10.4882 0.0390882C10.5851 0.0026668 10.6899 -0.00850849 10.7924 0.00642908L28.1739 2.61142C28.4848 2.6535 28.7831 2.76173 29.0485 2.92884C29.3141 3.096 29.5408 3.31815 29.7132 3.58031C29.8855 3.84245 29.9996 4.13865 30.0478 4.44864C30.096 4.75866 30.0771 5.07558 29.9925 5.3777L24.5803 26.2589C24.4001 26.9129 23.9905 27.4804 23.4266 27.8575C22.8627 28.2345 22.1818 28.3959 21.5086 28.3124L21.1027 28.2514L15.6884 32L17.3211 27.6847L3.77501 25.6547C3.46234 25.6137 3.16212 25.5056 2.89493 25.3381C2.62769 25.1706 2.39945 24.9471 2.22628 24.6835C2.05319 24.4199 1.93901 24.122 1.89138 23.8103C1.84377 23.4985 1.86384 23.1799 1.9504 22.8767L6.48857 5.36595C6.5704 5.05159 6.76543 4.77844 7.03604 4.59875C7.30662 4.4191 7.63393 4.34539 7.95537 4.39191L25.2635 6.98544C25.513 7.02416 25.7682 7.00868 26.0113 6.94018C26.2542 6.87168 26.4796 6.75166 26.6722 6.58838C26.8647 6.42505 27.0199 6.22194 27.1271 5.99335C27.2343 5.7648 27.2913 5.51582 27.2938 5.26339C27.2906 4.82734 27.1298 4.4068 26.8415 4.07965C26.5531 3.75258 26.1563 3.54056 25.7242 3.48261L10.6105 1.21481C10.5028 1.1986 10.4011 1.15394 10.3166 1.08532C10.2321 1.01672 10.1675 0.926597 10.1295 0.824625C10.0915 0.722601 10.0815 0.612103 10.1006 0.50491C10.1196 0.397706 10.167 0.297411 10.2378 0.214702C10.3051 0.135998 10.3912 0.0755127 10.4882 0.0390882ZM19.2497 15.0262C18.8925 14.9823 18.5314 15.0692 18.2332 15.2708C17.935 15.4725 17.7199 15.7754 17.6276 16.1234C17.5844 16.2847 17.5761 16.4534 17.6033 16.6182C17.6305 16.7828 17.6925 16.9398 17.7852 17.0785C17.8779 17.2173 17.9993 17.335 18.141 17.4232C18.2827 17.5114 18.4419 17.5683 18.6074 17.5902C18.9647 17.6341 19.3259 17.5472 19.6241 17.3455C19.9223 17.1439 20.1375 16.8409 20.2297 16.493C20.2729 16.3318 20.281 16.1631 20.2538 15.9985C20.2266 15.8338 20.1646 15.6766 20.0719 15.5378C19.9792 15.399 19.8578 15.2814 19.7161 15.1932C19.5743 15.105 19.4152 15.048 19.2497 15.0262ZM15.2249 14.4512C14.8672 14.4072 14.5057 14.494 14.207 14.6956C13.9083 14.8972 13.6925 15.2002 13.5997 15.5484C13.5565 15.7097 13.5484 15.8785 13.5756 16.0432C13.6028 16.2078 13.6648 16.3648 13.7575 16.5036C13.8502 16.6424 13.9716 16.76 14.1133 16.8482C14.255 16.9364 14.414 16.9933 14.5794 17.0152C14.937 17.0586 15.2985 16.9715 15.597 16.77C15.8955 16.5684 16.1112 16.2658 16.2046 15.918C16.2478 15.7568 16.2562 15.5882 16.229 15.4235C16.2018 15.2589 16.1398 15.1016 16.0471 14.9629C15.9544 14.8241 15.833 14.7064 15.6913 14.6182C15.5495 14.53 15.3904 14.4731 15.2249 14.4512ZM11.1677 13.8851C10.8102 13.8423 10.4494 13.9298 10.151 14.1312C9.85256 14.3326 9.63646 14.6348 9.54248 14.9823C9.49934 15.1436 9.49124 15.3121 9.51842 15.4768C9.54563 15.6415 9.60761 15.7987 9.70034 15.9375C9.79308 16.0763 9.91441 16.1939 10.0561 16.2821C10.1978 16.3702 10.3568 16.4273 10.5223 16.4491C10.8797 16.4919 11.2409 16.4045 11.5393 16.203C11.8376 16.0016 12.0535 15.6994 12.1475 15.3519C12.1906 15.1906 12.199 15.0219 12.1718 14.8571C12.1446 14.6925 12.0826 14.5353 11.9899 14.3965C11.8972 14.2577 11.7758 14.1403 11.6341 14.0521C11.4924 13.9639 11.3332 13.907 11.1677 13.8851Z" fill="white"/>
<path d="M9.01163 2.46761L25.8036 4.98465C25.8813 4.99013 25.9538 5.02611 26.0049 5.08491C26.0561 5.14377 26.0817 5.22086 26.0763 5.29863C26.0708 5.37635 26.0345 5.44891 25.9757 5.50003C25.9169 5.55111 25.84 5.57679 25.7623 5.57136H25.7185L8.92655 3.05432C8.88805 3.04874 8.85083 3.03552 8.8174 3.01565C8.78401 2.99577 8.75471 2.96942 8.73145 2.9383C8.70821 2.90717 8.69119 2.87166 8.6816 2.83402C8.67203 2.79632 8.67002 2.75677 8.67559 2.71828C8.68118 2.67983 8.69441 2.64281 8.71426 2.60941C8.73415 2.57599 8.76046 2.54675 8.79161 2.52347C8.8228 2.50018 8.85845 2.4832 8.89618 2.47362C8.93387 2.46406 8.97315 2.46202 9.01163 2.46761Z" fill="white"/>
<path d="M47.1206 19.22C47.1206 21.47 45.3206 23.18 42.1886 23.18C39.0746 23.18 37.1846 21.47 37.0226 18.896H39.0386C39.1286 20.534 40.1726 21.596 42.1526 21.596C43.7906 21.596 45.0146 20.822 45.0146 19.49C45.0146 18.41 44.3126 17.87 42.8186 17.546L40.9466 17.186C39.1286 16.826 37.4726 15.908 37.4726 13.712C37.4726 11.534 39.3806 9.896 42.0626 9.896C44.7446 9.896 46.7786 11.534 46.9406 14.108H44.9246C44.8166 12.56 43.7006 11.48 42.0806 11.48C40.4066 11.48 39.4886 12.47 39.4886 13.586C39.4886 14.81 40.5506 15.242 41.7566 15.494L43.6646 15.872C45.8786 16.322 47.1206 17.294 47.1206 19.22ZM51.0868 23H49.2688V10.076H51.0868V17.726L55.1728 13.46H57.3148L52.9048 18.086L57.7288 23H55.3888L51.0868 18.482V23ZM61.2211 11.246C61.2211 11.93 60.6811 12.452 59.9071 12.452C59.1331 12.452 58.5751 11.93 58.5751 11.246C58.5751 10.544 59.1331 10.04 59.9071 10.04C60.6811 10.04 61.2211 10.544 61.2211 11.246ZM60.8251 23H59.0071V13.46H60.8251V23ZM65.1849 23H63.3489V10.076H65.1849V23ZM69.5442 23H67.7082V10.076H69.5442V23ZM84.6133 23L77.8093 12.902V23H75.9733V10.076H78.1333L84.7753 19.904V10.076H86.6113V23H84.6133ZM93.183 23.18C90.429 23.18 88.575 21.182 88.575 18.176C88.575 15.35 90.501 13.28 93.129 13.28C95.973 13.28 97.863 15.584 97.539 18.68H90.429C90.573 20.624 91.545 21.758 93.147 21.758C94.497 21.758 95.433 21.02 95.739 19.778H97.539C97.071 21.902 95.433 23.18 93.183 23.18ZM93.093 14.648C91.635 14.648 90.645 15.692 90.447 17.474H95.613C95.523 15.71 94.569 14.648 93.093 14.648ZM107.032 20.156C107.032 22.028 105.574 23.18 103.036 23.18C100.516 23.18 99.0219 21.938 98.8419 19.886H100.588C100.66 21.074 101.614 21.812 103.072 21.812C104.35 21.812 105.196 21.362 105.196 20.462C105.196 19.67 104.71 19.328 103.522 19.094L101.974 18.806C100.21 18.464 99.2199 17.564 99.2199 16.124C99.2199 14.45 100.678 13.28 102.892 13.28C105.178 13.28 106.726 14.504 106.888 16.466H105.142C105.034 15.314 104.188 14.648 102.91 14.648C101.758 14.648 100.984 15.134 100.984 15.962C100.984 16.736 101.47 17.096 102.622 17.312L104.242 17.618C106.132 17.96 107.032 18.788 107.032 20.156ZM114.276 21.236V22.838C113.718 23.09 113.232 23.18 112.656 23.18C110.892 23.18 109.668 22.226 109.668 20.12V15.008H107.562V13.46H109.668V10.634H111.486V13.46H114.366V15.008H111.486V19.706C111.486 21.02 112.116 21.488 113.088 21.488C113.52 21.488 113.898 21.416 114.276 21.236Z" fill="white"/>
</g>
</svg>
