<svg width="115" height="40" viewBox="0 0 115 40" fill="none" xmlns="http://www.w3.org/2000/svg">
<g opacity="0.4">
<path fill-rule="evenodd" clip-rule="evenodd" d="M10.4882 4.03909C10.5851 4.00267 10.6899 3.99149 10.7924 4.00643L28.1739 6.61142C28.4848 6.6535 28.7831 6.76173 29.0485 6.92884C29.3141 7.096 29.5408 7.31815 29.7132 7.58031C29.8855 7.84245 29.9996 8.13865 30.0478 8.44864C30.096 8.75866 30.0771 9.07558 29.9925 9.3777L24.5803 30.2589C24.4001 30.9129 23.9905 31.4804 23.4266 31.8575C22.8627 32.2345 22.1818 32.3959 21.5086 32.3124L21.1027 32.2514L15.6884 36L17.3211 31.6847L3.77501 29.6547C3.46234 29.6137 3.16212 29.5056 2.89493 29.3381C2.62769 29.1706 2.39945 28.9471 2.22628 28.6835C2.05319 28.4199 1.93901 28.122 1.89138 27.8103C1.84377 27.4985 1.86384 27.1799 1.9504 26.8767L6.48857 9.36595C6.5704 9.05159 6.76543 8.77844 7.03604 8.59875C7.30662 8.4191 7.63393 8.34539 7.95537 8.39191L25.2635 10.9854C25.513 11.0242 25.7682 11.0087 26.0113 10.9402C26.2542 10.8717 26.4796 10.7517 26.6722 10.5884C26.8647 10.425 27.0199 10.2219 27.1271 9.99335C27.2343 9.7648 27.2913 9.51582 27.2938 9.26339C27.2906 8.82734 27.1298 8.4068 26.8415 8.07965C26.5531 7.75258 26.1563 7.54056 25.7242 7.48261L10.6105 5.21481C10.5028 5.1986 10.4011 5.15394 10.3166 5.08532C10.2321 5.01672 10.1675 4.9266 10.1295 4.82462C10.0915 4.7226 10.0815 4.6121 10.1006 4.50491C10.1196 4.39771 10.167 4.29741 10.2378 4.2147C10.3051 4.136 10.3912 4.07551 10.4882 4.03909ZM19.2497 19.0262C18.8925 18.9823 18.5314 19.0692 18.2332 19.2708C17.935 19.4725 17.7199 19.7754 17.6276 20.1234C17.5844 20.2847 17.5761 20.4534 17.6033 20.6182C17.6305 20.7828 17.6925 20.9398 17.7852 21.0785C17.8779 21.2173 17.9993 21.335 18.141 21.4232C18.2827 21.5114 18.4419 21.5683 18.6074 21.5902C18.9647 21.6341 19.3259 21.5472 19.6241 21.3455C19.9223 21.1439 20.1375 20.8409 20.2297 20.493C20.2729 20.3318 20.281 20.1631 20.2538 19.9985C20.2266 19.8338 20.1646 19.6766 20.0719 19.5378C19.9792 19.399 19.8578 19.2814 19.7161 19.1932C19.5743 19.105 19.4152 19.048 19.2497 19.0262ZM15.2249 18.4512C14.8672 18.4072 14.5057 18.494 14.207 18.6956C13.9083 18.8972 13.6925 19.2002 13.5997 19.5484C13.5565 19.7097 13.5484 19.8785 13.5756 20.0432C13.6028 20.2078 13.6648 20.3648 13.7575 20.5036C13.8502 20.6424 13.9716 20.76 14.1133 20.8482C14.255 20.9364 14.414 20.9933 14.5794 21.0152C14.937 21.0586 15.2985 20.9715 15.597 20.77C15.8955 20.5684 16.1112 20.2658 16.2046 19.918C16.2478 19.7568 16.2562 19.5882 16.229 19.4235C16.2018 19.2589 16.1398 19.1016 16.0471 18.9629C15.9544 18.8241 15.833 18.7064 15.6913 18.6182C15.5495 18.53 15.3904 18.4731 15.2249 18.4512ZM11.1677 17.8851C10.8102 17.8423 10.4494 17.9298 10.151 18.1312C9.85256 18.3326 9.63646 18.6348 9.54248 18.9823C9.49934 19.1436 9.49124 19.3121 9.51842 19.4768C9.54563 19.6415 9.60761 19.7987 9.70034 19.9375C9.79308 20.0763 9.91441 20.1939 10.0561 20.2821C10.1978 20.3702 10.3568 20.4273 10.5223 20.4491C10.8797 20.4919 11.2409 20.4045 11.5393 20.203C11.8376 20.0016 12.0535 19.6994 12.1475 19.3519C12.1906 19.1906 12.199 19.0219 12.1718 18.8571C12.1446 18.6925 12.0826 18.5353 11.9899 18.3965C11.8972 18.2577 11.7758 18.1403 11.6341 18.0521C11.4924 17.9639 11.3332 17.907 11.1677 17.8851Z" fill="white"/>
<path d="M9.01163 6.46761L25.8036 8.98465C25.8813 8.99013 25.9538 9.02611 26.0049 9.08491C26.0561 9.14377 26.0817 9.22086 26.0763 9.29863C26.0708 9.37635 26.0345 9.44891 25.9757 9.50003C25.9169 9.55111 25.84 9.57679 25.7623 9.57136H25.7185L8.92655 7.05432C8.88805 7.04874 8.85083 7.03552 8.8174 7.01565C8.78401 6.99577 8.75471 6.96942 8.73145 6.9383C8.70821 6.90717 8.69119 6.87166 8.6816 6.83402C8.67203 6.79632 8.67002 6.75677 8.67559 6.71828C8.68118 6.67983 8.69441 6.64281 8.71426 6.60941C8.73415 6.57599 8.76046 6.54675 8.79161 6.52347C8.8228 6.50018 8.85845 6.4832 8.89618 6.47362C8.93387 6.46406 8.97315 6.46202 9.01163 6.46761Z" fill="white"/>
<path d="M47.1206 23.22C47.1206 25.47 45.3206 27.18 42.1886 27.18C39.0746 27.18 37.1846 25.47 37.0226 22.896H39.0386C39.1286 24.534 40.1726 25.596 42.1526 25.596C43.7906 25.596 45.0146 24.822 45.0146 23.49C45.0146 22.41 44.3126 21.87 42.8186 21.546L40.9466 21.186C39.1286 20.826 37.4726 19.908 37.4726 17.712C37.4726 15.534 39.3806 13.896 42.0626 13.896C44.7446 13.896 46.7786 15.534 46.9406 18.108H44.9246C44.8166 16.56 43.7006 15.48 42.0806 15.48C40.4066 15.48 39.4886 16.47 39.4886 17.586C39.4886 18.81 40.5506 19.242 41.7566 19.494L43.6646 19.872C45.8786 20.322 47.1206 21.294 47.1206 23.22ZM51.0868 27H49.2688V14.076H51.0868V21.726L55.1728 17.46H57.3148L52.9048 22.086L57.7288 27H55.3888L51.0868 22.482V27ZM61.2211 15.246C61.2211 15.93 60.6811 16.452 59.9071 16.452C59.1331 16.452 58.5751 15.93 58.5751 15.246C58.5751 14.544 59.1331 14.04 59.9071 14.04C60.6811 14.04 61.2211 14.544 61.2211 15.246ZM60.8251 27H59.0071V17.46H60.8251V27ZM65.1849 27H63.3489V14.076H65.1849V27ZM69.5442 27H67.7082V14.076H69.5442V27ZM84.6133 27L77.8093 16.902V27H75.9733V14.076H78.1333L84.7753 23.904V14.076H86.6113V27H84.6133ZM93.183 27.18C90.429 27.18 88.575 25.182 88.575 22.176C88.575 19.35 90.501 17.28 93.129 17.28C95.973 17.28 97.863 19.584 97.539 22.68H90.429C90.573 24.624 91.545 25.758 93.147 25.758C94.497 25.758 95.433 25.02 95.739 23.778H97.539C97.071 25.902 95.433 27.18 93.183 27.18ZM93.093 18.648C91.635 18.648 90.645 19.692 90.447 21.474H95.613C95.523 19.71 94.569 18.648 93.093 18.648ZM107.032 24.156C107.032 26.028 105.574 27.18 103.036 27.18C100.516 27.18 99.0219 25.938 98.8419 23.886H100.588C100.66 25.074 101.614 25.812 103.072 25.812C104.35 25.812 105.196 25.362 105.196 24.462C105.196 23.67 104.71 23.328 103.522 23.094L101.974 22.806C100.21 22.464 99.2199 21.564 99.2199 20.124C99.2199 18.45 100.678 17.28 102.892 17.28C105.178 17.28 106.726 18.504 106.888 20.466H105.142C105.034 19.314 104.188 18.648 102.91 18.648C101.758 18.648 100.984 19.134 100.984 19.962C100.984 20.736 101.47 21.096 102.622 21.312L104.242 21.618C106.132 21.96 107.032 22.788 107.032 24.156ZM114.276 25.236V26.838C113.718 27.09 113.232 27.18 112.656 27.18C110.892 27.18 109.668 26.226 109.668 24.12V19.008H107.562V17.46H109.668V14.634H111.486V17.46H114.366V19.008H111.486V23.706C111.486 25.02 112.116 25.488 113.088 25.488C113.52 25.488 113.898 25.416 114.276 25.236Z" fill="white"/>
</g>
</svg>
