<svg width="117" height="40" viewBox="0 0 117 40" fill="none" xmlns="http://www.w3.org/2000/svg">
<g opacity="0.4">
<path d="M14.6316 5.40057C14.8214 5.31179 15.0407 5.31179 15.2305 5.40057L26.3715 10.6872L26.415 10.7098C26.6326 10.8334 26.7684 11.0632 26.7684 11.3156V25.0628C26.7684 27.2648 25.6125 29.305 23.7238 30.4381L18.1533 33.7769C16.1688 34.9641 13.6933 34.9641 11.7089 33.7769L6.13837 30.4381C4.24961 29.3048 3.09375 27.2646 3.09375 25.0628V11.3156C3.09375 11.0476 3.24868 10.8021 3.49065 10.6872L14.6316 5.40057ZM15.8554 13.5892C15.469 12.8476 14.3932 12.8476 14.0067 13.5892C13.0528 15.6259 11.6932 17.3424 9.74354 18.5122L8.49539 19.259C7.81824 19.6646 7.81824 20.6464 8.49539 21.052L9.74354 21.7988C11.6149 22.9477 13.0841 24.6328 13.9719 26.6451C14.3357 27.4981 15.5142 27.4459 15.8903 26.6451C16.7763 24.6363 18.2316 22.9321 20.1186 21.7988L21.4277 21.012C22.023 20.5994 22.023 19.7116 21.4277 19.299L20.1186 18.5122C18.169 17.3424 16.8093 15.626 15.8554 13.5892Z" fill="white"/>
<path d="M43.6061 12.4848L47.6439 24.697H47.803L51.8333 12.4848H54.9242L49.4545 28H45.9848L40.5227 12.4848H43.6061ZM56.8466 28V16.3636H59.589V28H56.8466ZM58.2254 14.7121C57.791 14.7121 57.4173 14.5682 57.1042 14.2803C56.791 13.9874 56.6345 13.6364 56.6345 13.2273C56.6345 12.8131 56.791 12.4621 57.1042 12.1742C57.4173 11.8813 57.791 11.7348 58.2254 11.7348C58.6648 11.7348 59.0385 11.8813 59.3466 12.1742C59.6597 12.4621 59.8163 12.8131 59.8163 13.2273C59.8163 13.6364 59.6597 13.9874 59.3466 14.2803C59.0385 14.5682 58.6648 14.7121 58.2254 14.7121ZM71.6061 19.4394L69.1061 19.7121C69.0354 19.4596 68.9116 19.2222 68.7348 19C68.5631 18.7778 68.3308 18.5985 68.0379 18.4621C67.745 18.3258 67.3864 18.2576 66.9621 18.2576C66.3914 18.2576 65.9116 18.3813 65.5227 18.6288C65.1389 18.8763 64.9495 19.197 64.9545 19.5909C64.9495 19.9293 65.0732 20.2045 65.3258 20.4167C65.5833 20.6288 66.0076 20.803 66.5985 20.9394L68.5833 21.3636C69.6843 21.601 70.5025 21.9773 71.0379 22.4924C71.5783 23.0076 71.851 23.6818 71.8561 24.5152C71.851 25.2475 71.6364 25.8939 71.2121 26.4545C70.7929 27.0101 70.2096 27.4444 69.4621 27.7576C68.7146 28.0707 67.8561 28.2273 66.8864 28.2273C65.4621 28.2273 64.3157 27.9293 63.447 27.3333C62.5783 26.7323 62.0606 25.8965 61.8939 24.8258L64.5682 24.5682C64.6894 25.0934 64.947 25.4899 65.3409 25.7576C65.7348 26.0253 66.2475 26.1591 66.8788 26.1591C67.5303 26.1591 68.053 26.0253 68.447 25.7576C68.846 25.4899 69.0455 25.1591 69.0455 24.7652C69.0455 24.4318 68.9167 24.1566 68.6591 23.9394C68.4066 23.7222 68.0126 23.5556 67.4773 23.4394L65.4924 23.0227C64.3763 22.7904 63.5505 22.399 63.0152 21.8485C62.4798 21.2929 62.2146 20.5909 62.2197 19.7424C62.2146 19.0253 62.4091 18.404 62.803 17.8788C63.202 17.3485 63.7551 16.9394 64.4621 16.6515C65.1742 16.3586 65.9949 16.2121 66.9242 16.2121C68.2879 16.2121 69.3611 16.5025 70.1439 17.0833C70.9318 17.6641 71.4192 18.4495 71.6061 19.4394ZM79.928 16.3636V18.4848H73.2386V16.3636H79.928ZM74.8902 13.5758H77.6326V24.5C77.6326 24.8687 77.6881 25.1515 77.7992 25.3485C77.9154 25.5404 78.0669 25.6717 78.2538 25.7424C78.4407 25.8131 78.6477 25.8485 78.875 25.8485C79.0467 25.8485 79.2033 25.8359 79.3447 25.8106C79.4912 25.7854 79.6023 25.7626 79.678 25.7424L80.1402 27.8864C79.9937 27.9369 79.7841 27.9924 79.5114 28.053C79.2437 28.1136 78.9154 28.149 78.5265 28.1591C77.8396 28.1793 77.221 28.0758 76.6705 27.8485C76.12 27.6162 75.6831 27.2576 75.3599 26.7727C75.0417 26.2879 74.8851 25.6818 74.8902 24.9545V13.5758ZM85.5701 28.2348C84.8327 28.2348 84.1686 28.1035 83.5777 27.8409C82.9918 27.5732 82.5271 27.1793 82.1837 26.6591C81.8453 26.1389 81.6761 25.4975 81.6761 24.7348C81.6761 24.0783 81.7973 23.5354 82.0398 23.1061C82.2822 22.6768 82.613 22.3333 83.0322 22.0758C83.4514 21.8182 83.9236 21.6237 84.4489 21.4924C84.9792 21.3561 85.5271 21.2576 86.0928 21.197C86.7746 21.1263 87.3277 21.0631 87.7519 21.0076C88.1761 20.947 88.4842 20.8561 88.6761 20.7348C88.8731 20.6086 88.9716 20.4141 88.9716 20.1515V20.1061C88.9716 19.5354 88.8024 19.0934 88.464 18.7803C88.1256 18.4672 87.6383 18.3106 87.0019 18.3106C86.3302 18.3106 85.7973 18.4571 85.4034 18.75C85.0145 19.0429 84.7519 19.3889 84.6155 19.7879L82.0549 19.4242C82.2569 18.7172 82.5903 18.1263 83.0549 17.6515C83.5196 17.1717 84.0878 16.8131 84.7595 16.5758C85.4312 16.3333 86.1736 16.2121 86.9867 16.2121C87.5473 16.2121 88.1054 16.2778 88.661 16.4091C89.2165 16.5404 89.7241 16.7576 90.1837 17.0606C90.6433 17.3586 91.012 17.7652 91.2898 18.2803C91.5726 18.7955 91.714 19.4394 91.714 20.2121V28H89.0777V26.4015H88.9867C88.8201 26.7247 88.5852 27.0278 88.2822 27.3106C87.9842 27.5884 87.608 27.8131 87.1534 27.9848C86.7039 28.1515 86.1761 28.2348 85.5701 28.2348ZM86.2822 26.2197C86.8327 26.2197 87.31 26.1111 87.714 25.8939C88.1181 25.6717 88.4287 25.3788 88.6458 25.0152C88.8681 24.6515 88.9792 24.2551 88.9792 23.8258V22.4545C88.8933 22.5253 88.7468 22.5909 88.5398 22.6515C88.3378 22.7121 88.1105 22.7652 87.858 22.8106C87.6054 22.8561 87.3554 22.8965 87.108 22.9318C86.8605 22.9672 86.6458 22.9975 86.464 23.0227C86.0549 23.0783 85.6888 23.1692 85.3655 23.2955C85.0423 23.4217 84.7872 23.5985 84.6004 23.8258C84.4135 24.048 84.3201 24.3359 84.3201 24.6894C84.3201 25.1944 84.5044 25.5758 84.8731 25.8333C85.2418 26.0909 85.7115 26.2197 86.2822 26.2197ZM104.449 16.3636L100.305 28H97.2746L93.1307 16.3636H96.0549L98.7292 25.0076H98.8504L101.532 16.3636H104.449ZM109.362 28.2348C108.624 28.2348 107.96 28.1035 107.369 27.8409C106.783 27.5732 106.319 27.1793 105.975 26.6591C105.637 26.1389 105.468 25.4975 105.468 24.7348C105.468 24.0783 105.589 23.5354 105.831 23.1061C106.074 22.6768 106.405 22.3333 106.824 22.0758C107.243 21.8182 107.715 21.6237 108.241 21.4924C108.771 21.3561 109.319 21.2576 109.884 21.197C110.566 21.1263 111.119 21.0631 111.544 21.0076C111.968 20.947 112.276 20.8561 112.468 20.7348C112.665 20.6086 112.763 20.4141 112.763 20.1515V20.1061C112.763 19.5354 112.594 19.0934 112.256 18.7803C111.917 18.4672 111.43 18.3106 110.794 18.3106C110.122 18.3106 109.589 18.4571 109.195 18.75C108.806 19.0429 108.544 19.3889 108.407 19.7879L105.847 19.4242C106.049 18.7172 106.382 18.1263 106.847 17.6515C107.311 17.1717 107.879 16.8131 108.551 16.5758C109.223 16.3333 109.965 16.2121 110.778 16.2121C111.339 16.2121 111.897 16.2778 112.453 16.4091C113.008 16.5404 113.516 16.7576 113.975 17.0606C114.435 17.3586 114.804 17.7652 115.081 18.2803C115.364 18.7955 115.506 19.4394 115.506 20.2121V28H112.869V26.4015H112.778C112.612 26.7247 112.377 27.0278 112.074 27.3106C111.776 27.5884 111.4 27.8131 110.945 27.9848C110.496 28.1515 109.968 28.2348 109.362 28.2348ZM110.074 26.2197C110.624 26.2197 111.102 26.1111 111.506 25.8939C111.91 25.6717 112.22 25.3788 112.438 25.0152C112.66 24.6515 112.771 24.2551 112.771 23.8258V22.4545C112.685 22.5253 112.539 22.5909 112.331 22.6515C112.129 22.7121 111.902 22.7652 111.65 22.8106C111.397 22.8561 111.147 22.8965 110.9 22.9318C110.652 22.9672 110.438 22.9975 110.256 23.0227C109.847 23.0783 109.48 23.1692 109.157 23.2955C108.834 23.4217 108.579 23.5985 108.392 23.8258C108.205 24.048 108.112 24.3359 108.112 24.6894C108.112 25.1944 108.296 25.5758 108.665 25.8333C109.033 26.0909 109.503 26.2197 110.074 26.2197Z" fill="white"/>
</g>
</svg>
