<svg width="117" height="32" viewBox="0 0 117 32" fill="none" xmlns="http://www.w3.org/2000/svg">
<g opacity="0.4">
<path d="M14.6316 1.40057C14.8214 1.31179 15.0407 1.31179 15.2305 1.40057L26.3715 6.6872L26.415 6.70983C26.6326 6.83343 26.7684 7.06321 26.7684 7.31564V21.0628C26.7684 23.2648 25.6125 25.305 23.7238 26.4381L18.1533 29.7769C16.1688 30.9641 13.6933 30.9641 11.7089 29.7769L6.13837 26.4381C4.24961 25.3048 3.09375 23.2646 3.09375 21.0628V7.31564C3.09375 7.04756 3.24868 6.80213 3.49065 6.68719L14.6316 1.40057ZM15.8554 9.58921C15.469 8.84762 14.3932 8.84762 14.0067 9.58921C13.0528 11.6259 11.6932 13.3424 9.74354 14.5122L8.49539 15.259C7.81824 15.6646 7.81824 16.6464 8.49539 17.052L9.74354 17.7988C11.6149 18.9477 13.0841 20.6328 13.9719 22.6451C14.3357 23.4981 15.5142 23.4459 15.8903 22.6451C16.7763 20.6363 18.2316 18.9321 20.1186 17.7988L21.4277 17.012C22.023 16.5994 22.023 15.7116 21.4277 15.299L20.1186 14.5122C18.169 13.3424 16.8093 11.626 15.8554 9.58921Z" fill="white"/>
<path d="M43.6061 8.48485L47.6439 20.697H47.803L51.8333 8.48485H54.9242L49.4545 24H45.9848L40.5227 8.48485H43.6061ZM56.8466 24V12.3636H59.589V24H56.8466ZM58.2254 10.7121C57.791 10.7121 57.4173 10.5682 57.1042 10.2803C56.791 9.98737 56.6345 9.63636 56.6345 9.22727C56.6345 8.81313 56.791 8.46212 57.1042 8.17424C57.4173 7.88131 57.791 7.73485 58.2254 7.73485C58.6648 7.73485 59.0385 7.88131 59.3466 8.17424C59.6597 8.46212 59.8163 8.81313 59.8163 9.22727C59.8163 9.63636 59.6597 9.98737 59.3466 10.2803C59.0385 10.5682 58.6648 10.7121 58.2254 10.7121ZM71.6061 15.4394L69.1061 15.7121C69.0354 15.4596 68.9116 15.2222 68.7348 15C68.5631 14.7778 68.3308 14.5985 68.0379 14.4621C67.745 14.3258 67.3864 14.2576 66.9621 14.2576C66.3914 14.2576 65.9116 14.3813 65.5227 14.6288C65.1389 14.8763 64.9495 15.197 64.9545 15.5909C64.9495 15.9293 65.0732 16.2045 65.3258 16.4167C65.5833 16.6288 66.0076 16.803 66.5985 16.9394L68.5833 17.3636C69.6843 17.601 70.5025 17.9773 71.0379 18.4924C71.5783 19.0076 71.851 19.6818 71.8561 20.5152C71.851 21.2475 71.6364 21.8939 71.2121 22.4545C70.7929 23.0101 70.2096 23.4444 69.4621 23.7576C68.7146 24.0707 67.8561 24.2273 66.8864 24.2273C65.4621 24.2273 64.3157 23.9293 63.447 23.3333C62.5783 22.7323 62.0606 21.8965 61.8939 20.8258L64.5682 20.5682C64.6894 21.0934 64.947 21.4899 65.3409 21.7576C65.7348 22.0253 66.2475 22.1591 66.8788 22.1591C67.5303 22.1591 68.053 22.0253 68.447 21.7576C68.846 21.4899 69.0455 21.1591 69.0455 20.7652C69.0455 20.4318 68.9167 20.1566 68.6591 19.9394C68.4066 19.7222 68.0126 19.5556 67.4773 19.4394L65.4924 19.0227C64.3763 18.7904 63.5505 18.399 63.0152 17.8485C62.4798 17.2929 62.2146 16.5909 62.2197 15.7424C62.2146 15.0253 62.4091 14.404 62.803 13.8788C63.202 13.3485 63.7551 12.9394 64.4621 12.6515C65.1742 12.3586 65.9949 12.2121 66.9242 12.2121C68.2879 12.2121 69.3611 12.5025 70.1439 13.0833C70.9318 13.6641 71.4192 14.4495 71.6061 15.4394ZM79.928 12.3636V14.4848H73.2386V12.3636H79.928ZM74.8902 9.57576H77.6326V20.5C77.6326 20.8687 77.6881 21.1515 77.7992 21.3485C77.9154 21.5404 78.0669 21.6717 78.2538 21.7424C78.4407 21.8131 78.6477 21.8485 78.875 21.8485C79.0467 21.8485 79.2033 21.8359 79.3447 21.8106C79.4912 21.7854 79.6023 21.7626 79.678 21.7424L80.1402 23.8864C79.9937 23.9369 79.7841 23.9924 79.5114 24.053C79.2437 24.1136 78.9154 24.149 78.5265 24.1591C77.8396 24.1793 77.221 24.0758 76.6705 23.8485C76.12 23.6162 75.6831 23.2576 75.3599 22.7727C75.0417 22.2879 74.8851 21.6818 74.8902 20.9545V9.57576ZM85.5701 24.2348C84.8327 24.2348 84.1686 24.1035 83.5777 23.8409C82.9918 23.5732 82.5271 23.1793 82.1837 22.6591C81.8453 22.1389 81.6761 21.4975 81.6761 20.7348C81.6761 20.0783 81.7973 19.5354 82.0398 19.1061C82.2822 18.6768 82.613 18.3333 83.0322 18.0758C83.4514 17.8182 83.9236 17.6237 84.4489 17.4924C84.9792 17.3561 85.5271 17.2576 86.0928 17.197C86.7746 17.1263 87.3277 17.0631 87.7519 17.0076C88.1761 16.947 88.4842 16.8561 88.6761 16.7348C88.8731 16.6086 88.9716 16.4141 88.9716 16.1515V16.1061C88.9716 15.5354 88.8024 15.0934 88.464 14.7803C88.1256 14.4672 87.6383 14.3106 87.0019 14.3106C86.3302 14.3106 85.7973 14.4571 85.4034 14.75C85.0145 15.0429 84.7519 15.3889 84.6155 15.7879L82.0549 15.4242C82.2569 14.7172 82.5903 14.1263 83.0549 13.6515C83.5196 13.1717 84.0878 12.8131 84.7595 12.5758C85.4312 12.3333 86.1736 12.2121 86.9867 12.2121C87.5473 12.2121 88.1054 12.2778 88.661 12.4091C89.2165 12.5404 89.7241 12.7576 90.1837 13.0606C90.6433 13.3586 91.012 13.7652 91.2898 14.2803C91.5726 14.7955 91.714 15.4394 91.714 16.2121V24H89.0777V22.4015H88.9867C88.8201 22.7247 88.5852 23.0278 88.2822 23.3106C87.9842 23.5884 87.608 23.8131 87.1534 23.9848C86.7039 24.1515 86.1761 24.2348 85.5701 24.2348ZM86.2822 22.2197C86.8327 22.2197 87.31 22.1111 87.714 21.8939C88.1181 21.6717 88.4287 21.3788 88.6458 21.0152C88.8681 20.6515 88.9792 20.2551 88.9792 19.8258V18.4545C88.8933 18.5253 88.7468 18.5909 88.5398 18.6515C88.3378 18.7121 88.1105 18.7652 87.858 18.8106C87.6054 18.8561 87.3554 18.8965 87.108 18.9318C86.8605 18.9672 86.6458 18.9975 86.464 19.0227C86.0549 19.0783 85.6888 19.1692 85.3655 19.2955C85.0423 19.4217 84.7872 19.5985 84.6004 19.8258C84.4135 20.048 84.3201 20.3359 84.3201 20.6894C84.3201 21.1944 84.5044 21.5758 84.8731 21.8333C85.2418 22.0909 85.7115 22.2197 86.2822 22.2197ZM104.449 12.3636L100.305 24H97.2746L93.1307 12.3636H96.0549L98.7292 21.0076H98.8504L101.532 12.3636H104.449ZM109.362 24.2348C108.624 24.2348 107.96 24.1035 107.369 23.8409C106.783 23.5732 106.319 23.1793 105.975 22.6591C105.637 22.1389 105.468 21.4975 105.468 20.7348C105.468 20.0783 105.589 19.5354 105.831 19.1061C106.074 18.6768 106.405 18.3333 106.824 18.0758C107.243 17.8182 107.715 17.6237 108.241 17.4924C108.771 17.3561 109.319 17.2576 109.884 17.197C110.566 17.1263 111.119 17.0631 111.544 17.0076C111.968 16.947 112.276 16.8561 112.468 16.7348C112.665 16.6086 112.763 16.4141 112.763 16.1515V16.1061C112.763 15.5354 112.594 15.0934 112.256 14.7803C111.917 14.4672 111.43 14.3106 110.794 14.3106C110.122 14.3106 109.589 14.4571 109.195 14.75C108.806 15.0429 108.544 15.3889 108.407 15.7879L105.847 15.4242C106.049 14.7172 106.382 14.1263 106.847 13.6515C107.311 13.1717 107.879 12.8131 108.551 12.5758C109.223 12.3333 109.965 12.2121 110.778 12.2121C111.339 12.2121 111.897 12.2778 112.453 12.4091C113.008 12.5404 113.516 12.7576 113.975 13.0606C114.435 13.3586 114.804 13.7652 115.081 14.2803C115.364 14.7955 115.506 15.4394 115.506 16.2121V24H112.869V22.4015H112.778C112.612 22.7247 112.377 23.0278 112.074 23.3106C111.776 23.5884 111.4 23.8131 110.945 23.9848C110.496 24.1515 109.968 24.2348 109.362 24.2348ZM110.074 22.2197C110.624 22.2197 111.102 22.1111 111.506 21.8939C111.91 21.6717 112.22 21.3788 112.438 21.0152C112.66 20.6515 112.771 20.2551 112.771 19.8258V18.4545C112.685 18.5253 112.539 18.5909 112.331 18.6515C112.129 18.7121 111.902 18.7652 111.65 18.8106C111.397 18.8561 111.147 18.8965 110.9 18.9318C110.652 18.9672 110.438 18.9975 110.256 19.0227C109.847 19.0783 109.48 19.1692 109.157 19.2955C108.834 19.4217 108.579 19.5985 108.392 19.8258C108.205 20.048 108.112 20.3359 108.112 20.6894C108.112 21.1944 108.296 21.5758 108.665 21.8333C109.033 22.0909 109.503 22.2197 110.074 22.2197Z" fill="white"/>
</g>
</svg>
